<svg width="134" height="134" viewBox="0 0 134 134" fill="none" xmlns="http://www.w3.org/2000/svg">
<circle cx="91" cy="91" r="38" fill="#D7F3DD"/>
<path d="M91.0002 88.1803C95.6862 88.1803 99.4406 84.3977 99.4406 79.7117C99.4406 75.0258 95.6862 71.2432 91.0002 71.2432C86.3143 71.2432 82.5317 75.0258 82.5317 79.7117C82.5317 84.3977 86.3143 88.1803 91.0002 88.1803ZM91.0002 93.826C84.423 93.826 71.2402 97.1288 71.2402 103.706V110.763H110.76V103.706C110.76 97.1288 97.5775 93.826 91.0002 93.826Z" fill="#16A02C"/>
<circle cx="32" cy="37" r="27" fill="#D7F3DD"/>
<path d="M32 34.9962C35.3294 34.9962 37.997 32.3085 37.997 28.9791C37.997 25.6496 35.3294 22.9619 32 22.9619C28.6705 22.9619 25.9828 25.6496 25.9828 28.9791C25.9828 32.3085 28.6705 34.9962 32 34.9962ZM32 39.0076C27.3266 39.0076 17.96 41.3543 17.96 46.0276V51.0419H46.04V46.0276C46.04 41.3543 36.6733 39.0076 32 39.0076Z" fill="#16A02C"/>
<circle cx="95" cy="21" r="16" fill="#D7F3DD"/>
<path d="M95.0002 19.8121C96.9732 19.8121 98.554 18.2194 98.554 16.2464C98.554 14.2734 96.9732 12.6807 95.0002 12.6807C93.0271 12.6807 91.4345 14.2734 91.4345 16.2464C91.4345 18.2194 93.0271 19.8121 95.0002 19.8121ZM95.0002 22.1892C92.2308 22.1892 86.6802 23.5799 86.6802 26.3492V29.3207H103.32V26.3492C103.32 23.5799 97.7695 22.1892 95.0002 22.1892Z" fill="#16A02C"/>
</svg>
