<svg width="34" height="34" viewBox="0 0 34 34" fill="none" xmlns="http://www.w3.org/2000/svg">
<ellipse cx="17" cy="17" rx="17" ry="17" transform="rotate(-180 17 17)" fill="#FFF536"/>
<path d="M24 17.7889C24 18.065 23.7761 18.2889 23.5 18.2889L18.7826 18.2889C18.5064 18.2889 18.2826 18.5127 18.2826 18.7889L18.2826 23.5C18.2826 23.7761 18.0587 24 17.7826 24L16.1865 24C15.9104 24 15.6865 23.7761 15.6865 23.5L15.6865 18.7889C15.6865 18.5127 15.4627 18.2889 15.1865 18.2889L10.5 18.2889C10.2239 18.2889 10 18.065 10 17.7889L10 16.1957C10 15.9196 10.2239 15.6957 10.5 15.6957L15.1865 15.6957C15.4627 15.6957 15.6865 15.4718 15.6865 15.1957L15.6865 10.5C15.6865 10.2239 15.9104 10 16.1865 10L17.7826 10C18.0587 10 18.2826 10.2239 18.2826 10.5L18.2826 15.1957C18.2826 15.4718 18.5064 15.6957 18.7826 15.6957L23.5 15.6957C23.7761 15.6957 24 15.9196 24 16.1957L24 17.7889Z" fill="#16A12C"/>
</svg>
