<svg width="115" height="67" viewBox="0 0 115 67" fill="none" xmlns="http://www.w3.org/2000/svg">
<g clip-path="url(#clip0_286_6379)">
<path d="M12.0068 29.7919L8.38934 32.7847L8.68434 31.3525L7.26465 31.2057L11.1107 28.3965L12.0068 29.7919Z" fill="#077D1A" style="mix-blend-mode:multiply"/>
<path d="M26.3398 22.1392C26.3398 22.1392 25.5397 22.7892 23.8323 19.8919C22.125 16.9946 12.5928 7.89875 3.81288 6.80078L0 21.3387C0 21.3387 8.58082 24.0377 11.6894 30.934C11.8348 31.1022 12.0262 31.2247 12.2403 31.2866C12.4544 31.3486 12.6819 31.3472 12.8952 31.2828L26.3398 22.1392Z" fill="#16A02C"/>
<path d="M26.491 21.0889C26.491 21.0889 28.6003 11.2476 19.5696 2.20312L14.75 9.79708C14.75 9.79708 23.1796 14.244 26.4431 21.2394" fill="#16A02C"/>
<path d="M12.8959 31.2824L26.3295 22.1462C26.2594 22.1902 25.8022 22.4142 24.9319 21.4521L11.4541 30.4599C11.5315 30.6178 11.609 30.772 11.6827 30.9372C11.8292 31.1062 12.022 31.2289 12.2376 31.2902C12.4531 31.3515 12.6819 31.3488 12.8959 31.2824Z" fill="#077D1A" style="mix-blend-mode:multiply"/>
<path d="M26.8665 21.9264C26.842 21.9218 26.8198 21.9088 26.8039 21.8897C26.788 21.8706 26.7793 21.8465 26.7793 21.8217C26.7793 21.7969 26.788 21.7728 26.8039 21.7537C26.8198 21.7346 26.842 21.7217 26.8665 21.7171C26.9107 21.7171 31.1292 21.3241 33.0209 17.6116C33.0271 17.5995 33.0357 17.5888 33.0462 17.58C33.0566 17.5712 33.0687 17.5645 33.0817 17.5604C33.0948 17.5563 33.1085 17.5549 33.1221 17.5561C33.1357 17.5573 33.1489 17.5612 33.161 17.5676C33.1735 17.5734 33.1847 17.5817 33.1939 17.592C33.2031 17.6022 33.2101 17.6142 33.2146 17.6272C33.2191 17.6403 33.2209 17.654 33.2199 17.6677C33.2189 17.6815 33.2152 17.6948 33.209 17.7071C31.262 21.5261 26.9402 21.9227 26.8849 21.9264H26.8665Z" fill="#077D1A" style="mix-blend-mode:multiply"/>
<path d="M26.7606 21.2434C26.7412 21.2436 26.7221 21.2382 26.7057 21.2278C26.6893 21.2173 26.6763 21.2023 26.6684 21.1846C26.6622 21.1724 26.6585 21.159 26.6575 21.1453C26.6565 21.1316 26.6583 21.1178 26.6628 21.1048C26.6673 21.0918 26.6743 21.0798 26.6835 21.0695C26.6927 21.0593 26.7039 21.051 26.7164 21.0451C27.7159 20.5213 28.5782 19.7714 29.234 18.8556C29.8898 17.9398 30.3208 16.8837 30.4924 15.7719C30.4942 15.7584 30.4987 15.7453 30.5056 15.7335C30.5126 15.7217 30.5218 15.7114 30.5328 15.7032C30.5438 15.695 30.5563 15.689 30.5696 15.6857C30.5829 15.6824 30.5968 15.6817 30.6104 15.6838C30.6243 15.6851 30.6378 15.6893 30.6501 15.696C30.6624 15.7027 30.6732 15.7119 30.6818 15.7228C30.6904 15.7338 30.6967 15.7465 30.7003 15.76C30.7039 15.7734 30.7046 15.7875 30.7026 15.8013C30.5229 16.9464 30.0768 18.0339 29.4001 18.9769C28.7234 19.9198 27.8346 20.6922 26.8049 21.2324C26.7913 21.2397 26.7761 21.2435 26.7606 21.2434Z" fill="#077D1A" style="mix-blend-mode:multiply"/>
<path d="M33.4863 17.5189C33.4871 17.5823 33.4689 17.6444 33.4341 17.6974C33.3993 17.7504 33.3494 17.7919 33.2909 17.8167C33.2323 17.8414 33.1677 17.8483 33.1052 17.8364C33.0427 17.8245 32.9852 17.7943 32.94 17.7498C32.8948 17.7053 32.8638 17.6484 32.8512 17.5863C32.8385 17.5242 32.8446 17.4598 32.8688 17.4012C32.893 17.3426 32.9341 17.2925 32.9869 17.2572C33.0397 17.222 33.1019 17.2031 33.1655 17.2031C33.25 17.2031 33.331 17.2363 33.3911 17.2954C33.4511 17.3545 33.4854 17.4348 33.4863 17.5189Z" fill="#16A02C"/>
<path d="M30.916 15.6945C30.916 15.7577 30.8972 15.8194 30.862 15.872C30.8267 15.9245 30.7766 15.9654 30.718 15.9896C30.6594 16.0138 30.5949 16.0201 30.5326 16.0078C30.4704 15.9955 30.4132 15.9651 30.3684 15.9204C30.3235 15.8757 30.293 15.8188 30.2806 15.7568C30.2682 15.6948 30.2746 15.6306 30.2988 15.5722C30.3231 15.5138 30.3642 15.4639 30.417 15.4288C30.4697 15.3937 30.5318 15.375 30.5952 15.375C30.6803 15.375 30.7619 15.4086 30.8221 15.4686C30.8822 15.5285 30.916 15.6097 30.916 15.6945Z" fill="#16A02C"/>
</g>
<path d="M37.7818 53.0844H28.8581C27.5601 53.0844 26.3973 52.8286 25.3697 52.3169C24.3692 51.7783 23.5309 51.0916 22.8548 50.2568C22.1788 49.4221 21.665 48.4795 21.3134 47.4293C20.9619 46.3522 20.7861 45.275 20.7861 44.1978V38.5428C20.7861 37.4656 20.9619 36.4019 21.3134 35.3517C21.665 34.2746 22.1788 33.3186 22.8548 32.4838C23.5309 31.649 24.3692 30.9758 25.3697 30.4641C26.3973 29.9255 27.5601 29.6562 28.8581 29.6562H41.4325L37.8224 34.9478H34.2123C33.5093 34.9478 32.8197 35.0016 32.1436 35.1094C31.4676 35.1901 30.8592 35.3652 30.3183 35.6345C29.7775 35.9038 29.3313 36.2942 28.9798 36.8059C28.6553 37.2906 28.493 37.9369 28.493 38.7447V43.9959C28.493 44.8037 28.6553 45.4635 28.9798 45.9752C29.3313 46.4599 29.7775 46.8369 30.3183 47.1062C30.8592 47.3755 31.4676 47.564 32.1436 47.6717C32.8197 47.7525 33.5093 47.7929 34.2123 47.7929H41.4325L37.7818 53.0844Z" fill="#16A02C"/>
<path d="M43.3253 53.0844H56.5081L60.2399 47.7929H51.0727V29.6562H43.3253V53.0844Z" fill="#16A02C"/>
<path d="M62.1409 29.6562V53.0844H69.8884V29.6562H62.1409Z" fill="#16A02C"/>
<path d="M89.4753 53.0844H80.5516C79.2536 53.0844 78.0908 52.8286 77.0632 52.3169C76.0626 51.7783 75.2243 51.0916 74.5483 50.2568C73.8723 49.4221 73.3585 48.4795 73.0069 47.4293C72.6554 46.3522 72.4796 45.275 72.4796 44.1978V38.5428C72.4796 37.4656 72.6554 36.4019 73.0069 35.3517C73.3585 34.2746 73.8723 33.3186 74.5483 32.4838C75.2243 31.649 76.0626 30.9758 77.0632 30.4641C78.0908 29.9255 79.2536 29.6562 80.5516 29.6562H93.1259L89.5159 34.9478H85.9058C85.2027 34.9478 84.5132 35.0016 83.8371 35.1094C83.1611 35.1901 82.5526 35.3652 82.0118 35.6345C81.471 35.9038 81.0248 36.2942 80.6732 36.8059C80.3487 37.2906 80.1865 37.9369 80.1865 38.7447V43.9959C80.1865 44.8037 80.3487 45.4635 80.6732 45.9752C81.0248 46.4599 81.471 46.8369 82.0118 47.1062C82.5526 47.3755 83.1611 47.564 83.8371 47.6717C84.5132 47.7525 85.2027 47.7929 85.9058 47.7929H93.1259L89.4753 53.0844Z" fill="#16A02C"/>
<path d="M107.106 53.0844H114.854L109.053 41.3703L114.854 29.6562H107.106L102.807 38.3812L102.766 38.3408V29.6562H95.0188V53.0844H102.766V44.3998H102.807L107.106 53.0844Z" fill="#16A02C"/>
<path d="M43.1011 66.9425C42.7799 66.9425 42.4594 66.9104 42.1445 66.8464C41.8392 66.7842 41.5407 66.6919 41.2535 66.571C40.9713 66.4521 40.7013 66.3061 40.4472 66.1352C40.1952 65.9656 39.96 65.7723 39.7447 65.5581C39.5297 65.3439 39.3356 65.1096 39.1652 64.8586C38.9936 64.6057 38.8471 64.3368 38.7276 64.0557C38.6062 63.7698 38.5136 63.4726 38.451 63.1684C38.3868 62.855 38.3544 62.5358 38.3545 62.2159C38.3544 61.8959 38.3867 61.5768 38.4509 61.2633C38.5135 60.9591 38.6061 60.6619 38.7275 60.376C38.847 60.0949 38.9936 59.826 39.1651 59.5731C39.3356 59.3221 39.5296 59.0878 39.7447 58.8736C39.9599 58.6594 40.1952 58.4661 40.4472 58.2964C40.7012 58.1256 40.9713 57.9796 41.2535 57.8606C41.5407 57.7398 41.8391 57.6475 42.1445 57.5852C42.4593 57.5213 42.7798 57.4892 43.1011 57.4893C43.4224 57.4892 43.7429 57.5214 44.0578 57.5853C44.3631 57.6476 44.6616 57.7398 44.9488 57.8607C45.231 57.9797 45.501 58.1256 45.7551 58.2965C46.0071 58.4661 46.2423 58.6594 46.4575 58.8736C46.6726 59.0879 46.8667 59.3221 47.0371 59.5732C47.2086 59.8261 47.3552 60.0949 47.4747 60.3761C47.5961 60.662 47.6887 60.9592 47.7513 61.2633C47.8155 61.5768 47.8478 61.8959 47.8478 62.2159C47.8479 62.5358 47.8156 62.855 47.7514 63.1684C47.6888 63.4726 47.5962 63.7698 47.4748 64.0557C47.3553 64.3368 47.2087 64.6057 47.0372 64.8586C46.8667 65.1096 46.6727 65.3439 46.4576 65.5581C46.2424 65.7723 46.0071 65.9656 45.7551 66.1352C45.5011 66.3061 45.231 66.4521 44.9488 66.571C44.6616 66.6919 44.3632 66.7842 44.0578 66.8464C43.743 66.9104 43.4225 66.9425 43.1011 66.9425ZM40.4318 63.1325C40.5258 63.4064 40.6616 63.6643 40.8345 63.8969C41.0054 64.1272 41.2105 64.3303 41.4427 64.499C41.6768 64.6695 41.936 64.8026 42.2111 64.8936C42.4961 64.9877 42.7943 65.0355 43.0944 65.0352C43.3956 65.0355 43.6948 64.9874 43.9805 64.8927C44.2564 64.8011 44.5163 64.6671 44.7508 64.4957C44.9834 64.3258 45.1886 64.1216 45.3595 63.8899C45.5322 63.656 45.6676 63.3967 45.7608 63.1214C45.5922 63.1887 45.4182 63.2524 45.2439 63.3105C45.0257 63.3831 44.8073 63.447 44.5948 63.5001C44.0523 63.6358 43.5419 63.7046 43.0777 63.7046C42.6201 63.7046 42.1182 63.6377 41.5861 63.5056C41.3762 63.4535 41.1608 63.391 40.9459 63.3198C40.7728 63.2625 40.5999 63.1994 40.4317 63.1325L40.4318 63.1325Z" fill="#16A02C"/>
<path d="M62.067 66.9405C61.7457 66.9406 61.4252 66.9084 61.1103 66.8445C60.805 66.7822 60.5065 66.69 60.2193 66.5691C59.9371 66.4501 59.6671 66.3042 59.4131 66.1333C59.161 65.9636 58.9258 65.7704 58.7106 65.5561C58.4955 65.3419 58.3014 65.1077 58.131 64.8566C57.9595 64.6037 57.8129 64.3349 57.6934 64.0537C57.572 63.7678 57.4794 63.4706 57.4168 63.1665C57.3526 62.853 57.3203 62.5339 57.3203 62.2139C57.3202 61.894 57.3525 61.5748 57.4167 61.2613C57.4793 60.9572 57.572 60.66 57.6933 60.3741C57.8128 60.0929 57.9594 59.824 58.1309 59.5711C58.3014 59.3201 58.4955 59.0859 58.7105 58.8716C58.9257 58.6574 59.161 58.4641 59.413 58.2945C59.6671 58.1236 59.9371 57.9777 60.2193 57.8587C60.5065 57.7378 60.8049 57.6456 61.1103 57.5833C61.4251 57.5194 61.7457 57.4872 62.067 57.4873C62.3883 57.4872 62.7087 57.5194 63.0236 57.5833C63.3289 57.6456 63.6274 57.7379 63.9146 57.8587C64.1968 57.9777 64.4668 58.1237 64.7209 58.2945C64.9729 58.4642 65.2081 58.6574 65.4234 58.8717C65.6384 59.0859 65.8325 59.3202 66.0029 59.5712C66.1745 59.8241 66.321 60.093 66.4406 60.3741C66.5619 60.66 66.6546 60.9572 66.7171 61.2614C66.7813 61.5748 66.8137 61.894 66.8136 62.2139C66.8137 62.5339 66.7814 62.853 66.7172 63.1665C66.6546 63.4706 66.562 63.7678 66.4406 64.0537C66.3211 64.3349 66.1745 64.6037 66.003 64.8566C65.8326 65.1077 65.6385 65.3419 65.4234 65.5561C65.2082 65.7704 64.973 65.9636 64.7209 66.1333C64.4669 66.3042 64.1969 66.4501 63.9146 66.5691C63.6275 66.6899 63.329 66.7822 63.0237 66.8445C62.7088 66.9084 62.3883 66.9406 62.067 66.9405ZM59.3976 63.1305C59.4916 63.4045 59.6274 63.6623 59.8003 63.8949C59.9713 64.1253 60.1763 64.3283 60.4085 64.4971C60.6426 64.6675 60.9019 64.8006 61.1769 64.8916C61.4619 64.9858 61.7601 65.0336 62.0603 65.0333C62.3614 65.0336 62.6606 64.9854 62.9464 64.8907C63.2222 64.7991 63.4821 64.6652 63.7166 64.4937C63.9492 64.3239 64.1545 64.1196 64.3253 63.8879C64.4981 63.654 64.6335 63.3948 64.7267 63.1194C64.558 63.1868 64.3841 63.2504 64.2097 63.3086C63.9915 63.3811 63.7731 63.445 63.5606 63.4981C63.0181 63.6338 62.5077 63.7027 62.0436 63.7027C61.5859 63.7027 61.084 63.6357 60.5519 63.5036C60.342 63.4515 60.1266 63.3891 59.9117 63.3178C59.7387 63.2605 59.5657 63.1975 59.3976 63.1305L59.3976 63.1305Z" fill="#16A02C"/>
<path d="M51.0372 61.3777C51.0405 61.369 51.0434 61.3616 51.0461 61.3546C51.0817 61.2644 51.1256 61.1776 51.1773 61.0951C51.2111 61.0412 51.2483 60.9893 51.2887 60.9397V60.9762L51.0372 61.3777ZM48.5752 60.8004L48.5753 57.5312H51.2889V58.0986C51.1335 58.1438 50.9812 58.1983 50.8329 58.262C50.5949 58.3644 50.3679 58.4895 50.1553 58.6353C49.9435 58.7807 49.7466 58.9455 49.5672 59.1274C49.3871 59.3101 49.2252 59.5088 49.0835 59.721C48.9405 59.9352 48.8185 60.1621 48.7192 60.3985C48.664 60.5299 48.616 60.6641 48.5752 60.8004Z" fill="#16A02C"/>
<path d="M54.033 67.0004L54.0206 61.8868C54.0205 61.5425 53.8961 61.2092 53.6689 60.9449C53.4418 60.6806 53.1263 60.5022 52.7776 60.4407V60.4432C52.7055 60.4324 52.6327 60.4269 52.5598 60.4269C52.1624 60.4269 51.7917 60.5906 51.516 60.8879C51.3839 61.0309 51.28 61.1964 51.2097 61.376C51.1363 61.5616 51.0987 61.7588 51.0989 61.9576V66.1396H48.5723V61.9575C48.5723 61.1713 48.8066 60.402 49.247 59.7424C49.3887 59.5303 49.5507 59.3315 49.7307 59.1489C49.9101 58.967 50.107 58.8022 50.3188 58.6568C50.5314 58.5109 50.7584 58.3859 50.9963 58.2835C51.4887 58.0716 52.0213 57.9624 52.5598 57.9629H52.5627C52.6294 57.9629 52.6992 57.9657 52.7702 57.9713C53.2711 58.0024 53.7615 58.1246 54.216 58.3316C54.9125 58.6474 55.5018 59.1496 55.9147 59.7794C56.3276 60.4091 56.547 61.1402 56.5472 61.8868L56.5596 67.0004H54.033Z" fill="#16A02C"/>
<path d="M54.033 67.0004L54.0206 61.8868C54.0205 61.5425 53.8961 61.2092 53.6689 60.9449C53.4418 60.6806 53.1263 60.5022 52.7776 60.4407V60.4432C52.7055 60.4324 52.6327 60.4269 52.5598 60.4269C52.1624 60.4269 51.7917 60.5906 51.516 60.8879C51.3839 61.0309 51.28 61.1964 51.2097 61.376C51.1363 61.5616 51.0987 61.7588 51.0989 61.9576V66.1396H48.5723V61.9575C48.5723 61.1713 48.8066 60.402 49.247 59.7424C49.3887 59.5303 49.5507 59.3315 49.7307 59.1489C49.9101 58.967 50.107 58.8022 50.3188 58.6568C50.5314 58.5109 50.7584 58.3859 50.9963 58.2835C51.4887 58.0716 52.0213 57.9624 52.5598 57.9629H52.5627C52.6294 57.9629 52.6992 57.9657 52.7702 57.9713C53.2711 58.0024 53.7615 58.1246 54.216 58.3316C54.9125 58.6474 55.5018 59.1496 55.9147 59.7794C56.3276 60.4091 56.547 61.1402 56.5472 61.8868L56.5596 67.0004H54.033Z" fill="#16A02C"/>
<path d="M26.2005 64.3987H22.5825L21.916 66.2358H20.7734L23.7726 58.0225H25.0223L28.0095 66.2358H26.867L26.2005 64.3987ZM25.8911 63.5217L24.3915 59.3499L22.8919 63.5217H25.8911Z" fill="#242424"/>
<path d="M32.4943 59.6225C33.2877 59.6225 33.9304 59.8634 34.4224 60.3454C34.9143 60.8195 35.1602 61.5069 35.1602 62.4076V66.2358H34.0891V62.5617C34.0891 61.9138 33.9265 61.42 33.6012 61.0802C33.2758 60.7326 32.8315 60.5587 32.2682 60.5587C31.6969 60.5587 31.2407 60.7365 30.8995 61.0921C30.5663 61.4476 30.3997 61.9652 30.3997 62.6447V66.2358H29.3166V59.741H30.3997V60.6654C30.6139 60.3336 30.9035 60.0768 31.2685 59.895C31.6414 59.7133 32.05 59.6225 32.4943 59.6225Z" fill="#242424"/>
<path d="M75.4201 60.6344C75.4201 61.3218 75.1821 61.8947 74.706 62.3529C74.2379 62.8033 73.5198 63.0285 72.5518 63.0285H70.9571V66.4774H69.874V58.2167H72.5518C73.4881 58.2167 74.1982 58.4418 74.6822 58.8922C75.1741 59.3426 75.4201 59.9233 75.4201 60.6344ZM72.5518 62.1396C73.1549 62.1396 73.5992 62.0092 73.8848 61.7485C74.1704 61.4878 74.3133 61.1164 74.3133 60.6344C74.3133 59.6152 73.7261 59.1055 72.5518 59.1055H70.9571V62.1396H72.5518Z" fill="#242424"/>
<path d="M77.8492 61.0374C78.0396 60.666 78.3094 60.3776 78.6585 60.1722C79.0155 59.9668 79.448 59.8641 79.9558 59.8641V60.9781H79.6701C78.4562 60.9781 77.8492 61.6339 77.8492 62.9455V66.4774H76.7662V59.9826H77.8492V61.0374Z" fill="#242424"/>
<path d="M84.0504 66.584C83.4395 66.584 82.8841 66.4458 82.3842 66.1692C81.8923 65.8927 81.5035 65.5016 81.2179 64.9959C80.9402 64.4823 80.8013 63.8897 80.8013 63.2181C80.8013 62.5544 80.9441 61.9697 81.2298 61.4641C81.5233 60.9505 81.9201 60.5594 82.4199 60.2907C82.9198 60.0142 83.4791 59.8759 84.098 59.8759C84.7169 59.8759 85.2763 60.0142 85.7761 60.2907C86.276 60.5594 86.6687 60.9465 86.9544 61.4522C87.2479 61.9579 87.3947 62.5465 87.3947 63.2181C87.3947 63.8897 87.244 64.4823 86.9425 64.9959C86.6489 65.5016 86.2482 65.8927 85.7404 66.1692C85.2326 66.4458 84.6693 66.584 84.0504 66.584ZM84.0504 65.6359C84.4392 65.6359 84.8042 65.545 85.1454 65.3633C85.4865 65.1816 85.7603 64.909 85.9666 64.5455C86.1808 64.1821 86.2879 63.7396 86.2879 63.2181C86.2879 62.6966 86.1847 62.2542 85.9785 61.8907C85.7722 61.5273 85.5024 61.2586 85.1692 61.0848C84.8359 60.9031 84.4749 60.8122 84.0861 60.8122C83.6894 60.8122 83.3244 60.9031 82.9912 61.0848C82.6659 61.2586 82.4041 61.5273 82.2057 61.8907C82.0073 62.2542 81.9082 62.6966 81.9082 63.2181C81.9082 63.7475 82.0034 64.1939 82.1938 64.5574C82.3921 64.9208 82.654 65.1934 82.9793 65.3751C83.3046 65.549 83.6616 65.6359 84.0504 65.6359Z" fill="#242424"/>
<path d="M88.4141 63.2063C88.4141 62.5426 88.549 61.9618 88.8187 61.4641C89.0885 60.9584 89.4574 60.5673 89.9256 60.2907C90.4016 60.0142 90.9332 59.8759 91.5203 59.8759C92.0281 59.8759 92.5002 59.9944 92.9366 60.2315C93.373 60.4606 93.7062 60.7648 93.9363 61.1441V57.707H95.0313V66.4774H93.9363V65.2566C93.7221 65.6438 93.4047 65.9638 92.9842 66.2166C92.5637 66.4616 92.0718 66.584 91.5084 66.584C90.9292 66.584 90.4016 66.4418 89.9256 66.1574C89.4574 65.8729 89.0885 65.4739 88.8187 64.9603C88.549 64.4468 88.4141 63.8621 88.4141 63.2063ZM93.9363 63.2181C93.9363 62.7282 93.8372 62.3016 93.6388 61.9381C93.4404 61.5747 93.1707 61.2981 92.8295 61.1085C92.4963 60.911 92.1273 60.8122 91.7227 60.8122C91.318 60.8122 90.9491 60.907 90.6158 61.0966C90.2826 61.2863 90.0168 61.5628 89.8184 61.9263C89.6201 62.2897 89.5209 62.7164 89.5209 63.2063C89.5209 63.704 89.6201 64.1386 89.8184 64.51C90.0168 64.8734 90.2826 65.1539 90.6158 65.3514C90.9491 65.5411 91.318 65.6359 91.7227 65.6359C92.1273 65.6359 92.4963 65.5411 92.8295 65.3514C93.1707 65.1539 93.4404 64.8734 93.6388 64.51C93.8372 64.1386 93.9363 63.708 93.9363 63.2181Z" fill="#242424"/>
<path d="M102.646 59.9826V66.4774H101.563V65.5174C101.356 65.8492 101.067 66.11 100.694 66.2996C100.329 66.4813 99.9241 66.5722 99.4798 66.5722C98.972 66.5722 98.5158 66.4695 98.1111 66.264C97.7065 66.0507 97.3852 65.7346 97.1471 65.3159C96.917 64.8971 96.802 64.3875 96.802 63.787V59.9826H97.8731V63.6448C97.8731 64.2848 98.0358 64.7786 98.3611 65.1263C98.6864 65.466 99.1307 65.6359 99.694 65.6359C100.273 65.6359 100.729 65.4581 101.063 65.1026C101.396 64.747 101.563 64.2295 101.563 63.55V59.9826H102.646Z" fill="#242424"/>
<path d="M104.07 63.2181C104.07 62.5465 104.204 61.9618 104.474 61.4641C104.744 60.9584 105.117 60.5673 105.593 60.2907C106.077 60.0142 106.628 59.8759 107.247 59.8759C108.049 59.8759 108.707 60.0695 109.223 60.4566C109.747 60.8438 110.092 61.3811 110.258 62.0685H109.092C108.981 61.6734 108.763 61.3613 108.437 61.1322C108.12 60.9031 107.723 60.7885 107.247 60.7885C106.628 60.7885 106.129 61.0018 105.748 61.4285C105.367 61.8473 105.176 62.4438 105.176 63.2181C105.176 64.0003 105.367 64.6048 105.748 65.0314C106.129 65.4581 106.628 65.6714 107.247 65.6714C107.723 65.6714 108.12 65.5608 108.437 65.3396C108.755 65.1184 108.973 64.8023 109.092 64.3914H110.258C110.084 65.0551 109.735 65.5885 109.211 65.9914C108.687 66.3865 108.033 66.584 107.247 66.584C106.628 66.584 106.077 66.4458 105.593 66.1692C105.117 65.8927 104.744 65.5016 104.474 64.9959C104.204 64.4902 104.07 63.8976 104.07 63.2181Z" fill="#242424"/>
<path d="M113.025 60.8715V64.6996C113.025 65.0156 113.092 65.2408 113.227 65.3751C113.362 65.5016 113.596 65.5648 113.929 65.5648H114.726V66.4774H113.75C113.147 66.4774 112.695 66.3391 112.394 66.0625C112.092 65.786 111.941 65.3317 111.941 64.6996V60.8715H111.096V59.9826H111.941V58.347H113.025V59.9826H114.726V60.8715H113.025Z" fill="#242424"/>
<defs>
<clipPath id="clip0_286_6379">
<rect width="49.4273" height="32.7847" fill="white"/>
</clipPath>
</defs>
</svg>
