<svg width="51" height="51" viewBox="0 0 51 51" fill="none" xmlns="http://www.w3.org/2000/svg">
<circle cx="25.5" cy="25.5" r="25.5" fill="#16A12C"/>
<path d="M34.5785 16.4359C34.0165 15.8739 33.1086 15.8739 32.5466 16.4359L25.5 23.4681L18.4534 16.4215C17.8914 15.8595 16.9835 15.8595 16.4215 16.4215C15.8595 16.9835 15.8595 17.8914 16.4215 18.4534L23.4681 25.5L16.4215 32.5466C15.8595 33.1086 15.8595 34.0165 16.4215 34.5785C16.9835 35.1405 17.8914 35.1405 18.4534 34.5785L25.5 27.5319L32.5466 34.5785C33.1086 35.1405 34.0165 35.1405 34.5785 34.5785C35.1405 34.0165 35.1405 33.1086 34.5785 32.5466L27.5319 25.5L34.5785 18.4534C35.1261 17.9058 35.1261 16.9835 34.5785 16.4359V16.4359Z" fill="white"/>
</svg>
