<svg width="36" height="36" viewBox="0 0 36 36" fill="none" xmlns="http://www.w3.org/2000/svg">
<circle cx="18" cy="18" r="18" fill="#F0F0F0"/>
<path d="M24.6316 11.3018C24.2425 10.9127 23.614 10.9127 23.2249 11.3018L18.3465 16.1703L13.468 11.2918C13.0789 10.9027 12.4504 10.9027 12.0613 11.2918C11.6723 11.6809 11.6723 12.3094 12.0613 12.6985L16.9398 17.5769L12.0613 22.4554C11.6723 22.8444 11.6723 23.473 12.0613 23.862C12.4504 24.2511 13.0789 24.2511 13.468 23.862L18.3465 18.9836L23.2249 23.862C23.614 24.2511 24.2425 24.2511 24.6316 23.862C25.0206 23.473 25.0206 22.8444 24.6316 22.4554L19.7531 17.5769L24.6316 12.6985C25.0107 12.3194 25.0107 11.6809 24.6316 11.3018Z" fill="black"/>
</svg>
