<svg width="40" height="40" viewBox="0 0 40 40" fill="none" xmlns="http://www.w3.org/2000/svg">
<circle cx="20" cy="20" r="20" fill="#D7F3DD"/>
<path d="M22.8666 21.6627H24.6719C24.6719 19.1714 22.65 17.1496 20.1588 17.1496V18.9548C21.6571 18.9548 22.8666 20.1643 22.8666 21.6627ZM26.4771 21.6627H28.2824C28.2824 17.1766 24.6448 13.5391 20.1588 13.5391V15.3443C23.6519 15.3443 26.4771 18.1695 26.4771 21.6627ZM27.3798 24.8219C26.2515 24.8219 25.1683 24.6413 24.1574 24.3074C24.0671 24.2803 23.9678 24.2622 23.8776 24.2622C23.6429 24.2622 23.4172 24.3525 23.2367 24.524L21.2509 26.5098C18.6965 25.21 16.6024 23.1249 15.3027 20.5615L17.2884 18.5667C17.5412 18.332 17.6134 17.98 17.5141 17.6641C17.1801 16.6531 16.9996 15.57 16.9996 14.4417C16.9996 13.9452 16.5934 13.5391 16.097 13.5391H12.9378C12.4413 13.5391 12.0352 13.9452 12.0352 14.4417C12.0352 22.9173 18.9041 29.7863 27.3798 29.7863C27.8762 29.7863 28.2824 29.3801 28.2824 28.8837V25.7245C28.2824 25.228 27.8762 24.8219 27.3798 24.8219ZM13.8675 15.3443H15.2214C15.2846 16.1386 15.42 16.9239 15.6276 17.6731L14.5444 18.7653C14.1834 17.6731 13.9487 16.5358 13.8675 15.3443ZM26.4771 27.954C25.2857 27.8727 24.1303 27.638 23.0472 27.268L24.1303 26.1848C24.8975 26.4014 25.6828 26.5368 26.4771 26.591V27.954Z" fill="#16A02C"/>
</svg>
