<svg width="30" height="30" viewBox="0 0 30 30" fill="none" xmlns="http://www.w3.org/2000/svg">
<circle cx="15" cy="15" r="15" fill="#D7F3DD"/>
<path d="M14 20H10C8.61667 20 7.43767 19.5123 6.463 18.537C5.48767 17.5623 5 16.3833 5 15C5 13.6167 5.48767 12.4373 6.463 11.462C7.43767 10.4873 8.61667 10 10 10H14V12H10C9.16667 12 8.45833 12.2917 7.875 12.875C7.29167 13.4583 7 14.1667 7 15C7 15.8333 7.29167 16.5417 7.875 17.125C8.45833 17.7083 9.16667 18 10 18H14V20ZM11 16V14H19V16H11ZM16 20V18H20C20.8333 18 21.5417 17.7083 22.125 17.125C22.7083 16.5417 23 15.8333 23 15C23 14.1667 22.7083 13.4583 22.125 12.875C21.5417 12.2917 20.8333 12 20 12H16V10H20C21.3833 10 22.5627 10.4873 23.538 11.462C24.5127 12.4373 25 13.6167 25 15C25 16.3833 24.5127 17.5623 23.538 18.537C22.5627 19.5123 21.3833 20 20 20H16Z" fill="#16A02C"/>
</svg>
