<svg width="17" height="18" viewBox="0 0 17 18" fill="none" xmlns="http://www.w3.org/2000/svg">
<path d="M4.94307 4.39774C4.64192 4.39774 4.39783 4.15364 4.39783 3.8525V0.54524C4.39783 0.244097 4.64192 0 4.94307 0C5.24421 0 5.48831 0.244097 5.48831 0.54524V3.8525C5.48831 4.15364 5.24421 4.39774 4.94307 4.39774Z" fill="#0066FF"/>
<path d="M12.0568 4.39774C11.7557 4.39774 11.5116 4.15364 11.5116 3.8525V0.54524C11.5116 0.244097 11.7557 0 12.0568 0C12.358 0 12.6021 0.244097 12.6021 0.54524V3.8525C12.6021 4.15364 12.358 4.39774 12.0568 4.39774Z" fill="#0066FF"/>
<path d="M0.620117 7.56445V15.0876C0.620117 16.3701 1.66347 17.4135 2.94594 17.4135H14.054C15.3365 17.4135 16.3798 16.3701 16.3798 15.0876V7.56445H0.620117Z" fill="#0066FF"/>
<path d="M16.3798 6.47407V3.97967C16.3798 2.69719 15.3365 1.65384 14.054 1.65384H13.6926V3.85269C13.6926 4.75466 12.9588 5.48841 12.0568 5.48841C11.1549 5.48841 10.4211 4.75466 10.4211 3.85269V1.65381H6.57884V3.85266C6.57884 4.75462 5.84508 5.48838 4.94312 5.48838C4.04116 5.48838 3.3074 4.75462 3.3074 3.85266V1.65381H2.94594C1.66347 1.65381 0.620117 2.69716 0.620117 3.97963V6.47404H16.3798V6.47407Z" fill="#0066FF"/>
</svg>
