<svg width="40" height="40" viewBox="0 0 40 40" fill="none" xmlns="http://www.w3.org/2000/svg">
<circle cx="20" cy="20" r="20" fill="#D7F3DD"/>
<g clip-path="url(#clip0_2629_13438)">
<path d="M15.2654 7.81641L10.9941 12.0872H15.2654V7.81641Z" fill="#16A02C"/>
<path d="M16.7703 16.3472V22.9173C16.7703 24.5852 18.1272 25.9421 19.7951 25.9421H28.3267V30.4001C28.3267 30.8082 27.9955 31.1394 27.5874 31.1394H14.9225L16.6737 28.9797C17.1804 28.3547 17.2844 27.4813 16.9379 26.7553C16.6323 26.1151 16.0177 25.6744 15.3252 25.5798V22.7453C15.3252 21.588 14.3838 20.6471 13.227 20.6471H10.5605V13.565H16.0039C16.412 13.565 16.7432 13.2337 16.7432 12.8256V7.38281H27.5874C27.9955 7.38281 28.3267 7.71403 28.3267 8.12213V13.3225H19.7951C18.1272 13.3225 16.7703 14.6793 16.7703 16.3472Z" fill="#16A02C"/>
<path d="M22.2045 18.7743C22.2045 19.11 21.9102 19.3939 21.5628 19.3939C21.4233 19.3939 21.1828 19.3949 20.9624 19.3963C20.9595 18.7497 20.9614 19.0015 20.959 18.1543H21.5628C21.9102 18.1543 22.2045 18.4382 22.2045 18.7743Z" fill="#16A02C"/>
<path d="M25.5278 18.1533H24.9048C24.9058 18.6378 24.9068 19.3446 24.9068 19.6275C24.9068 19.9641 24.9088 20.6414 24.9103 21.1081C25.1444 21.1066 25.4046 21.1047 25.552 21.1022C26.2947 21.0889 26.6274 20.3545 26.6274 19.632C26.6274 18.9173 26.3386 18.1533 25.5278 18.1533ZM25.5278 18.1533H24.9048C24.9058 18.6378 24.9068 19.3446 24.9068 19.6275C24.9068 19.9641 24.9088 20.6414 24.9103 21.1081C25.1444 21.1066 25.4046 21.1047 25.552 21.1022C26.2947 21.0889 26.6274 20.3545 26.6274 19.632C26.6274 18.9173 26.3386 18.1533 25.5278 18.1533ZM31.0732 14.8008H19.7942C18.9415 14.8008 18.248 15.4943 18.248 16.3469V22.917C18.248 23.7696 18.9415 24.4631 19.7942 24.4631H31.0732C31.9258 24.4631 32.6198 23.7696 32.6198 22.917V16.3469C32.6198 15.4943 31.9258 14.8008 31.0732 14.8008ZM21.5641 20.3787C21.4241 20.3787 21.1807 20.3796 20.9589 20.3811V21.6035C20.9589 21.8755 20.7385 22.0963 20.466 22.0963C20.1939 22.0963 19.9731 21.8755 19.9731 21.6035V17.6604C19.9731 17.3923 20.191 17.1676 20.466 17.1676H21.5641C22.4612 17.1676 23.1916 17.8877 23.1916 18.7734C23.1916 19.6586 22.4612 20.3787 21.5641 20.3787ZM25.5692 22.0875C25.2508 22.0929 24.4548 22.0963 24.4208 22.0963C24.1586 22.0963 23.9181 21.8982 23.9181 21.5394V17.6644C23.9181 17.6629 23.9181 17.6614 23.9181 17.6614C23.9176 17.3889 24.1384 17.1676 24.411 17.1676H25.5278C26.7748 17.1676 27.6132 18.1578 27.6132 19.632C27.6132 21.0342 26.7531 22.0668 25.5692 22.0875ZM30.2747 19.1016C30.5468 19.1016 30.7676 19.3224 30.7676 19.5945C30.7676 19.8666 30.5468 20.0874 30.2747 20.0874H29.2964V21.6035C29.2964 21.8755 29.076 22.0963 28.8035 22.0963C28.5314 22.0963 28.3106 21.8755 28.3106 21.6035V17.6604C28.3106 17.3884 28.5314 17.1676 28.8035 17.1676H30.4019C30.6739 17.1676 30.8948 17.3884 30.8948 17.6604C30.8948 17.9325 30.6739 18.1533 30.4019 18.1533H29.2964V19.1016H30.2747ZM25.5278 18.1533H24.9048C24.9058 18.6378 24.9068 19.3446 24.9068 19.6275C24.9068 19.9641 24.9088 20.6414 24.9103 21.1081C25.1444 21.1066 25.4046 21.1047 25.552 21.1022C26.2947 21.0889 26.6274 20.3545 26.6274 19.632C26.6274 18.9173 26.3386 18.1533 25.5278 18.1533Z" fill="#16A02C"/>
<path d="M15.5245 28.0498L12.0051 32.3902C11.8874 32.5351 11.7107 32.6193 11.524 32.6193C11.3369 32.6193 11.1602 32.5351 11.0425 32.3902L7.52308 28.0498C7.37276 27.8644 7.3422 27.6087 7.44501 27.3932C7.54783 27.1776 7.76548 27.0405 8.00418 27.0405H9.20182V22.7464C9.20182 22.4044 9.47891 22.127 9.82126 22.127H13.2262C13.5686 22.127 13.8457 22.4045 13.8457 22.7464V27.0405H15.0433C15.282 27.0405 15.4997 27.1776 15.6025 27.3932C15.7054 27.6087 15.6748 27.8644 15.5245 28.0498Z" fill="#16A02C"/>
</g>
<defs>
<clipPath id="clip0_2629_13438">
<rect width="25.2352" height="25.2352" fill="white" transform="translate(7.38477 7.38281)"/>
</clipPath>
</defs>
</svg>
