<svg width="40" height="40" viewBox="0 0 40 40" fill="none" xmlns="http://www.w3.org/2000/svg">
<circle cx="20" cy="20" r="20" fill="#D7F3DD"/>
<path d="M28.9109 17.3027L27.9656 13.3684C27.7676 12.5582 27.0653 12 26.2461 12H13.7411C12.9308 12 12.2196 12.5672 12.0305 13.3684L11.0852 17.3027C10.8691 18.221 11.0672 19.1573 11.6434 19.8955C11.7154 19.9946 11.8144 20.0666 11.8955 20.1566V26.4046C11.8955 27.395 12.7057 28.2052 13.696 28.2052H26.3001C27.2904 28.2052 28.1007 27.395 28.1007 26.4046V20.1566C28.1817 20.0756 28.2807 19.9946 28.3528 19.9045C28.9289 19.1663 29.136 18.221 28.9109 17.3027ZM26.2191 13.7916L27.1644 17.7258C27.2544 18.104 27.1734 18.4821 26.9393 18.7792C26.8133 18.9412 26.5432 19.2023 26.093 19.2023C25.5439 19.2023 25.0667 18.7612 25.0037 18.176L24.4815 13.8006L26.2191 13.7916ZM20.8984 13.8006H22.6629L23.1491 17.8699C23.1941 18.221 23.0861 18.5721 22.852 18.8332C22.6539 19.0673 22.3658 19.2023 21.9967 19.2023C21.3935 19.2023 20.8984 18.6711 20.8984 18.0229V13.8006ZM16.8381 17.8699L17.3332 13.8006H19.0978V18.0229C19.0978 18.6711 18.6026 19.2023 17.9364 19.2023C17.6303 19.2023 17.3512 19.0673 17.1351 18.8332C16.9101 18.5721 16.802 18.221 16.8381 17.8699ZM12.8318 17.7258L13.7411 13.8006H15.5146L14.9925 18.176C14.9204 18.7612 14.4523 19.2023 13.9031 19.2023C13.462 19.2023 13.1829 18.9412 13.0658 18.7792C12.8228 18.4911 12.7417 18.104 12.8318 17.7258ZM13.696 26.4046V20.9759C13.7681 20.9849 13.8311 21.0029 13.9031 21.0029C14.6864 21.0029 15.3976 20.6788 15.9198 20.1476C16.4599 20.6878 17.1802 21.0029 17.9994 21.0029C18.7827 21.0029 19.4849 20.6788 20.0071 20.1656C20.5382 20.6788 21.2585 21.0029 22.0687 21.0029C22.825 21.0029 23.5452 20.6878 24.0854 20.1476C24.6076 20.6788 25.3188 21.0029 26.102 21.0029C26.1741 21.0029 26.2371 20.9849 26.3091 20.9759V26.4046H13.696Z" fill="#16A02C"/>
</svg>
