<svg width="65" height="85" viewBox="0 0 65 85" fill="none" xmlns="http://www.w3.org/2000/svg">
<g clip-path="url(#clip0_2351_3400)">
<path d="M39.1968 25.0559H22.5597C22.1806 25.0563 21.8171 25.2076 21.5491 25.4764C21.281 25.7453 21.1302 26.1098 21.1297 26.49V63.5712L20.939 63.6295L16.8577 64.8829C16.6643 64.9421 16.4553 64.9218 16.2768 64.8267C16.0982 64.7315 15.9646 64.5691 15.9053 64.3753L3.76521 24.6075C3.70613 24.4135 3.72627 24.2039 3.8212 24.0248C3.91612 23.8457 4.07807 23.7118 4.27145 23.6523L10.5608 21.7211L28.7938 16.1242L35.083 14.193C35.1788 14.1634 35.2793 14.1531 35.379 14.1626C35.4787 14.1721 35.5756 14.2012 35.664 14.2483C35.7525 14.2953 35.8308 14.3594 35.8946 14.4369C35.9583 14.5143 36.0062 14.6037 36.0355 14.6997L39.1386 24.8646L39.1968 25.0559Z" fill="#F2F2F2"/>
<path d="M42.8273 24.8647L39.0873 12.6136C39.025 12.4095 38.9233 12.2197 38.7879 12.055C38.6525 11.8903 38.4861 11.754 38.2981 11.6538C38.1101 11.5537 37.9043 11.4916 37.6925 11.4713C37.4806 11.4509 37.2668 11.4726 37.0633 11.5352L28.2209 14.2494L9.98889 19.8472L1.14649 22.5625C0.735714 22.689 0.39177 22.9738 0.190148 23.3543C-0.0114741 23.7348 -0.0543015 24.1801 0.0710683 24.5922L12.8537 66.4615C12.9556 66.7942 13.161 67.0854 13.44 67.2924C13.719 67.4994 14.0568 67.6113 14.4039 67.6116C14.5645 67.6117 14.7242 67.5875 14.8777 67.5399L20.9391 65.6794L21.1298 65.6201V65.4203L20.9391 65.4786L14.8215 67.3573C14.4589 67.4682 14.0673 67.4303 13.7325 67.2519C13.3978 67.0736 13.1472 66.7694 13.0358 66.406L0.254152 24.5358C0.198961 24.3558 0.179726 24.1666 0.197547 23.9791C0.215367 23.7916 0.269893 23.6095 0.358004 23.4431C0.446115 23.2768 0.566082 23.1295 0.71103 23.0097C0.855978 22.89 1.02306 22.8 1.20272 22.7451L10.0451 20.0299L28.2772 14.433L37.1196 11.7178C37.2558 11.6761 37.3975 11.6548 37.54 11.6547C37.8457 11.6554 38.1432 11.7542 38.3889 11.9368C38.6346 12.1193 38.8155 12.3759 38.9052 12.6691L42.6281 24.8647L42.6872 25.0559H42.8855L42.8273 24.8647Z" fill="#9DA39D"/>
<path d="M11.6959 23.6835C11.5122 23.6834 11.3333 23.6242 11.1855 23.5146C11.0378 23.4051 10.9289 23.2509 10.8749 23.0748L9.64699 19.0524C9.61399 18.9444 9.60254 18.8309 9.61329 18.7184C9.62404 18.6059 9.65678 18.4967 9.70965 18.3969C9.76251 18.2971 9.83446 18.2087 9.92139 18.1368C10.0083 18.0649 10.1085 18.0109 10.2163 17.9778L26.9896 12.828C27.2071 12.7614 27.4422 12.7842 27.6431 12.8912C27.844 12.9982 27.9944 13.1808 28.0612 13.3989L29.2892 17.4213C29.3555 17.6395 29.3328 17.8752 29.2261 18.0767C29.1194 18.2781 28.9374 18.4289 28.7199 18.496L11.9466 23.6457C11.8654 23.6707 11.7809 23.6835 11.6959 23.6835Z" fill="#16A02C"/>
<path d="M18.1284 15.7608C19.1814 15.7608 20.0351 14.9047 20.0351 13.8487C20.0351 12.7926 19.1814 11.9365 18.1284 11.9365C17.0753 11.9365 16.2217 12.7926 16.2217 13.8487C16.2217 14.9047 17.0753 15.7608 18.1284 15.7608Z" fill="#16A02C"/>
<path d="M18.1283 15.0594C18.7951 15.0594 19.3357 14.5172 19.3357 13.8485C19.3357 13.1798 18.7951 12.6377 18.1283 12.6377C17.4615 12.6377 16.9209 13.1798 16.9209 13.8485C16.9209 14.5172 17.4615 15.0594 18.1283 15.0594Z" fill="white"/>
<path d="M59.5532 70.7466H22.9346C22.6904 70.7463 22.4563 70.6509 22.2837 70.4811C22.1111 70.3113 22.014 70.0812 22.0137 69.8411V26.697C22.0139 26.4569 22.1111 26.2268 22.2837 26.057C22.4563 25.8873 22.6904 25.7918 22.9346 25.7915H59.5532C59.7973 25.7918 60.0314 25.8873 60.204 26.057C60.3767 26.2268 60.4738 26.4569 60.4741 26.697V69.8411C60.4738 70.0812 60.3767 70.3113 60.204 70.4811C60.0314 70.6508 59.7973 70.7463 59.5532 70.7466Z" fill="#E6E6E6"/>
<path d="M42.5302 24.7495H22.462C22.0324 24.7501 21.6205 24.9216 21.3167 25.2262C21.0129 25.5309 20.8419 25.944 20.8413 26.3748V65.3634L21.032 65.3051V26.3748C21.0324 25.9946 21.1833 25.6301 21.4513 25.3613C21.7194 25.0924 22.0829 24.9412 22.462 24.9407H42.5893L42.5302 24.7495ZM60.0243 24.7495H22.462C22.0324 24.7501 21.6205 24.9216 21.3167 25.2262C21.0129 25.5309 20.8419 25.944 20.8413 26.3748V70.1629C20.8419 70.5938 21.0129 71.0069 21.3167 71.3115C21.6205 71.6162 22.0324 71.7876 22.462 71.7882H60.0243C60.454 71.7876 60.8659 71.6162 61.1697 71.3115C61.4735 71.0069 61.6444 70.5938 61.6451 70.1629V26.3748C61.6444 25.944 61.4735 25.5309 61.1697 25.2262C60.8659 24.9216 60.454 24.7501 60.0243 24.7495ZM61.4544 70.1629C61.4539 70.5431 61.3031 70.9076 61.035 71.1765C60.7669 71.4453 60.4035 71.5966 60.0243 71.597H22.462C22.0829 71.5966 21.7194 71.4453 21.4513 71.1765C21.1833 70.9076 21.0324 70.5431 21.032 70.1629V26.3748C21.0324 25.9946 21.1833 25.6301 21.4513 25.3613C21.7194 25.0924 22.0829 24.9412 22.462 24.9407H60.0243C60.4035 24.9412 60.7669 25.0924 61.035 25.3613C61.3031 25.6301 61.4539 25.9946 61.4544 26.3748V70.1629Z" fill="#9DA39D"/>
<path d="M50.1122 29.0712H32.5704C32.3429 29.0709 32.1248 28.9802 31.964 28.8189C31.8031 28.6576 31.7127 28.4389 31.7124 28.2107V24.004C31.7127 23.7759 31.8031 23.5572 31.964 23.3959C32.1249 23.2346 32.3429 23.1438 32.5704 23.1436H50.1122C50.3397 23.1438 50.5578 23.2346 50.7187 23.3959C50.8795 23.5572 50.97 23.7759 50.9702 24.004V28.2107C50.97 28.4389 50.8795 28.6576 50.7187 28.8189C50.5578 28.9802 50.3397 29.0709 50.1122 29.0712Z" fill="#16A02C"/>
<path d="M41.3413 23.4302C42.3943 23.4302 43.248 22.5741 43.248 21.5181C43.248 20.4621 42.3943 19.606 41.3413 19.606C40.2882 19.606 39.4346 20.4621 39.4346 21.5181C39.4346 22.5741 40.2882 23.4302 41.3413 23.4302Z" fill="#16A02C"/>
<path d="M41.3411 22.6829C41.9825 22.6829 42.5024 22.1614 42.5024 21.5182C42.5024 20.875 41.9825 20.3535 41.3411 20.3535C40.6996 20.3535 40.1797 20.875 40.1797 21.5182C40.1797 22.1614 40.6996 22.6829 41.3411 22.6829Z" fill="white"/>
</g>
<path fill-rule="evenodd" clip-rule="evenodd" d="M47.521 18.0776C47.9652 18.4534 48.446 18.784 48.956 19.0645C49.4659 19.3452 50.0025 19.5743 50.5578 19.7484C51.0966 19.9167 51.6503 20.0318 52.2111 20.0918C52.7623 20.1505 53.3177 20.1559 53.8692 20.1081C54.4166 20.0605 54.9578 19.9609 55.4854 19.8107C56.0128 19.6604 56.5242 19.4602 57.0127 19.2128C57.5046 18.9635 57.9707 18.6671 58.4045 18.3279C58.8454 17.9826 59.2505 17.5945 59.6139 17.1691C59.988 16.7304 60.3164 16.2549 60.5941 15.7499C60.872 15.245 61.0978 14.7131 61.2681 14.1623C61.4329 13.6276 61.5439 13.0777 61.5996 12.5205C61.654 11.9724 61.6548 11.4201 61.6022 10.8712C61.5497 10.3261 61.445 9.78694 61.2897 9.26103C61.1342 8.73494 60.9286 8.2245 60.6759 7.73667C60.4211 7.24515 60.1192 6.77901 59.7746 6.34479C59.4238 5.90325 59.0302 5.49702 58.5996 5.13204C58.1554 4.75621 57.6747 4.42557 57.1647 4.14511C56.6547 3.86438 56.1181 3.63523 55.5629 3.46114C55.0241 3.29279 54.4703 3.17777 53.9096 3.11773C53.3583 3.05906 52.803 3.05357 52.2514 3.10137C51.7041 3.14904 51.1629 3.24865 50.6353 3.39883C50.1079 3.54915 49.5965 3.74932 49.108 3.99669C48.6161 4.24602 48.15 4.54242 47.7162 4.88171C47.2753 5.22695 46.8702 5.61511 46.5067 6.0405C46.1327 6.47918 45.8042 6.95466 45.5265 7.45969C45.2486 7.9646 45.0228 8.49651 44.8525 9.04731C44.6877 9.58198 44.5767 10.132 44.521 10.6892C44.4666 11.2372 44.4658 11.7895 44.5184 12.3384C44.571 12.8835 44.6756 13.4227 44.8309 13.9486C44.9865 14.4747 45.192 14.9851 45.4447 15.4729C45.6996 15.9644 46.0014 16.4306 46.346 16.8648C46.6969 17.3064 47.0905 17.7126 47.521 18.0776ZM55.1813 16.2583C55.2537 16.7763 55.2454 17.3018 55.1567 17.8163C54.948 17.5638 54.7283 17.3133 54.5034 17.0717C54.2241 16.7717 53.9365 16.485 53.6486 16.2194C52.9187 15.5463 52.1803 15.0024 51.4539 14.6027C50.7173 14.1974 49.8474 13.8603 48.8685 13.6007C48.4851 13.499 48.083 13.4091 47.6737 13.333C47.3464 13.2726 47.0151 13.2211 46.6889 13.1801C47.0759 12.8269 47.516 12.536 47.9933 12.3177C48.4656 12.1013 48.9687 11.9581 49.4854 11.8932C50.0065 11.8274 50.5353 11.8429 51.0527 11.9393C51.5885 12.0393 52.1052 12.2247 52.5829 12.4881C53.0595 12.7497 53.4914 13.0856 53.8619 13.483C54.2194 13.8669 54.5153 14.3033 54.7389 14.7768C54.9608 15.2459 55.11 15.7454 55.1813 16.2583Z" fill="#D5D4D4"/>
<path fill-rule="evenodd" clip-rule="evenodd" d="M15.0667 82.4571C15.4277 82.3185 15.7741 82.1442 16.1006 81.9368C16.4272 81.7296 16.7323 81.4902 17.0113 81.2224C17.2817 80.9624 17.5258 80.6766 17.7401 80.3691C17.9506 80.0668 18.1314 79.745 18.2799 79.4084C18.4272 79.0743 18.5423 78.7272 18.6236 78.3718C18.7047 78.0165 18.7516 77.6546 18.7638 77.2908C18.7758 76.9246 18.7523 76.5583 18.6934 76.197C18.6332 75.8298 18.5367 75.4696 18.4051 75.1219C18.2692 74.7637 18.0973 74.4203 17.8919 74.097C17.6866 73.7736 17.449 73.4719 17.1826 73.1966C16.9238 72.9296 16.639 72.689 16.3322 72.4784C16.0303 72.2714 15.7088 72.0942 15.3722 71.9494C15.0379 71.8056 14.6903 71.6941 14.3343 71.6164C13.9781 71.5388 13.615 71.4953 13.25 71.4864C12.8821 71.4777 12.514 71.5045 12.1509 71.5663C11.7814 71.6295 11.4189 71.7289 11.0686 71.863C10.7076 72.0015 10.3612 72.1758 10.0347 72.3832C9.70808 72.5905 9.40296 72.8298 9.12396 73.0976C8.85358 73.3576 8.60945 73.6434 8.39513 73.9509C8.18465 74.2532 8.00386 74.575 7.85528 74.9116C7.708 75.2457 7.59294 75.5928 7.51167 75.9482C7.43057 76.3035 7.38362 76.6655 7.37147 77.0292C7.35941 77.3954 7.383 77.7618 7.4419 78.123C7.50202 78.4903 7.59857 78.8504 7.73014 79.1982C7.86605 79.5564 8.038 79.8998 8.24338 80.2231C8.44863 80.5465 8.68627 80.8481 8.95268 81.1235C9.21144 81.3905 9.49631 81.6311 9.80311 81.8417C10.105 82.0487 10.4265 82.2258 10.7631 82.3707C11.0974 82.5145 11.4449 82.6259 11.801 82.7037C12.1572 82.7813 12.5203 82.8248 12.8853 82.8336C13.2531 82.8424 13.6212 82.8156 13.9844 82.7537C14.3538 82.6906 14.7164 82.5912 15.0667 82.4571ZM16.4571 77.4126C16.782 77.5361 17.0855 77.709 17.3568 77.9252C17.143 77.966 16.9268 78.0139 16.7141 78.0677C16.45 78.1344 16.191 78.2102 15.9442 78.293C15.3187 78.5029 14.7656 78.7591 14.3005 79.0545C13.8288 79.354 13.3542 79.7529 12.8899 80.2401C12.708 80.4309 12.5271 80.6364 12.3518 80.8506C12.2119 81.0219 12.076 81.1984 11.9478 81.3753C11.8658 81.0369 11.8371 80.6875 11.8626 80.3396C11.8876 79.9953 11.9651 79.6564 12.0925 79.3346C12.2208 79.01 12.399 78.7069 12.6206 78.4364C12.8503 78.1562 13.1235 77.9145 13.4297 77.7205C13.7346 77.5265 14.0684 77.3824 14.4184 77.2936C14.7563 77.2081 15.1052 77.1753 15.4525 77.1965C15.7968 77.2172 16.1355 77.2901 16.4571 77.4126Z" fill="#D4D4D4"/>
<defs>
<clipPath id="clip0_2351_3400">
<rect width="61.7429" height="60.4404" fill="white" transform="translate(0 11.4629)"/>
</clipPath>
</defs>
</svg>
