<svg width="154" height="251" viewBox="0 0 154 251" fill="none" xmlns="http://www.w3.org/2000/svg">
<g clip-path="url(#clip0_1662_9075)">
<path d="M93.0816 59.5H53.5734C52.6731 59.5011 51.81 59.8603 51.1734 60.4987C50.5367 61.1371 50.1786 62.0027 50.1775 62.9056V150.963L49.7247 151.101L40.0327 154.078C39.5734 154.218 39.0773 154.17 38.6532 153.944C38.2292 153.718 37.9119 153.333 37.7711 152.872L8.94182 58.4352C8.80152 57.9746 8.84934 57.4769 9.07477 57.0516C9.30019 56.6263 9.68477 56.3082 10.144 56.1671L25.0793 51.5809L68.3775 38.29L83.3127 33.7038C83.54 33.6336 83.7788 33.6091 84.0156 33.6316C84.2523 33.6542 84.4823 33.7233 84.6924 33.8351C84.9025 33.9468 85.0885 34.099 85.2399 34.283C85.3912 34.467 85.5049 34.679 85.5744 34.9071L92.9436 59.0459L93.0816 59.5Z" fill="#F2F2F2"/>
<path d="M101.703 59.0459L92.8214 29.9531C92.6736 29.4683 92.432 29.0176 92.1105 28.6265C91.7889 28.2354 91.3937 27.9117 90.9473 27.6739C90.501 27.436 90.0123 27.2887 89.5091 27.2404C89.006 27.192 88.4983 27.2436 88.015 27.3921L67.0168 33.8377L23.7211 47.1309L2.72288 53.5788C1.74742 53.8792 0.930647 54.5555 0.451852 55.4591C-0.0269424 56.3628 -0.128645 57.4201 0.169072 58.3989L30.5242 157.826C30.766 158.616 31.254 159.308 31.9166 159.8C32.5791 160.291 33.3813 160.557 34.2054 160.558C34.5869 160.558 34.9662 160.5 35.3305 160.387L49.7248 155.969L50.1776 155.828V155.354L49.7248 155.492L35.197 159.954C34.336 160.217 33.406 160.127 32.6111 159.703C31.8161 159.28 31.2212 158.558 30.9566 157.695L0.603844 58.2649C0.472781 57.8374 0.427103 57.3881 0.469422 56.9429C0.511741 56.4976 0.641223 56.0651 0.850462 55.6701C1.0597 55.2751 1.34459 54.9253 1.6888 54.6409C2.03301 54.3565 2.42979 54.1429 2.85641 54.0125L23.8546 47.5646L67.1505 34.2737L88.1486 27.8257C88.4722 27.7267 88.8087 27.6762 89.147 27.6759C89.8731 27.6775 90.5795 27.9123 91.163 28.3457C91.7464 28.7792 92.176 29.3887 92.389 30.0848L101.23 59.046L101.37 59.5H101.841L101.703 59.0459Z" fill="#9DA39D"/>
<path d="M27.7743 56.2414C27.3379 56.2411 26.9132 56.1005 26.5623 55.8404C26.2114 55.5802 25.9529 55.2141 25.8247 54.7959L22.9087 45.2439C22.8303 44.9873 22.8031 44.7178 22.8286 44.4507C22.8542 44.1835 22.9319 43.9241 23.0575 43.6871C23.183 43.4501 23.3538 43.2403 23.5603 43.0695C23.7667 42.8987 24.0046 42.7704 24.2605 42.6919L64.0923 30.4627C64.609 30.3046 65.1672 30.3585 65.6443 30.6127C66.1214 30.8668 66.4785 31.3004 66.6371 31.8183L69.5532 41.3704C69.7108 41.8886 69.6569 42.4483 69.4035 42.9267C69.1501 43.4052 68.7178 43.7633 68.2014 43.9225L28.3696 56.1517C28.1767 56.211 27.976 56.2413 27.7743 56.2414V56.2414Z" fill="#16A02C"/>
<path d="M43.0499 37.4274C45.5506 37.4274 47.5778 35.3944 47.5778 32.8866C47.5778 30.3788 45.5506 28.3458 43.0499 28.3458C40.5492 28.3458 38.522 30.3788 38.522 32.8866C38.522 35.3944 40.5492 37.4274 43.0499 37.4274Z" fill="#16A02C"/>
<path d="M43.0498 35.762C44.6333 35.762 45.917 34.4746 45.917 32.8866C45.917 31.2986 44.6333 30.0112 43.0498 30.0112C41.4663 30.0112 40.1826 31.2986 40.1826 32.8866C40.1826 34.4746 41.4663 35.762 43.0498 35.762Z" fill="white"/>
<path d="M141.422 168.003H54.4632C53.8834 168.002 53.3276 167.775 52.9176 167.372C52.5076 166.969 52.277 166.422 52.2764 165.852V63.3974C52.277 62.8273 52.5076 62.2807 52.9176 61.8776C53.3276 61.4745 53.8834 61.2477 54.4632 61.2471H141.422C142.002 61.2477 142.558 61.4745 142.968 61.8776C143.377 62.2807 143.608 62.8273 143.609 63.3974V165.852C143.608 166.422 143.377 166.969 142.967 167.372C142.558 167.775 142.002 168.002 141.422 168.003V168.003Z" fill="#E6E6E6"/>
<path d="M100.998 58.7728H53.3414C52.3211 58.7743 51.343 59.1814 50.6215 59.9049C49.9001 60.6284 49.4941 61.6093 49.4927 62.6325V155.219L49.9455 155.081V62.6325C49.9466 61.7296 50.3047 60.864 50.9413 60.2256C51.5779 59.5872 52.4411 59.228 53.3414 59.2269H101.138L100.998 58.7728ZM142.541 58.7728H53.3414C52.3211 58.7743 51.343 59.1814 50.6215 59.9049C49.9001 60.6284 49.4941 61.6093 49.4927 62.6325V166.617C49.4941 167.64 49.9001 168.621 50.6215 169.344C51.343 170.068 52.3211 170.475 53.3414 170.476H142.541C143.561 170.475 144.54 170.068 145.261 169.344C145.982 168.621 146.388 167.64 146.39 166.617V62.6325C146.388 61.6093 145.982 60.6284 145.261 59.9049C144.54 59.1814 143.561 58.7743 142.541 58.7728V58.7728ZM145.937 166.617C145.936 167.52 145.578 168.385 144.941 169.024C144.305 169.662 143.441 170.021 142.541 170.022H53.3414C52.4411 170.021 51.5779 169.662 50.9413 169.024C50.3047 168.385 49.9466 167.52 49.9455 166.617V62.6325C49.9466 61.7296 50.3047 60.864 50.9413 60.2256C51.5779 59.5872 52.4411 59.228 53.3414 59.2269H142.541C143.441 59.228 144.305 59.5872 144.941 60.2256C145.578 60.864 145.936 61.7296 145.937 62.6325V166.617Z" fill="#9DA39D"/>
<path d="M119.001 69.0357H77.3447C76.8045 69.0351 76.2866 68.8196 75.9046 68.4365C75.5226 68.0535 75.3077 67.5341 75.3071 66.9923V57.0026C75.3077 56.4608 75.5226 55.9415 75.9046 55.5584C76.2866 55.1753 76.8045 54.9598 77.3447 54.9592H119.001C119.542 54.9598 120.06 55.1753 120.442 55.5584C120.824 55.9415 121.038 56.4608 121.039 57.0026V66.9923C121.038 67.5341 120.824 68.0535 120.442 68.4365C120.06 68.8196 119.542 69.0351 119.001 69.0357V69.0357Z" fill="#16A02C"/>
<path d="M98.1734 55.6404C100.674 55.6404 102.701 53.6074 102.701 51.0996C102.701 48.5918 100.674 46.5588 98.1734 46.5588C95.6727 46.5588 93.6455 48.5918 93.6455 51.0996C93.6455 53.6074 95.6727 55.6404 98.1734 55.6404Z" fill="#16A02C"/>
<path d="M98.1734 53.8654C99.6966 53.8654 100.931 52.6271 100.931 51.0996C100.931 49.5721 99.6966 48.3339 98.1734 48.3339C96.6503 48.3339 95.4155 49.5721 95.4155 51.0996C95.4155 52.6271 96.6503 53.8654 98.1734 53.8654Z" fill="white"/>
</g>
<path fill-rule="evenodd" clip-rule="evenodd" d="M112.849 42.929C113.904 43.8215 115.046 44.6067 116.257 45.2727C117.468 45.9393 118.742 46.4834 120.061 46.8968C121.34 47.2965 122.655 47.5697 123.987 47.7123C125.296 47.8516 126.614 47.8646 127.924 47.751C129.224 47.6379 130.509 47.4014 131.762 47.0447C133.015 46.6878 134.229 46.2124 135.389 45.6249C136.557 45.0329 137.664 44.3291 138.694 43.5234C139.741 42.7036 140.703 41.7818 141.566 40.7716C142.455 39.7299 143.234 38.6008 143.894 37.4015C144.554 36.2025 145.09 34.9394 145.494 33.6314C145.886 32.3617 146.15 31.0557 146.282 29.7325C146.411 28.4311 146.413 27.1194 146.288 25.8159C146.163 24.5215 145.915 23.2412 145.546 21.9923C145.176 20.743 144.688 19.5308 144.088 18.3724C143.483 17.2052 142.766 16.0982 141.948 15.0671C141.115 14.0185 140.18 13.0539 139.158 12.1871C138.103 11.2946 136.961 10.5095 135.75 9.84345C134.539 9.17679 133.265 8.63263 131.946 8.21922C130.667 7.81943 129.352 7.54628 128.02 7.40372C126.711 7.2644 125.392 7.25136 124.082 7.36487C122.783 7.47806 121.498 7.71462 120.245 8.07125C118.992 8.42821 117.778 8.90357 116.618 9.49099C115.45 10.0831 114.343 10.7869 113.313 11.5927C112.266 12.4125 111.304 13.3343 110.441 14.3445C109.552 15.3862 108.772 16.5153 108.113 17.7146C107.453 18.9136 106.917 20.1768 106.512 21.4848C106.121 22.7545 105.857 24.0605 105.725 25.3837C105.596 26.6851 105.594 27.9968 105.719 29.3003C105.844 30.5946 106.092 31.875 106.461 33.1238C106.83 34.3732 107.318 35.5853 107.918 36.7438C108.524 37.911 109.24 39.0179 110.059 40.0491C110.892 41.0976 111.827 42.0623 112.849 42.929ZM131.04 38.6088C131.212 39.8389 131.192 41.087 130.981 42.3086C130.486 41.709 129.964 41.1143 129.43 40.5405C128.767 39.8279 128.084 39.1471 127.4 38.5165C125.667 36.918 123.913 35.6264 122.188 34.6773C120.439 33.7148 118.373 32.9142 116.049 32.2979C115.138 32.0563 114.183 31.8428 113.211 31.6622C112.434 31.5186 111.647 31.3964 110.873 31.299C111.792 30.4603 112.837 29.7695 113.97 29.2512C115.092 28.7371 116.287 28.3972 117.513 28.243C118.751 28.0867 120.007 28.1236 121.235 28.3524C122.508 28.5901 123.735 29.0301 124.869 29.6557C126.001 30.2769 127.026 31.0747 127.906 32.0183C128.755 32.9299 129.458 33.9663 129.989 35.0906C130.516 36.2046 130.87 37.3909 131.04 38.6088Z" fill="#D5D4D4"/>
<path fill-rule="evenodd" clip-rule="evenodd" d="M35.7793 195.812C36.6366 195.483 37.4591 195.069 38.2344 194.577C39.0101 194.085 39.7346 193.516 40.3971 192.88C41.0392 192.263 41.6189 191.584 42.1279 190.854C42.6277 190.136 43.057 189.372 43.4098 188.572C43.7596 187.779 44.0329 186.955 44.2259 186.111C44.4185 185.267 44.53 184.408 44.5588 183.544C44.5874 182.674 44.5314 181.804 44.3916 180.946C44.2488 180.074 44.0195 179.219 43.7071 178.393C43.3844 177.543 42.976 176.727 42.4883 175.959C42.0009 175.191 41.4366 174.475 40.804 173.821C40.1895 173.187 39.513 172.616 38.7844 172.116C38.0676 171.624 37.3041 171.203 36.5048 170.859C35.7109 170.518 34.8855 170.253 34.0401 170.069C33.1941 169.884 32.3319 169.781 31.4651 169.76C30.5916 169.739 29.7175 169.803 28.855 169.95C27.9777 170.1 27.1168 170.336 26.2849 170.654C25.4276 170.983 24.6051 171.397 23.8298 171.89C23.0541 172.382 22.3296 172.95 21.667 173.586C21.0249 174.204 20.4452 174.882 19.9362 175.612C19.4364 176.33 19.0071 177.094 18.6543 177.894C18.3045 178.687 18.0313 179.512 17.8383 180.356C17.6457 181.199 17.5342 182.059 17.5053 182.922C17.4767 183.792 17.5327 184.662 17.6726 185.52C17.8153 186.392 18.0446 187.247 18.3571 188.073C18.6798 188.924 19.0882 189.739 19.5759 190.507C20.0633 191.275 20.6276 191.991 21.2603 192.645C21.8747 193.279 22.5512 193.851 23.2798 194.351C23.9966 194.842 24.7601 195.263 25.5594 195.607C26.3533 195.948 27.1786 196.213 28.0241 196.398C28.8701 196.582 29.7323 196.685 30.5991 196.706C31.4726 196.727 32.3467 196.664 33.2092 196.517C34.0865 196.367 34.9474 196.131 35.7793 195.812ZM39.0808 183.833C39.8524 184.126 40.5731 184.536 41.2174 185.05C40.7096 185.147 40.1963 185.261 39.6912 185.388C39.064 185.547 38.449 185.727 37.8629 185.923C36.3774 186.422 35.0641 187.03 33.9596 187.732C32.8393 188.443 31.7123 189.39 30.6098 190.547C30.1779 191 29.7481 191.488 29.332 191.997C28.9998 192.404 28.6769 192.823 28.3725 193.243C28.1779 192.439 28.1096 191.61 28.1702 190.783C28.2295 189.966 28.4136 189.161 28.7162 188.397C29.0209 187.626 29.444 186.906 29.9703 186.264C30.5157 185.599 31.1644 185.024 31.8917 184.564C32.6156 184.103 33.4083 183.761 34.2394 183.55C35.042 183.347 35.8705 183.269 36.6953 183.319C37.5128 183.369 38.3172 183.542 39.0808 183.833Z" fill="#D4D4D4"/>
<path d="M16.8142 247.851V237.051H18.4042L23.7217 245.076V237.051H25.3117V247.851H23.7217L18.4042 239.818V247.851H16.8142ZM30.9225 248.076C30.1125 248.076 29.41 247.893 28.815 247.528C28.22 247.163 27.76 246.661 27.435 246.021C27.115 245.376 26.955 244.633 26.955 243.793C26.955 242.948 27.12 242.206 27.45 241.566C27.78 240.921 28.2425 240.421 28.8375 240.066C29.4325 239.706 30.1275 239.526 30.9225 239.526C31.7325 239.526 32.435 239.708 33.03 240.073C33.625 240.438 34.085 240.941 34.41 241.581C34.735 242.221 34.8975 242.958 34.8975 243.793C34.8975 244.638 34.7325 245.383 34.4025 246.028C34.0775 246.668 33.6175 247.171 33.0225 247.536C32.4275 247.896 31.7275 248.076 30.9225 248.076ZM30.9225 246.598C31.6975 246.598 32.275 246.338 32.655 245.818C33.04 245.293 33.2325 244.618 33.2325 243.793C33.2325 242.948 33.0375 242.273 32.6475 241.768C32.2625 241.258 31.6875 241.003 30.9225 241.003C30.3975 241.003 29.965 241.123 29.625 241.363C29.285 241.598 29.0325 241.926 28.8675 242.346C28.7025 242.761 28.62 243.243 28.62 243.793C28.62 244.643 28.815 245.323 29.205 245.833C29.595 246.343 30.1675 246.598 30.9225 246.598ZM39.5485 247.851V237.051H42.931C43.031 237.051 43.216 237.053 43.486 237.058C43.761 237.063 44.0235 237.083 44.2735 237.118C45.1185 237.223 45.8285 237.526 46.4035 238.026C46.9835 238.526 47.421 239.161 47.716 239.931C48.011 240.696 48.1585 241.536 48.1585 242.451C48.1585 243.371 48.011 244.216 47.716 244.986C47.421 245.751 46.9835 246.383 46.4035 246.883C45.8285 247.378 45.1185 247.678 44.2735 247.783C44.0235 247.818 43.761 247.838 43.486 247.843C43.216 247.848 43.031 247.851 42.931 247.851H39.5485ZM41.1535 246.358H42.931C43.101 246.358 43.3035 246.353 43.5385 246.343C43.7735 246.333 43.981 246.313 44.161 246.283C44.711 246.178 45.156 245.941 45.496 245.571C45.841 245.196 46.0935 244.736 46.2535 244.191C46.4135 243.646 46.4935 243.066 46.4935 242.451C46.4935 241.816 46.411 241.228 46.246 240.688C46.081 240.143 45.826 239.688 45.481 239.323C45.141 238.953 44.701 238.718 44.161 238.618C43.981 238.583 43.771 238.563 43.531 238.558C43.296 238.548 43.096 238.543 42.931 238.543H41.1535V246.358ZM52.1925 248.076C51.5925 248.076 51.09 247.966 50.685 247.746C50.28 247.521 49.9725 247.226 49.7625 246.861C49.5575 246.491 49.455 246.086 49.455 245.646C49.455 245.236 49.5275 244.876 49.6725 244.566C49.8175 244.256 50.0325 243.993 50.3175 243.778C50.6025 243.558 50.9525 243.381 51.3675 243.246C51.7275 243.141 52.135 243.048 52.59 242.968C53.045 242.888 53.5225 242.813 54.0225 242.743C54.5275 242.673 55.0275 242.603 55.5225 242.533L54.9525 242.848C54.9625 242.213 54.8275 241.743 54.5475 241.438C54.2725 241.128 53.7975 240.973 53.1225 240.973C52.6975 240.973 52.3075 241.073 51.9525 241.273C51.5975 241.468 51.35 241.793 51.21 242.248L49.7475 241.798C49.9475 241.103 50.3275 240.551 50.8875 240.141C51.4525 239.731 52.2025 239.526 53.1375 239.526C53.8625 239.526 54.4925 239.651 55.0275 239.901C55.5675 240.146 55.9625 240.536 56.2125 241.071C56.3425 241.336 56.4225 241.616 56.4525 241.911C56.4825 242.206 56.4975 242.523 56.4975 242.863V247.851H55.11V245.998L55.38 246.238C55.045 246.858 54.6175 247.321 54.0975 247.626C53.5825 247.926 52.9475 248.076 52.1925 248.076ZM52.47 246.793C52.915 246.793 53.2975 246.716 53.6175 246.561C53.9375 246.401 54.195 246.198 54.39 245.953C54.585 245.708 54.7125 245.453 54.7725 245.188C54.8575 244.948 54.905 244.678 54.915 244.378C54.93 244.078 54.9375 243.838 54.9375 243.658L55.4475 243.846C54.9525 243.921 54.5025 243.988 54.0975 244.048C53.6925 244.108 53.325 244.168 52.995 244.228C52.67 244.283 52.38 244.351 52.125 244.431C51.91 244.506 51.7175 244.596 51.5475 244.701C51.3825 244.806 51.25 244.933 51.15 245.083C51.055 245.233 51.0075 245.416 51.0075 245.631C51.0075 245.841 51.06 246.036 51.165 246.216C51.27 246.391 51.43 246.531 51.645 246.636C51.86 246.741 52.135 246.793 52.47 246.793ZM63.08 247.851C62.57 247.951 62.07 247.993 61.58 247.978C61.09 247.963 60.6525 247.868 60.2675 247.693C59.8825 247.518 59.5925 247.243 59.3975 246.868C59.2225 246.533 59.1275 246.193 59.1125 245.848C59.1025 245.498 59.0975 245.103 59.0975 244.663V237.501H60.6725V244.588C60.6725 244.913 60.675 245.196 60.68 245.436C60.69 245.676 60.7425 245.878 60.8375 246.043C61.0175 246.353 61.3025 246.531 61.6925 246.576C62.0875 246.616 62.55 246.598 63.08 246.523V247.851ZM57.545 241.011V239.751H63.08V241.011H57.545ZM67.0753 248.076C66.4753 248.076 65.9728 247.966 65.5678 247.746C65.1628 247.521 64.8553 247.226 64.6453 246.861C64.4403 246.491 64.3378 246.086 64.3378 245.646C64.3378 245.236 64.4103 244.876 64.5553 244.566C64.7003 244.256 64.9153 243.993 65.2003 243.778C65.4853 243.558 65.8353 243.381 66.2503 243.246C66.6103 243.141 67.0178 243.048 67.4728 242.968C67.9278 242.888 68.4053 242.813 68.9053 242.743C69.4103 242.673 69.9103 242.603 70.4053 242.533L69.8353 242.848C69.8453 242.213 69.7103 241.743 69.4303 241.438C69.1553 241.128 68.6803 240.973 68.0053 240.973C67.5803 240.973 67.1903 241.073 66.8353 241.273C66.4803 241.468 66.2328 241.793 66.0928 242.248L64.6303 241.798C64.8303 241.103 65.2103 240.551 65.7703 240.141C66.3353 239.731 67.0853 239.526 68.0203 239.526C68.7453 239.526 69.3753 239.651 69.9103 239.901C70.4503 240.146 70.8453 240.536 71.0953 241.071C71.2253 241.336 71.3053 241.616 71.3353 241.911C71.3653 242.206 71.3803 242.523 71.3803 242.863V247.851H69.9928V245.998L70.2628 246.238C69.9278 246.858 69.5003 247.321 68.9803 247.626C68.4653 247.926 67.8303 248.076 67.0753 248.076ZM67.3528 246.793C67.7978 246.793 68.1803 246.716 68.5003 246.561C68.8203 246.401 69.0778 246.198 69.2728 245.953C69.4678 245.708 69.5953 245.453 69.6553 245.188C69.7403 244.948 69.7878 244.678 69.7978 244.378C69.8128 244.078 69.8203 243.838 69.8203 243.658L70.3303 243.846C69.8353 243.921 69.3853 243.988 68.9803 244.048C68.5753 244.108 68.2078 244.168 67.8778 244.228C67.5528 244.283 67.2628 244.351 67.0078 244.431C66.7928 244.506 66.6003 244.596 66.4303 244.701C66.2653 244.806 66.1328 244.933 66.0328 245.083C65.9378 245.233 65.8903 245.416 65.8903 245.631C65.8903 245.841 65.9428 246.036 66.0478 246.216C66.1528 246.391 66.3128 246.531 66.5278 246.636C66.7428 246.741 67.0178 246.793 67.3528 246.793ZM75.5808 247.851L79.0908 237.051H81.3483L84.8583 247.851H83.2308L79.9983 237.996H80.4033L77.2083 247.851H75.5808ZM77.4033 245.413V243.943H83.0433V245.413H77.4033ZM87.7932 247.851L84.8532 239.751H86.4357L88.5882 245.886L90.7407 239.751H92.3232L89.3832 247.851H87.7932ZM95.5079 248.076C94.9079 248.076 94.4054 247.966 94.0004 247.746C93.5954 247.521 93.2879 247.226 93.0779 246.861C92.8729 246.491 92.7704 246.086 92.7704 245.646C92.7704 245.236 92.8429 244.876 92.9879 244.566C93.1329 244.256 93.3479 243.993 93.6329 243.778C93.9179 243.558 94.2679 243.381 94.6829 243.246C95.0429 243.141 95.4504 243.048 95.9054 242.968C96.3604 242.888 96.8379 242.813 97.3379 242.743C97.8429 242.673 98.3429 242.603 98.8379 242.533L98.2679 242.848C98.2779 242.213 98.1429 241.743 97.8629 241.438C97.5879 241.128 97.1129 240.973 96.4379 240.973C96.0129 240.973 95.6229 241.073 95.2679 241.273C94.9129 241.468 94.6654 241.793 94.5254 242.248L93.0629 241.798C93.2629 241.103 93.6429 240.551 94.2029 240.141C94.7679 239.731 95.5179 239.526 96.4529 239.526C97.1779 239.526 97.8079 239.651 98.3429 239.901C98.8829 240.146 99.2779 240.536 99.5279 241.071C99.6579 241.336 99.7379 241.616 99.7679 241.911C99.7979 242.206 99.8129 242.523 99.8129 242.863V247.851H98.4254V245.998L98.6954 246.238C98.3604 246.858 97.9329 247.321 97.4129 247.626C96.8979 247.926 96.2629 248.076 95.5079 248.076ZM95.7854 246.793C96.2304 246.793 96.6129 246.716 96.9329 246.561C97.2529 246.401 97.5104 246.198 97.7054 245.953C97.9004 245.708 98.0279 245.453 98.0879 245.188C98.1729 244.948 98.2204 244.678 98.2304 244.378C98.2454 244.078 98.2529 243.838 98.2529 243.658L98.7629 243.846C98.2679 243.921 97.8179 243.988 97.4129 244.048C97.0079 244.108 96.6404 244.168 96.3104 244.228C95.9854 244.283 95.6954 244.351 95.4404 244.431C95.2254 244.506 95.0329 244.596 94.8629 244.701C94.6979 244.806 94.5654 244.933 94.4654 245.083C94.3704 245.233 94.3229 245.416 94.3229 245.631C94.3229 245.841 94.3754 246.036 94.4804 246.216C94.5854 246.391 94.7454 246.531 94.9604 246.636C95.1754 246.741 95.4504 246.793 95.7854 246.793ZM101.91 238.423V236.901H103.478V238.423H101.91ZM101.91 247.851V239.751H103.478V247.851H101.91ZM105.88 247.851V236.826H107.448V247.851H105.88ZM111.987 248.076C111.387 248.076 110.885 247.966 110.48 247.746C110.075 247.521 109.767 247.226 109.557 246.861C109.352 246.491 109.25 246.086 109.25 245.646C109.25 245.236 109.322 244.876 109.467 244.566C109.612 244.256 109.827 243.993 110.112 243.778C110.397 243.558 110.747 243.381 111.162 243.246C111.522 243.141 111.93 243.048 112.385 242.968C112.84 242.888 113.317 242.813 113.817 242.743C114.322 242.673 114.822 242.603 115.317 242.533L114.747 242.848C114.757 242.213 114.622 241.743 114.342 241.438C114.067 241.128 113.592 240.973 112.917 240.973C112.492 240.973 112.102 241.073 111.747 241.273C111.392 241.468 111.145 241.793 111.005 242.248L109.542 241.798C109.742 241.103 110.122 240.551 110.682 240.141C111.247 239.731 111.997 239.526 112.932 239.526C113.657 239.526 114.287 239.651 114.822 239.901C115.362 240.146 115.757 240.536 116.007 241.071C116.137 241.336 116.217 241.616 116.247 241.911C116.277 242.206 116.292 242.523 116.292 242.863V247.851H114.905V245.998L115.175 246.238C114.84 246.858 114.412 247.321 113.892 247.626C113.377 247.926 112.742 248.076 111.987 248.076ZM112.265 246.793C112.71 246.793 113.092 246.716 113.412 246.561C113.732 246.401 113.99 246.198 114.185 245.953C114.38 245.708 114.507 245.453 114.567 245.188C114.652 244.948 114.7 244.678 114.71 244.378C114.725 244.078 114.732 243.838 114.732 243.658L115.242 243.846C114.747 243.921 114.297 243.988 113.892 244.048C113.487 244.108 113.12 244.168 112.79 244.228C112.465 244.283 112.175 244.351 111.92 244.431C111.705 244.506 111.512 244.596 111.342 244.701C111.177 244.806 111.045 244.933 110.945 245.083C110.85 245.233 110.802 245.416 110.802 245.631C110.802 245.841 110.855 246.036 110.96 246.216C111.065 246.391 111.225 246.531 111.44 246.636C111.655 246.741 111.93 246.793 112.265 246.793ZM122.042 248.076C121.267 248.076 120.617 247.888 120.092 247.513C119.567 247.133 119.17 246.621 118.9 245.976C118.63 245.331 118.495 244.603 118.495 243.793C118.495 242.983 118.627 242.256 118.892 241.611C119.162 240.966 119.557 240.458 120.077 240.088C120.602 239.713 121.247 239.526 122.012 239.526C122.772 239.526 123.427 239.713 123.977 240.088C124.532 240.458 124.96 240.966 125.26 241.611C125.56 242.251 125.71 242.978 125.71 243.793C125.71 244.603 125.56 245.333 125.26 245.983C124.965 246.628 124.542 247.138 123.992 247.513C123.447 247.888 122.797 248.076 122.042 248.076ZM118.232 247.851V237.051H119.807V242.023H119.627V247.851H118.232ZM121.825 246.658C122.325 246.658 122.737 246.531 123.062 246.276C123.392 246.021 123.637 245.678 123.797 245.248C123.962 244.813 124.045 244.328 124.045 243.793C124.045 243.263 123.962 242.783 123.797 242.353C123.637 241.923 123.39 241.581 123.055 241.326C122.72 241.071 122.292 240.943 121.772 240.943C121.282 240.943 120.877 241.063 120.557 241.303C120.242 241.543 120.007 241.878 119.852 242.308C119.702 242.738 119.627 243.233 119.627 243.793C119.627 244.353 119.702 244.848 119.852 245.278C120.002 245.708 120.24 246.046 120.565 246.291C120.89 246.536 121.31 246.658 121.825 246.658ZM127.516 247.851V236.826H129.083V247.851H127.516ZM134.928 248.076C134.123 248.076 133.416 247.901 132.806 247.551C132.201 247.196 131.728 246.703 131.388 246.073C131.053 245.438 130.886 244.703 130.886 243.868C130.886 242.983 131.051 242.216 131.381 241.566C131.716 240.916 132.181 240.413 132.776 240.058C133.371 239.703 134.063 239.526 134.853 239.526C135.678 239.526 136.381 239.718 136.961 240.103C137.541 240.483 137.973 241.026 138.258 241.731C138.548 242.436 138.663 243.273 138.603 244.243H137.036V243.673C137.026 242.733 136.846 242.038 136.496 241.588C136.151 241.138 135.623 240.913 134.913 240.913C134.128 240.913 133.538 241.161 133.143 241.656C132.748 242.151 132.551 242.866 132.551 243.801C132.551 244.691 132.748 245.381 133.143 245.871C133.538 246.356 134.108 246.598 134.853 246.598C135.343 246.598 135.766 246.488 136.121 246.268C136.481 246.043 136.761 245.723 136.961 245.308L138.498 245.796C138.183 246.521 137.706 247.083 137.066 247.483C136.426 247.878 135.713 248.076 134.928 248.076ZM132.041 244.243V243.021H137.823V244.243H132.041Z" fill="black"/>
<defs>
<clipPath id="clip0_1662_9075">
<rect width="146.622" height="143.529" fill="white" transform="translate(0 27.2209)"/>
</clipPath>
</defs>
</svg>
