<svg width="62" height="17" viewBox="0 0 62 17" fill="none" xmlns="http://www.w3.org/2000/svg">
<g clip-path="url(#clip0_50_3484)">
<path d="M37.0403 6.97099L36.1976 7.67115L36.2663 7.3361L35.9355 7.30174L36.8316 6.64453L37.0403 6.97099Z" fill="#1C1C1C" style="mix-blend-mode:multiply"/>
<path d="M40.3806 5.17828C40.3806 5.17828 40.1942 5.33034 39.7965 4.65251C39.3987 3.97469 37.1779 1.84671 35.1324 1.58984L34.2441 4.991C34.2441 4.991 36.2433 5.62243 36.9675 7.23581C37.0014 7.27517 37.0459 7.30383 37.0958 7.31832C37.1457 7.33281 37.1987 7.33249 37.2484 7.31742L40.3806 5.17828Z" fill="#1C1C1C"/>
<path d="M40.415 4.93395C40.415 4.93395 40.9064 2.63157 38.8025 0.515625L37.6797 2.29223C37.6797 2.29223 39.6436 3.3326 40.4039 4.96917" fill="#1C1C1C"/>
<path d="M37.25 7.31932L40.3796 5.1819C40.3633 5.19221 40.2568 5.24461 40.054 5.01953L36.9141 7.12689C36.9321 7.16383 36.9501 7.19991 36.9673 7.23857C37.0014 7.2781 37.0464 7.3068 37.0966 7.32115C37.1468 7.3355 37.2001 7.33486 37.25 7.31932Z" fill="#1C1C1C" style="mix-blend-mode:multiply"/>
<path d="M40.5008 5.128C40.4951 5.12692 40.4899 5.12389 40.4862 5.11942C40.4825 5.11495 40.4805 5.10932 40.4805 5.10351C40.4805 5.09771 40.4825 5.09208 40.4862 5.08761C40.4899 5.08314 40.4951 5.0801 40.5008 5.07903C40.5111 5.07903 41.4939 4.98711 41.9346 4.11856C41.9361 4.11573 41.9381 4.11321 41.9405 4.11115C41.9429 4.1091 41.9457 4.10754 41.9488 4.10658C41.9518 4.10562 41.955 4.10528 41.9582 4.10557C41.9613 4.10585 41.9644 4.10677 41.9672 4.10825C41.9702 4.10963 41.9728 4.11157 41.9749 4.11397C41.977 4.11637 41.9787 4.11917 41.9797 4.12221C41.9808 4.12526 41.9812 4.12848 41.981 4.13169C41.9807 4.1349 41.9799 4.13803 41.9784 4.1409C41.5248 5.03435 40.518 5.12714 40.5051 5.128H40.5008Z" fill="#1C1C1C" style="mix-blend-mode:multiply"/>
<path d="M40.4811 4.97087C40.4766 4.97092 40.4721 4.96965 40.4683 4.96721C40.4645 4.96477 40.4615 4.96126 40.4596 4.95712C40.4582 4.95425 40.4573 4.95112 40.4571 4.94791C40.4569 4.9447 40.4573 4.94148 40.4583 4.93844C40.4594 4.93539 40.461 4.93259 40.4632 4.93019C40.4653 4.92779 40.4679 4.92585 40.4708 4.92447C40.7037 4.80193 40.9046 4.6265 41.0574 4.41225C41.2101 4.198 41.3105 3.95091 41.3505 3.69082C41.3509 3.68765 41.352 3.68459 41.3536 3.68183C41.3552 3.67907 41.3574 3.67665 41.3599 3.67473C41.3625 3.67281 41.3654 3.67142 41.3685 3.67064C41.3716 3.66986 41.3748 3.66972 41.378 3.6702C41.3813 3.67051 41.3844 3.67148 41.3873 3.67306C41.3901 3.67463 41.3926 3.67676 41.3947 3.67933C41.3967 3.68191 41.3981 3.68486 41.399 3.68801C41.3998 3.69117 41.4 3.69446 41.3995 3.69769C41.3576 3.96559 41.2537 4.22 41.0961 4.44061C40.9384 4.66122 40.7313 4.84192 40.4914 4.96829C40.4883 4.97 40.4847 4.97088 40.4811 4.97087Z" fill="#1C1C1C" style="mix-blend-mode:multiply"/>
<path d="M42.0479 4.09732C42.0481 4.11214 42.0438 4.12667 42.0357 4.13907C42.0276 4.15148 42.016 4.16119 42.0024 4.16698C41.9887 4.17277 41.9737 4.17437 41.9591 4.17159C41.9446 4.1688 41.9312 4.16175 41.9206 4.15133C41.9101 4.14092 41.9029 4.1276 41.8999 4.11308C41.897 4.09856 41.8984 4.08349 41.904 4.06978C41.9097 4.05607 41.9193 4.04435 41.9316 4.0361C41.9439 4.02784 41.9584 4.02344 41.9732 4.02344C41.9928 4.02344 42.0117 4.03119 42.0257 4.04502C42.0397 4.05886 42.0477 4.07765 42.0479 4.09732Z" fill="#1C1C1C"/>
<path d="M41.4464 3.6724C41.4464 3.68718 41.442 3.70163 41.4338 3.71392C41.4255 3.72621 41.4139 3.73579 41.4002 3.74145C41.3866 3.74711 41.3715 3.74858 41.357 3.7457C41.3425 3.74282 41.3292 3.7357 41.3188 3.72525C41.3083 3.71479 41.3012 3.70147 41.2983 3.68698C41.2954 3.67248 41.2969 3.65745 41.3026 3.64379C41.3082 3.63014 41.3178 3.61846 41.3301 3.61025C41.3424 3.60204 41.3568 3.59766 41.3716 3.59766C41.3914 3.59766 41.4104 3.60553 41.4245 3.61955C41.4385 3.63356 41.4464 3.65257 41.4464 3.6724Z" fill="#1C1C1C"/>
</g>
<path d="M43.0455 12.9654H40.9665C40.6641 12.9654 40.3932 12.9055 40.1538 12.7858C39.9207 12.6598 39.7254 12.4992 39.5679 12.3039C39.4104 12.1086 39.2907 11.8881 39.2088 11.6424C39.1269 11.3904 39.0859 11.1384 39.0859 10.8864V9.56338C39.0859 9.31138 39.1269 9.06253 39.2088 8.81683C39.2907 8.56483 39.4104 8.34118 39.5679 8.14588C39.7254 7.95058 39.9207 7.79308 40.1538 7.67338C40.3932 7.54738 40.6641 7.48438 40.9665 7.48438H43.896L43.0549 8.72233H42.2139C42.0501 8.72233 41.8894 8.73493 41.7319 8.76013C41.5744 8.77903 41.4327 8.81998 41.3067 8.88298C41.1807 8.94598 41.0767 9.03733 40.9948 9.15703C40.9192 9.27043 40.8814 9.42163 40.8814 9.61063V10.8391C40.8814 11.0281 40.9192 11.1825 40.9948 11.3022C41.0767 11.4156 41.1807 11.5038 41.3067 11.5668C41.4327 11.6298 41.5744 11.6739 41.7319 11.6991C41.8894 11.718 42.0501 11.7274 42.2139 11.7274H43.896L43.0455 12.9654Z" fill="#1C1C1C"/>
<path d="M44.337 12.9654H47.4082L48.2776 11.7274H46.1419V7.48438H44.337V12.9654Z" fill="#1C1C1C"/>
<path d="M48.7205 7.48438V12.9654H50.5255V7.48438H48.7205Z" fill="#1C1C1C"/>
<path d="M55.0887 12.9654H53.0097C52.7073 12.9654 52.4364 12.9055 52.197 12.7858C51.9639 12.6598 51.7686 12.4992 51.6111 12.3039C51.4536 12.1086 51.3339 11.8881 51.252 11.6424C51.1701 11.3904 51.1292 11.1384 51.1292 10.8864V9.56338C51.1292 9.31138 51.1701 9.06253 51.252 8.81683C51.3339 8.56483 51.4536 8.34118 51.6111 8.14588C51.7686 7.95058 51.9639 7.79308 52.197 7.67338C52.4364 7.54738 52.7073 7.48438 53.0097 7.48438H55.9393L55.0982 8.72233H54.2571C54.0933 8.72233 53.9327 8.73493 53.7752 8.76013C53.6177 8.77903 53.4759 8.81998 53.3499 8.88298C53.2239 8.94598 53.12 9.03733 53.0381 9.15703C52.9625 9.27043 52.9247 9.42163 52.9247 9.61063V10.8391C52.9247 11.0281 52.9625 11.1825 53.0381 11.3022C53.12 11.4156 53.2239 11.5038 53.3499 11.5668C53.4759 11.6298 53.6177 11.6739 53.7752 11.6991C53.9327 11.718 54.0933 11.7274 54.2571 11.7274H55.9393L55.0887 12.9654Z" fill="#1C1C1C"/>
<path d="M59.1963 12.9654H61.0013L59.6499 10.2249L61.0013 7.48438H59.1963L58.1946 9.52558L58.1852 9.51613V7.48438H56.3802V12.9654H58.1852V10.9336H58.1946L59.1963 12.9654Z" fill="#1C1C1C"/>
<path d="M44.2875 16.1374C44.2126 16.1374 44.138 16.1299 44.0646 16.1149C43.9935 16.1003 43.9239 16.0787 43.857 16.0505C43.7913 16.0226 43.7284 15.9885 43.6692 15.9485C43.6105 15.9088 43.5557 15.8636 43.5055 15.8135C43.4554 15.7634 43.4102 15.7086 43.3705 15.6498C43.3305 15.5907 43.2964 15.5278 43.2686 15.462C43.2403 15.3951 43.2187 15.3256 43.2041 15.2544C43.1892 15.1811 43.1816 15.1064 43.1816 15.0316C43.1816 14.9567 43.1892 14.8821 43.2041 14.8087C43.2187 14.7376 43.2403 14.668 43.2685 14.6011C43.2964 14.5354 43.3305 14.4725 43.3705 14.4133C43.4102 14.3546 43.4554 14.2998 43.5055 14.2496C43.5557 14.1995 43.6105 14.1543 43.6692 14.1146C43.7284 14.0746 43.7913 14.0405 43.857 14.0127C43.9239 13.9844 43.9935 13.9628 44.0646 13.9482C44.138 13.9333 44.2126 13.9258 44.2875 13.9258C44.3623 13.9258 44.437 13.9333 44.5104 13.9482C44.5815 13.9628 44.651 13.9844 44.7179 14.0127C44.7837 14.0405 44.8466 14.0747 44.9058 14.1146C44.9645 14.1543 45.0193 14.1995 45.0694 14.2497C45.1195 14.2998 45.1648 14.3546 45.2045 14.4133C45.2444 14.4725 45.2786 14.5354 45.3064 14.6011C45.3347 14.668 45.3563 14.7376 45.3709 14.8087C45.3858 14.8821 45.3933 14.9567 45.3933 15.0316C45.3934 15.1064 45.3858 15.1811 45.3709 15.2544C45.3563 15.3256 45.3347 15.3951 45.3064 15.462C45.2786 15.5278 45.2444 15.5907 45.2045 15.6498C45.1648 15.7086 45.1196 15.7634 45.0695 15.8135C45.0193 15.8636 44.9645 15.9088 44.9058 15.9485C44.8466 15.9885 44.7837 16.0226 44.718 16.0505C44.651 16.0787 44.5815 16.1003 44.5104 16.1149C44.437 16.1299 44.3623 16.1374 44.2875 16.1374ZM43.6656 15.246C43.6875 15.3101 43.7191 15.3704 43.7594 15.4248C43.7992 15.4787 43.847 15.5262 43.9011 15.5657C43.9557 15.6056 44.016 15.6367 44.0801 15.658C44.1465 15.68 44.216 15.6912 44.2859 15.6912C44.3561 15.6912 44.4258 15.68 44.4924 15.6578C44.5566 15.6364 44.6172 15.605 44.6718 15.5649C44.726 15.5252 44.7738 15.4774 44.8136 15.4232C44.8539 15.3685 44.8854 15.3078 44.9071 15.2434C44.8678 15.2592 44.8273 15.2741 44.7867 15.2877C44.7359 15.3046 44.685 15.3196 44.6355 15.332C44.5091 15.3638 44.3902 15.3799 44.282 15.3799C44.1754 15.3799 44.0585 15.3642 43.9345 15.3333C43.8856 15.3211 43.8354 15.3065 43.7854 15.2898C43.7451 15.2764 43.7048 15.2617 43.6656 15.246L43.6656 15.246Z" fill="#1C1C1C"/>
<path d="M48.7074 16.1374C48.6326 16.1374 48.5579 16.1299 48.4845 16.1149C48.4134 16.1003 48.3439 16.0787 48.277 16.0505C48.2112 16.0226 48.1483 15.9885 48.0891 15.9485C48.0304 15.9088 47.9756 15.8636 47.9255 15.8135C47.8754 15.7634 47.8301 15.7086 47.7904 15.6498C47.7505 15.5907 47.7163 15.5278 47.6885 15.462C47.6602 15.3951 47.6386 15.3256 47.624 15.2544C47.6091 15.1811 47.6016 15.1064 47.6016 15.0316C47.6015 14.9567 47.6091 14.8821 47.624 14.8087C47.6386 14.7376 47.6602 14.668 47.6885 14.6011C47.7163 14.5354 47.7505 14.4725 47.7904 14.4133C47.8301 14.3546 47.8753 14.2998 47.9254 14.2496C47.9756 14.1995 48.0304 14.1543 48.0891 14.1146C48.1483 14.0746 48.2112 14.0405 48.2769 14.0127C48.3439 13.9844 48.4134 13.9628 48.4845 13.9482C48.5579 13.9333 48.6326 13.9258 48.7074 13.9258C48.7823 13.9258 48.8569 13.9333 48.9303 13.9482C49.0014 13.9628 49.071 13.9844 49.1379 14.0127C49.2036 14.0405 49.2665 14.0747 49.3257 14.1146C49.3844 14.1543 49.4392 14.1995 49.4894 14.2497C49.5395 14.2998 49.5847 14.3546 49.6244 14.4133C49.6644 14.4725 49.6985 14.5354 49.7263 14.6011C49.7546 14.668 49.7762 14.7376 49.7908 14.8087C49.8057 14.8821 49.8133 14.9567 49.8133 15.0316C49.8133 15.1064 49.8057 15.1811 49.7908 15.2544C49.7762 15.3256 49.7546 15.3951 49.7264 15.462C49.6985 15.5278 49.6644 15.5907 49.6244 15.6498C49.5847 15.7086 49.5395 15.7634 49.4894 15.8135C49.4392 15.8636 49.3844 15.9088 49.3257 15.9485C49.2665 15.9885 49.2036 16.0226 49.1379 16.0505C49.071 16.0787 49.0014 16.1003 48.9303 16.1149C48.8569 16.1299 48.7823 16.1374 48.7074 16.1374ZM48.0855 15.246C48.1074 15.3101 48.1391 15.3704 48.1793 15.4248C48.2192 15.4787 48.2669 15.5262 48.321 15.5657C48.3756 15.6056 48.436 15.6367 48.5001 15.658C48.5664 15.68 48.6359 15.6912 48.7058 15.6912C48.776 15.6912 48.8457 15.68 48.9123 15.6578C48.9766 15.6364 49.0371 15.605 49.0917 15.5649C49.1459 15.5252 49.1937 15.4774 49.2335 15.4232C49.2738 15.3685 49.3053 15.3078 49.327 15.2434C49.2878 15.2592 49.2472 15.2741 49.2066 15.2877C49.1558 15.3046 49.1049 15.3196 49.0554 15.332C48.929 15.3638 48.8101 15.3799 48.702 15.3799C48.5953 15.3799 48.4784 15.3642 48.3544 15.3333C48.3055 15.3211 48.2554 15.3065 48.2053 15.2898C48.165 15.2764 48.1247 15.2617 48.0855 15.246L48.0855 15.246Z" fill="#1C1C1C"/>
<path d="M46.138 14.8393C46.1388 14.8373 46.1395 14.8355 46.1401 14.8339C46.1484 14.8128 46.1586 14.7925 46.1707 14.7732C46.1786 14.7606 46.1872 14.7484 46.1966 14.7368V14.7454L46.138 14.8393ZM45.5645 14.7042L45.5645 13.9394H46.1967V14.0722C46.1605 14.0827 46.125 14.0955 46.0904 14.1104C46.035 14.1344 45.9821 14.1636 45.9326 14.1977C45.8832 14.2317 45.8374 14.2703 45.7956 14.3129C45.7536 14.3556 45.7159 14.4021 45.6829 14.4517C45.6495 14.5018 45.6211 14.5549 45.598 14.6102C45.5851 14.641 45.574 14.6724 45.5645 14.7042Z" fill="#1C1C1C"/>
<path d="M46.8347 16.1593L46.8318 14.963C46.8318 14.8824 46.8028 14.8044 46.7499 14.7426C46.697 14.6808 46.6235 14.639 46.5422 14.6247V14.6252C46.5254 14.6227 46.5085 14.6214 46.4915 14.6214C46.3989 14.6214 46.3125 14.6597 46.2483 14.7293C46.2175 14.7627 46.1933 14.8015 46.1769 14.8435C46.1599 14.8869 46.1511 14.933 46.1511 14.9795V15.9579H45.5625V14.9795C45.5625 14.7956 45.6171 14.6156 45.7197 14.4613C45.7527 14.4117 45.7904 14.3652 45.8324 14.3224C45.8742 14.2799 45.9201 14.2413 45.9694 14.2073C46.0189 14.1732 46.0718 14.1439 46.1272 14.12C46.242 14.0704 46.366 14.0449 46.4915 14.045H46.4922C46.5077 14.045 46.524 14.0456 46.5405 14.0469C46.6572 14.0542 46.7715 14.0828 46.8773 14.1312C47.0396 14.2051 47.1769 14.3226 47.2731 14.4699C47.3693 14.6173 47.4204 14.7883 47.4204 14.963L47.4233 16.1593H46.8347Z" fill="#1C1C1C"/>
<path d="M46.8347 16.1593L46.8318 14.963C46.8318 14.8824 46.8028 14.8044 46.7499 14.7426C46.697 14.6808 46.6235 14.639 46.5422 14.6247V14.6252C46.5254 14.6227 46.5085 14.6214 46.4915 14.6214C46.3989 14.6214 46.3125 14.6597 46.2483 14.7293C46.2175 14.7627 46.1933 14.8015 46.1769 14.8435C46.1599 14.8869 46.1511 14.933 46.1511 14.9795V15.9579H45.5625V14.9795C45.5625 14.7956 45.6171 14.6156 45.7197 14.4613C45.7527 14.4117 45.7904 14.3652 45.8324 14.3224C45.8742 14.2799 45.9201 14.2413 45.9694 14.2073C46.0189 14.1732 46.0718 14.1439 46.1272 14.12C46.242 14.0704 46.366 14.0449 46.4915 14.045H46.4922C46.5077 14.045 46.524 14.0456 46.5405 14.0469C46.6572 14.0542 46.7715 14.0828 46.8773 14.1312C47.0396 14.2051 47.1769 14.3226 47.2731 14.4699C47.3693 14.6173 47.4204 14.7883 47.4204 14.963L47.4233 16.1593H46.8347Z" fill="#1C1C1C"/>
<path d="M40.3464 15.5445H39.5035L39.3482 15.9742H39.082L39.7808 14.0527H40.0719L40.7679 15.9742H40.5017L40.3464 15.5445ZM40.2743 15.3393L39.9249 14.3633L39.5756 15.3393H40.2743Z" fill="#1C1C1C"/>
<path d="M41.8127 14.4271C41.9975 14.4271 42.1473 14.4834 42.2619 14.5962C42.3765 14.7071 42.4338 14.8679 42.4338 15.0786V15.9742H42.1842V15.1147C42.1842 14.9631 42.1463 14.8476 42.0706 14.7681C41.9948 14.6868 41.8913 14.6461 41.76 14.6461C41.6269 14.6461 41.5206 14.6877 41.4411 14.7709C41.3635 14.8541 41.3247 14.9751 41.3247 15.1341V15.9742H41.0724V14.4548H41.3247V14.6711C41.3746 14.5934 41.4421 14.5333 41.5271 14.4908C41.614 14.4483 41.7092 14.4271 41.8127 14.4271Z" fill="#1C1C1C"/>
<path d="M51.8136 14.6634C51.8136 14.8242 51.7581 14.9582 51.6472 15.0654C51.5382 15.1708 51.3709 15.2235 51.1453 15.2235H50.7738V16.0303H50.5215V14.0977H51.1453C51.3635 14.0977 51.5289 14.1504 51.6417 14.2558C51.7563 14.3612 51.8136 14.497 51.8136 14.6634ZM51.1453 15.0155C51.2858 15.0155 51.3893 14.985 51.4559 14.924C51.5224 14.863 51.5557 14.7761 51.5557 14.6634C51.5557 14.4249 51.4189 14.3057 51.1453 14.3057H50.7738V15.0155H51.1453Z" fill="#1C1C1C"/>
<path d="M52.3795 14.7577C52.4239 14.6708 52.4867 14.6033 52.568 14.5552C52.6512 14.5072 52.752 14.4832 52.8703 14.4832V14.7438H52.8037C52.5209 14.7438 52.3795 14.8972 52.3795 15.2041V16.0303H52.1272V14.5109H52.3795V14.7577Z" fill="#1C1C1C"/>
<path d="M53.8242 16.0553C53.6819 16.0553 53.5525 16.0229 53.436 15.9582C53.3214 15.8935 53.2309 15.802 53.1643 15.6837C53.0996 15.5636 53.0673 15.425 53.0673 15.2678C53.0673 15.1126 53.1005 14.9758 53.1671 14.8575C53.2355 14.7373 53.3279 14.6458 53.4444 14.583C53.5608 14.5183 53.6911 14.4859 53.8353 14.4859C53.9795 14.4859 54.1098 14.5183 54.2263 14.583C54.3427 14.6458 54.4342 14.7364 54.5008 14.8547C54.5692 14.973 54.6034 15.1107 54.6034 15.2678C54.6034 15.425 54.5682 15.5636 54.498 15.6837C54.4296 15.802 54.3363 15.8935 54.2179 15.9582C54.0996 16.0229 53.9684 16.0553 53.8242 16.0553ZM53.8242 15.8335C53.9148 15.8335 53.9998 15.8122 54.0793 15.7697C54.1588 15.7272 54.2226 15.6634 54.2706 15.5784C54.3205 15.4934 54.3455 15.3898 54.3455 15.2678C54.3455 15.1458 54.3215 15.0423 54.2734 14.9573C54.2253 14.8723 54.1625 14.8094 54.0849 14.7687C54.0072 14.7262 53.9231 14.705 53.8325 14.705C53.7401 14.705 53.6551 14.7262 53.5774 14.7687C53.5017 14.8094 53.4407 14.8723 53.3944 14.9573C53.3482 15.0423 53.3251 15.1458 53.3251 15.2678C53.3251 15.3917 53.3473 15.4961 53.3917 15.5812C53.4379 15.6662 53.4989 15.73 53.5747 15.7725C53.6505 15.8131 53.7336 15.8335 53.8242 15.8335Z" fill="#1C1C1C"/>
<path d="M54.8408 15.2651C54.8408 15.1098 54.8723 14.9739 54.9351 14.8575C54.998 14.7392 55.0839 14.6477 55.193 14.583C55.3039 14.5183 55.4277 14.4859 55.5645 14.4859C55.6828 14.4859 55.7928 14.5137 55.8945 14.5691C55.9961 14.6227 56.0738 14.6939 56.1274 14.7826V13.9785H56.3825V16.0303H56.1274V15.7447C56.0775 15.8353 56.0035 15.9102 55.9056 15.9693C55.8076 16.0266 55.693 16.0553 55.5617 16.0553C55.4268 16.0553 55.3039 16.022 55.193 15.9555C55.0839 15.8889 54.998 15.7956 54.9351 15.6754C54.8723 15.5553 54.8408 15.4185 54.8408 15.2651ZM56.1274 15.2678C56.1274 15.1532 56.1043 15.0534 56.0581 14.9684C56.0119 14.8834 55.949 14.8187 55.8695 14.7743C55.7919 14.7281 55.7059 14.705 55.6117 14.705C55.5174 14.705 55.4314 14.7272 55.3538 14.7715C55.2762 14.8159 55.2142 14.8806 55.168 14.9656C55.1218 15.0506 55.0987 15.1505 55.0987 15.2651C55.0987 15.3815 55.1218 15.4832 55.168 15.5701C55.2142 15.6551 55.2762 15.7207 55.3538 15.7669C55.4314 15.8113 55.5174 15.8335 55.6117 15.8335C55.7059 15.8335 55.7919 15.8113 55.8695 15.7669C55.949 15.7207 56.0119 15.6551 56.0581 15.5701C56.1043 15.4832 56.1274 15.3824 56.1274 15.2678Z" fill="#1C1C1C"/>
<path d="M58.1564 14.5109V16.0303H57.9041V15.8057C57.856 15.8834 57.7886 15.9444 57.7017 15.9887C57.6167 16.0313 57.5224 16.0525 57.4189 16.0525C57.3006 16.0525 57.1943 16.0285 57.1 15.9804C57.0057 15.9305 56.9309 15.8566 56.8754 15.7586C56.8218 15.6606 56.795 15.5414 56.795 15.4009V14.5109H57.0446V15.3677C57.0446 15.5174 57.0824 15.6329 57.1582 15.7142C57.234 15.7937 57.3375 15.8335 57.4688 15.8335C57.6037 15.8335 57.71 15.7919 57.7876 15.7087C57.8653 15.6255 57.9041 15.5044 57.9041 15.3455V14.5109H58.1564Z" fill="#1C1C1C"/>
<path d="M58.4882 15.2678C58.4882 15.1107 58.5196 14.9739 58.5824 14.8575C58.6453 14.7392 58.7322 14.6477 58.8431 14.583C58.9558 14.5183 59.0843 14.4859 59.2285 14.4859C59.4152 14.4859 59.5686 14.5312 59.6888 14.6218C59.8108 14.7124 59.8912 14.8381 59.93 14.9989H59.6583C59.6324 14.9065 59.5816 14.8334 59.5058 14.7798C59.4318 14.7262 59.3394 14.6994 59.2285 14.6994C59.0843 14.6994 58.9679 14.7493 58.8791 14.8492C58.7904 14.9471 58.746 15.0867 58.746 15.2678C58.746 15.4508 58.7904 15.5922 58.8791 15.6921C58.9679 15.7919 59.0843 15.8418 59.2285 15.8418C59.3394 15.8418 59.4318 15.8159 59.5058 15.7642C59.5797 15.7124 59.6305 15.6385 59.6583 15.5423H59.93C59.8893 15.6976 59.808 15.8224 59.686 15.9167C59.564 16.0091 59.4115 16.0553 59.2285 16.0553C59.0843 16.0553 58.9558 16.0229 58.8431 15.9582C58.7322 15.8935 58.6453 15.802 58.5824 15.6837C58.5196 15.5654 58.4882 15.4268 58.4882 15.2678Z" fill="#1C1C1C"/>
<path d="M60.5744 14.7188V15.6144C60.5744 15.6884 60.5901 15.741 60.6216 15.7725C60.653 15.802 60.7075 15.8168 60.7852 15.8168H60.9709V16.0303H60.7436C60.6031 16.0303 60.4977 15.998 60.4275 15.9333C60.3572 15.8686 60.3221 15.7623 60.3221 15.6144V14.7188H60.1253V14.5109H60.3221V14.1282H60.5744V14.5109H60.9709V14.7188H60.5744Z" fill="#1C1C1C"/>
<g clip-path="url(#clip1_50_3484)">
<path d="M37.0403 6.97099L36.1976 7.67115L36.2663 7.3361L35.9355 7.30174L36.8316 6.64453L37.0403 6.97099Z" fill="#1C1C1C" style="mix-blend-mode:multiply"/>
<path d="M40.3806 5.17828C40.3806 5.17828 40.1942 5.33034 39.7965 4.65251C39.3987 3.97469 37.1779 1.84671 35.1324 1.58984L34.2441 4.991C34.2441 4.991 36.2433 5.62243 36.9675 7.23581C37.0014 7.27517 37.0459 7.30383 37.0958 7.31832C37.1457 7.33281 37.1987 7.33249 37.2484 7.31742L40.3806 5.17828Z" fill="#1C1C1C"/>
<path d="M40.415 4.93395C40.415 4.93395 40.9064 2.63157 38.8025 0.515625L37.6797 2.29223C37.6797 2.29223 39.6436 3.3326 40.4039 4.96917" fill="#1C1C1C"/>
<path d="M37.25 7.31932L40.3796 5.1819C40.3633 5.19221 40.2568 5.24461 40.054 5.01953L36.9141 7.12689C36.9321 7.16383 36.9501 7.19991 36.9673 7.23857C37.0014 7.2781 37.0464 7.3068 37.0966 7.32115C37.1468 7.3355 37.2001 7.33486 37.25 7.31932Z" fill="#1C1C1C" style="mix-blend-mode:multiply"/>
<path d="M40.5008 5.128C40.4951 5.12692 40.4899 5.12389 40.4862 5.11942C40.4825 5.11495 40.4805 5.10932 40.4805 5.10351C40.4805 5.09771 40.4825 5.09208 40.4862 5.08761C40.4899 5.08314 40.4951 5.0801 40.5008 5.07903C40.5111 5.07903 41.4939 4.98711 41.9346 4.11856C41.9361 4.11573 41.9381 4.11321 41.9405 4.11115C41.9429 4.1091 41.9457 4.10754 41.9488 4.10658C41.9518 4.10562 41.955 4.10528 41.9582 4.10557C41.9613 4.10585 41.9644 4.10677 41.9672 4.10825C41.9702 4.10963 41.9728 4.11157 41.9749 4.11397C41.977 4.11637 41.9787 4.11917 41.9797 4.12221C41.9808 4.12526 41.9812 4.12848 41.981 4.13169C41.9807 4.1349 41.9799 4.13803 41.9784 4.1409C41.5248 5.03435 40.518 5.12714 40.5051 5.128H40.5008Z" fill="#1C1C1C" style="mix-blend-mode:multiply"/>
<path d="M40.4811 4.97087C40.4766 4.97092 40.4721 4.96965 40.4683 4.96721C40.4645 4.96477 40.4615 4.96126 40.4596 4.95712C40.4582 4.95425 40.4573 4.95112 40.4571 4.94791C40.4569 4.9447 40.4573 4.94148 40.4583 4.93844C40.4594 4.93539 40.461 4.93259 40.4632 4.93019C40.4653 4.92779 40.4679 4.92585 40.4708 4.92447C40.7037 4.80193 40.9046 4.6265 41.0574 4.41225C41.2101 4.198 41.3105 3.95091 41.3505 3.69082C41.3509 3.68765 41.352 3.68459 41.3536 3.68183C41.3552 3.67907 41.3574 3.67665 41.3599 3.67473C41.3625 3.67281 41.3654 3.67142 41.3685 3.67064C41.3716 3.66986 41.3748 3.66972 41.378 3.6702C41.3813 3.67051 41.3844 3.67148 41.3873 3.67306C41.3901 3.67463 41.3926 3.67676 41.3947 3.67933C41.3967 3.68191 41.3981 3.68486 41.399 3.68801C41.3998 3.69117 41.4 3.69446 41.3995 3.69769C41.3576 3.96559 41.2537 4.22 41.0961 4.44061C40.9384 4.66122 40.7313 4.84192 40.4914 4.96829C40.4883 4.97 40.4847 4.97088 40.4811 4.97087Z" fill="#1C1C1C" style="mix-blend-mode:multiply"/>
<path d="M42.0479 4.09732C42.0481 4.11214 42.0438 4.12667 42.0357 4.13907C42.0276 4.15148 42.016 4.16119 42.0024 4.16698C41.9887 4.17277 41.9737 4.17437 41.9591 4.17159C41.9446 4.1688 41.9312 4.16175 41.9206 4.15133C41.9101 4.14092 41.9029 4.1276 41.8999 4.11308C41.897 4.09856 41.8984 4.08349 41.904 4.06978C41.9097 4.05607 41.9193 4.04435 41.9316 4.0361C41.9439 4.02784 41.9584 4.02344 41.9732 4.02344C41.9928 4.02344 42.0117 4.03119 42.0257 4.04502C42.0397 4.05886 42.0477 4.07765 42.0479 4.09732Z" fill="#1C1C1C"/>
<path d="M41.4464 3.6724C41.4464 3.68718 41.442 3.70163 41.4338 3.71392C41.4255 3.72621 41.4139 3.73579 41.4002 3.74145C41.3866 3.74711 41.3715 3.74858 41.357 3.7457C41.3425 3.74282 41.3292 3.7357 41.3188 3.72525C41.3083 3.71479 41.3012 3.70147 41.2983 3.68698C41.2954 3.67248 41.2969 3.65745 41.3026 3.64379C41.3082 3.63014 41.3178 3.61846 41.3301 3.61025C41.3424 3.60204 41.3568 3.59766 41.3716 3.59766C41.3914 3.59766 41.4104 3.60553 41.4245 3.61955C41.4385 3.63356 41.4464 3.65257 41.4464 3.6724Z" fill="#1C1C1C"/>
</g>
<path d="M43.0455 12.9654H40.9665C40.6641 12.9654 40.3932 12.9055 40.1538 12.7858C39.9207 12.6598 39.7254 12.4992 39.5679 12.3039C39.4104 12.1086 39.2907 11.8881 39.2088 11.6424C39.1269 11.3904 39.0859 11.1384 39.0859 10.8864V9.56338C39.0859 9.31138 39.1269 9.06253 39.2088 8.81683C39.2907 8.56483 39.4104 8.34118 39.5679 8.14588C39.7254 7.95058 39.9207 7.79308 40.1538 7.67338C40.3932 7.54738 40.6641 7.48438 40.9665 7.48438H43.896L43.0549 8.72233H42.2139C42.0501 8.72233 41.8894 8.73493 41.7319 8.76013C41.5744 8.77903 41.4327 8.81998 41.3067 8.88298C41.1807 8.94598 41.0767 9.03733 40.9948 9.15703C40.9192 9.27043 40.8814 9.42163 40.8814 9.61063V10.8391C40.8814 11.0281 40.9192 11.1825 40.9948 11.3022C41.0767 11.4156 41.1807 11.5038 41.3067 11.5668C41.4327 11.6298 41.5744 11.6739 41.7319 11.6991C41.8894 11.718 42.0501 11.7274 42.2139 11.7274H43.896L43.0455 12.9654Z" fill="#1C1C1C"/>
<path d="M44.337 12.9654H47.4082L48.2776 11.7274H46.1419V7.48438H44.337V12.9654Z" fill="#1C1C1C"/>
<path d="M48.7205 7.48438V12.9654H50.5255V7.48438H48.7205Z" fill="#1C1C1C"/>
<path d="M55.0887 12.9654H53.0097C52.7073 12.9654 52.4364 12.9055 52.197 12.7858C51.9639 12.6598 51.7686 12.4992 51.6111 12.3039C51.4536 12.1086 51.3339 11.8881 51.252 11.6424C51.1701 11.3904 51.1292 11.1384 51.1292 10.8864V9.56338C51.1292 9.31138 51.1701 9.06253 51.252 8.81683C51.3339 8.56483 51.4536 8.34118 51.6111 8.14588C51.7686 7.95058 51.9639 7.79308 52.197 7.67338C52.4364 7.54738 52.7073 7.48438 53.0097 7.48438H55.9393L55.0982 8.72233H54.2571C54.0933 8.72233 53.9327 8.73493 53.7752 8.76013C53.6177 8.77903 53.4759 8.81998 53.3499 8.88298C53.2239 8.94598 53.12 9.03733 53.0381 9.15703C52.9625 9.27043 52.9247 9.42163 52.9247 9.61063V10.8391C52.9247 11.0281 52.9625 11.1825 53.0381 11.3022C53.12 11.4156 53.2239 11.5038 53.3499 11.5668C53.4759 11.6298 53.6177 11.6739 53.7752 11.6991C53.9327 11.718 54.0933 11.7274 54.2571 11.7274H55.9393L55.0887 12.9654Z" fill="#1C1C1C"/>
<path d="M59.1963 12.9654H61.0013L59.6499 10.2249L61.0013 7.48438H59.1963L58.1946 9.52558L58.1852 9.51613V7.48438H56.3802V12.9654H58.1852V10.9336H58.1946L59.1963 12.9654Z" fill="#1C1C1C"/>
<path d="M44.2875 16.1374C44.2126 16.1374 44.138 16.1299 44.0646 16.1149C43.9935 16.1003 43.9239 16.0787 43.857 16.0505C43.7913 16.0226 43.7284 15.9885 43.6692 15.9485C43.6105 15.9088 43.5557 15.8636 43.5055 15.8135C43.4554 15.7634 43.4102 15.7086 43.3705 15.6498C43.3305 15.5907 43.2964 15.5278 43.2686 15.462C43.2403 15.3951 43.2187 15.3256 43.2041 15.2544C43.1892 15.1811 43.1816 15.1064 43.1816 15.0316C43.1816 14.9567 43.1892 14.8821 43.2041 14.8087C43.2187 14.7376 43.2403 14.668 43.2685 14.6011C43.2964 14.5354 43.3305 14.4725 43.3705 14.4133C43.4102 14.3546 43.4554 14.2998 43.5055 14.2496C43.5557 14.1995 43.6105 14.1543 43.6692 14.1146C43.7284 14.0746 43.7913 14.0405 43.857 14.0127C43.9239 13.9844 43.9935 13.9628 44.0646 13.9482C44.138 13.9333 44.2126 13.9258 44.2875 13.9258C44.3623 13.9258 44.437 13.9333 44.5104 13.9482C44.5815 13.9628 44.651 13.9844 44.7179 14.0127C44.7837 14.0405 44.8466 14.0747 44.9058 14.1146C44.9645 14.1543 45.0193 14.1995 45.0694 14.2497C45.1195 14.2998 45.1648 14.3546 45.2045 14.4133C45.2444 14.4725 45.2786 14.5354 45.3064 14.6011C45.3347 14.668 45.3563 14.7376 45.3709 14.8087C45.3858 14.8821 45.3933 14.9567 45.3933 15.0316C45.3934 15.1064 45.3858 15.1811 45.3709 15.2544C45.3563 15.3256 45.3347 15.3951 45.3064 15.462C45.2786 15.5278 45.2444 15.5907 45.2045 15.6498C45.1648 15.7086 45.1196 15.7634 45.0695 15.8135C45.0193 15.8636 44.9645 15.9088 44.9058 15.9485C44.8466 15.9885 44.7837 16.0226 44.718 16.0505C44.651 16.0787 44.5815 16.1003 44.5104 16.1149C44.437 16.1299 44.3623 16.1374 44.2875 16.1374ZM43.6656 15.246C43.6875 15.3101 43.7191 15.3704 43.7594 15.4248C43.7992 15.4787 43.847 15.5262 43.9011 15.5657C43.9557 15.6056 44.016 15.6367 44.0801 15.658C44.1465 15.68 44.216 15.6912 44.2859 15.6912C44.3561 15.6912 44.4258 15.68 44.4924 15.6578C44.5566 15.6364 44.6172 15.605 44.6718 15.5649C44.726 15.5252 44.7738 15.4774 44.8136 15.4232C44.8539 15.3685 44.8854 15.3078 44.9071 15.2434C44.8678 15.2592 44.8273 15.2741 44.7867 15.2877C44.7359 15.3046 44.685 15.3196 44.6355 15.332C44.5091 15.3638 44.3902 15.3799 44.282 15.3799C44.1754 15.3799 44.0585 15.3642 43.9345 15.3333C43.8856 15.3211 43.8354 15.3065 43.7854 15.2898C43.7451 15.2764 43.7048 15.2617 43.6656 15.246L43.6656 15.246Z" fill="#1C1C1C"/>
<path d="M48.7074 16.1374C48.6326 16.1374 48.5579 16.1299 48.4845 16.1149C48.4134 16.1003 48.3439 16.0787 48.277 16.0505C48.2112 16.0226 48.1483 15.9885 48.0891 15.9485C48.0304 15.9088 47.9756 15.8636 47.9255 15.8135C47.8754 15.7634 47.8301 15.7086 47.7904 15.6498C47.7505 15.5907 47.7163 15.5278 47.6885 15.462C47.6602 15.3951 47.6386 15.3256 47.624 15.2544C47.6091 15.1811 47.6016 15.1064 47.6016 15.0316C47.6015 14.9567 47.6091 14.8821 47.624 14.8087C47.6386 14.7376 47.6602 14.668 47.6885 14.6011C47.7163 14.5354 47.7505 14.4725 47.7904 14.4133C47.8301 14.3546 47.8753 14.2998 47.9254 14.2496C47.9756 14.1995 48.0304 14.1543 48.0891 14.1146C48.1483 14.0746 48.2112 14.0405 48.2769 14.0127C48.3439 13.9844 48.4134 13.9628 48.4845 13.9482C48.5579 13.9333 48.6326 13.9258 48.7074 13.9258C48.7823 13.9258 48.8569 13.9333 48.9303 13.9482C49.0014 13.9628 49.071 13.9844 49.1379 14.0127C49.2036 14.0405 49.2665 14.0747 49.3257 14.1146C49.3844 14.1543 49.4392 14.1995 49.4894 14.2497C49.5395 14.2998 49.5847 14.3546 49.6244 14.4133C49.6644 14.4725 49.6985 14.5354 49.7263 14.6011C49.7546 14.668 49.7762 14.7376 49.7908 14.8087C49.8057 14.8821 49.8133 14.9567 49.8133 15.0316C49.8133 15.1064 49.8057 15.1811 49.7908 15.2544C49.7762 15.3256 49.7546 15.3951 49.7264 15.462C49.6985 15.5278 49.6644 15.5907 49.6244 15.6498C49.5847 15.7086 49.5395 15.7634 49.4894 15.8135C49.4392 15.8636 49.3844 15.9088 49.3257 15.9485C49.2665 15.9885 49.2036 16.0226 49.1379 16.0505C49.071 16.0787 49.0014 16.1003 48.9303 16.1149C48.8569 16.1299 48.7823 16.1374 48.7074 16.1374ZM48.0855 15.246C48.1074 15.3101 48.1391 15.3704 48.1793 15.4248C48.2192 15.4787 48.2669 15.5262 48.321 15.5657C48.3756 15.6056 48.436 15.6367 48.5001 15.658C48.5664 15.68 48.6359 15.6912 48.7058 15.6912C48.776 15.6912 48.8457 15.68 48.9123 15.6578C48.9766 15.6364 49.0371 15.605 49.0917 15.5649C49.1459 15.5252 49.1937 15.4774 49.2335 15.4232C49.2738 15.3685 49.3053 15.3078 49.327 15.2434C49.2878 15.2592 49.2472 15.2741 49.2066 15.2877C49.1558 15.3046 49.1049 15.3196 49.0554 15.332C48.929 15.3638 48.8101 15.3799 48.702 15.3799C48.5953 15.3799 48.4784 15.3642 48.3544 15.3333C48.3055 15.3211 48.2554 15.3065 48.2053 15.2898C48.165 15.2764 48.1247 15.2617 48.0855 15.246L48.0855 15.246Z" fill="#1C1C1C"/>
<path d="M46.138 14.8393C46.1388 14.8373 46.1395 14.8355 46.1401 14.8339C46.1484 14.8128 46.1586 14.7925 46.1707 14.7732C46.1786 14.7606 46.1872 14.7484 46.1966 14.7368V14.7454L46.138 14.8393ZM45.5645 14.7042L45.5645 13.9394H46.1967V14.0722C46.1605 14.0827 46.125 14.0955 46.0904 14.1104C46.035 14.1344 45.9821 14.1636 45.9326 14.1977C45.8832 14.2317 45.8374 14.2703 45.7956 14.3129C45.7536 14.3556 45.7159 14.4021 45.6829 14.4517C45.6495 14.5018 45.6211 14.5549 45.598 14.6102C45.5851 14.641 45.574 14.6724 45.5645 14.7042Z" fill="#1C1C1C"/>
<path d="M46.8347 16.1593L46.8318 14.963C46.8318 14.8824 46.8028 14.8044 46.7499 14.7426C46.697 14.6808 46.6235 14.639 46.5422 14.6247V14.6252C46.5254 14.6227 46.5085 14.6214 46.4915 14.6214C46.3989 14.6214 46.3125 14.6597 46.2483 14.7293C46.2175 14.7627 46.1933 14.8015 46.1769 14.8435C46.1599 14.8869 46.1511 14.933 46.1511 14.9795V15.9579H45.5625V14.9795C45.5625 14.7956 45.6171 14.6156 45.7197 14.4613C45.7527 14.4117 45.7904 14.3652 45.8324 14.3224C45.8742 14.2799 45.9201 14.2413 45.9694 14.2073C46.0189 14.1732 46.0718 14.1439 46.1272 14.12C46.242 14.0704 46.366 14.0449 46.4915 14.045H46.4922C46.5077 14.045 46.524 14.0456 46.5405 14.0469C46.6572 14.0542 46.7715 14.0828 46.8773 14.1312C47.0396 14.2051 47.1769 14.3226 47.2731 14.4699C47.3693 14.6173 47.4204 14.7883 47.4204 14.963L47.4233 16.1593H46.8347Z" fill="#1C1C1C"/>
<path d="M46.8347 16.1593L46.8318 14.963C46.8318 14.8824 46.8028 14.8044 46.7499 14.7426C46.697 14.6808 46.6235 14.639 46.5422 14.6247V14.6252C46.5254 14.6227 46.5085 14.6214 46.4915 14.6214C46.3989 14.6214 46.3125 14.6597 46.2483 14.7293C46.2175 14.7627 46.1933 14.8015 46.1769 14.8435C46.1599 14.8869 46.1511 14.933 46.1511 14.9795V15.9579H45.5625V14.9795C45.5625 14.7956 45.6171 14.6156 45.7197 14.4613C45.7527 14.4117 45.7904 14.3652 45.8324 14.3224C45.8742 14.2799 45.9201 14.2413 45.9694 14.2073C46.0189 14.1732 46.0718 14.1439 46.1272 14.12C46.242 14.0704 46.366 14.0449 46.4915 14.045H46.4922C46.5077 14.045 46.524 14.0456 46.5405 14.0469C46.6572 14.0542 46.7715 14.0828 46.8773 14.1312C47.0396 14.2051 47.1769 14.3226 47.2731 14.4699C47.3693 14.6173 47.4204 14.7883 47.4204 14.963L47.4233 16.1593H46.8347Z" fill="#1C1C1C"/>
<path d="M40.3464 15.5445H39.5035L39.3482 15.9742H39.082L39.7808 14.0527H40.0719L40.7679 15.9742H40.5017L40.3464 15.5445ZM40.2743 15.3393L39.9249 14.3633L39.5756 15.3393H40.2743Z" fill="#1C1C1C"/>
<path d="M41.8127 14.4271C41.9975 14.4271 42.1473 14.4834 42.2619 14.5962C42.3765 14.7071 42.4338 14.8679 42.4338 15.0786V15.9742H42.1842V15.1147C42.1842 14.9631 42.1463 14.8476 42.0706 14.7681C41.9948 14.6868 41.8913 14.6461 41.76 14.6461C41.6269 14.6461 41.5206 14.6877 41.4411 14.7709C41.3635 14.8541 41.3247 14.9751 41.3247 15.1341V15.9742H41.0724V14.4548H41.3247V14.6711C41.3746 14.5934 41.4421 14.5333 41.5271 14.4908C41.614 14.4483 41.7092 14.4271 41.8127 14.4271Z" fill="#1C1C1C"/>
<path d="M51.8136 14.6634C51.8136 14.8242 51.7581 14.9582 51.6472 15.0654C51.5382 15.1708 51.3709 15.2235 51.1453 15.2235H50.7738V16.0303H50.5215V14.0977H51.1453C51.3635 14.0977 51.5289 14.1504 51.6417 14.2558C51.7563 14.3612 51.8136 14.497 51.8136 14.6634ZM51.1453 15.0155C51.2858 15.0155 51.3893 14.985 51.4559 14.924C51.5224 14.863 51.5557 14.7761 51.5557 14.6634C51.5557 14.4249 51.4189 14.3057 51.1453 14.3057H50.7738V15.0155H51.1453Z" fill="#1C1C1C"/>
<path d="M52.3795 14.7577C52.4239 14.6708 52.4867 14.6033 52.568 14.5552C52.6512 14.5072 52.752 14.4832 52.8703 14.4832V14.7438H52.8037C52.5209 14.7438 52.3795 14.8972 52.3795 15.2041V16.0303H52.1272V14.5109H52.3795V14.7577Z" fill="#1C1C1C"/>
<path d="M53.8242 16.0553C53.6819 16.0553 53.5525 16.0229 53.436 15.9582C53.3214 15.8935 53.2309 15.802 53.1643 15.6837C53.0996 15.5636 53.0673 15.425 53.0673 15.2678C53.0673 15.1126 53.1005 14.9758 53.1671 14.8575C53.2355 14.7373 53.3279 14.6458 53.4444 14.583C53.5608 14.5183 53.6911 14.4859 53.8353 14.4859C53.9795 14.4859 54.1098 14.5183 54.2263 14.583C54.3427 14.6458 54.4342 14.7364 54.5008 14.8547C54.5692 14.973 54.6034 15.1107 54.6034 15.2678C54.6034 15.425 54.5682 15.5636 54.498 15.6837C54.4296 15.802 54.3363 15.8935 54.2179 15.9582C54.0996 16.0229 53.9684 16.0553 53.8242 16.0553ZM53.8242 15.8335C53.9148 15.8335 53.9998 15.8122 54.0793 15.7697C54.1588 15.7272 54.2226 15.6634 54.2706 15.5784C54.3205 15.4934 54.3455 15.3898 54.3455 15.2678C54.3455 15.1458 54.3215 15.0423 54.2734 14.9573C54.2253 14.8723 54.1625 14.8094 54.0849 14.7687C54.0072 14.7262 53.9231 14.705 53.8325 14.705C53.7401 14.705 53.6551 14.7262 53.5774 14.7687C53.5017 14.8094 53.4407 14.8723 53.3944 14.9573C53.3482 15.0423 53.3251 15.1458 53.3251 15.2678C53.3251 15.3917 53.3473 15.4961 53.3917 15.5812C53.4379 15.6662 53.4989 15.73 53.5747 15.7725C53.6505 15.8131 53.7336 15.8335 53.8242 15.8335Z" fill="#1C1C1C"/>
<path d="M54.8408 15.2651C54.8408 15.1098 54.8723 14.9739 54.9351 14.8575C54.998 14.7392 55.0839 14.6477 55.193 14.583C55.3039 14.5183 55.4277 14.4859 55.5645 14.4859C55.6828 14.4859 55.7928 14.5137 55.8945 14.5691C55.9961 14.6227 56.0738 14.6939 56.1274 14.7826V13.9785H56.3825V16.0303H56.1274V15.7447C56.0775 15.8353 56.0035 15.9102 55.9056 15.9693C55.8076 16.0266 55.693 16.0553 55.5617 16.0553C55.4268 16.0553 55.3039 16.022 55.193 15.9555C55.0839 15.8889 54.998 15.7956 54.9351 15.6754C54.8723 15.5553 54.8408 15.4185 54.8408 15.2651ZM56.1274 15.2678C56.1274 15.1532 56.1043 15.0534 56.0581 14.9684C56.0119 14.8834 55.949 14.8187 55.8695 14.7743C55.7919 14.7281 55.7059 14.705 55.6117 14.705C55.5174 14.705 55.4314 14.7272 55.3538 14.7715C55.2762 14.8159 55.2142 14.8806 55.168 14.9656C55.1218 15.0506 55.0987 15.1505 55.0987 15.2651C55.0987 15.3815 55.1218 15.4832 55.168 15.5701C55.2142 15.6551 55.2762 15.7207 55.3538 15.7669C55.4314 15.8113 55.5174 15.8335 55.6117 15.8335C55.7059 15.8335 55.7919 15.8113 55.8695 15.7669C55.949 15.7207 56.0119 15.6551 56.0581 15.5701C56.1043 15.4832 56.1274 15.3824 56.1274 15.2678Z" fill="#1C1C1C"/>
<path d="M58.1564 14.5109V16.0303H57.9041V15.8057C57.856 15.8834 57.7886 15.9444 57.7017 15.9887C57.6167 16.0313 57.5224 16.0525 57.4189 16.0525C57.3006 16.0525 57.1943 16.0285 57.1 15.9804C57.0057 15.9305 56.9309 15.8566 56.8754 15.7586C56.8218 15.6606 56.795 15.5414 56.795 15.4009V14.5109H57.0446V15.3677C57.0446 15.5174 57.0824 15.6329 57.1582 15.7142C57.234 15.7937 57.3375 15.8335 57.4688 15.8335C57.6037 15.8335 57.71 15.7919 57.7876 15.7087C57.8653 15.6255 57.9041 15.5044 57.9041 15.3455V14.5109H58.1564Z" fill="#1C1C1C"/>
<path d="M58.4882 15.2678C58.4882 15.1107 58.5196 14.9739 58.5824 14.8575C58.6453 14.7392 58.7322 14.6477 58.8431 14.583C58.9558 14.5183 59.0843 14.4859 59.2285 14.4859C59.4152 14.4859 59.5686 14.5312 59.6888 14.6218C59.8108 14.7124 59.8912 14.8381 59.93 14.9989H59.6583C59.6324 14.9065 59.5816 14.8334 59.5058 14.7798C59.4318 14.7262 59.3394 14.6994 59.2285 14.6994C59.0843 14.6994 58.9679 14.7493 58.8791 14.8492C58.7904 14.9471 58.746 15.0867 58.746 15.2678C58.746 15.4508 58.7904 15.5922 58.8791 15.6921C58.9679 15.7919 59.0843 15.8418 59.2285 15.8418C59.3394 15.8418 59.4318 15.8159 59.5058 15.7642C59.5797 15.7124 59.6305 15.6385 59.6583 15.5423H59.93C59.8893 15.6976 59.808 15.8224 59.686 15.9167C59.564 16.0091 59.4115 16.0553 59.2285 16.0553C59.0843 16.0553 58.9558 16.0229 58.8431 15.9582C58.7322 15.8935 58.6453 15.802 58.5824 15.6837C58.5196 15.5654 58.4882 15.4268 58.4882 15.2678Z" fill="#1C1C1C"/>
<path d="M60.5744 14.7188V15.6144C60.5744 15.6884 60.5901 15.741 60.6216 15.7725C60.653 15.802 60.7075 15.8168 60.7852 15.8168H60.9709V16.0303H60.7436C60.6031 16.0303 60.4977 15.998 60.4275 15.9333C60.3572 15.8686 60.3221 15.7623 60.3221 15.6144V14.7188H60.1253V14.5109H60.3221V14.1282H60.5744V14.5109H60.9709V14.7188H60.5744Z" fill="#1C1C1C"/>
<path d="M0.764554 16.1846C0.673571 16.1871 0.583679 16.1645 0.505091 16.1192C0.433064 16.0756 0.375443 16.0122 0.339246 15.9369C0.299153 15.852 0.279359 15.7592 0.281392 15.6656C0.279359 15.572 0.299153 15.4792 0.339246 15.3944C0.375443 15.319 0.433064 15.2557 0.505091 15.2121C0.583679 15.1668 0.673571 15.1441 0.764554 15.1467C0.880962 15.1467 0.977969 15.1754 1.05557 15.2328C1.13377 15.291 1.19103 15.3724 1.21898 15.4651L1.04858 15.5114C1.03228 15.4514 0.997184 15.398 0.9483 15.3589C0.895226 15.3204 0.830386 15.301 0.764572 15.3039C0.704817 15.3017 0.645785 15.3174 0.59522 15.3488C0.549234 15.3799 0.513801 15.4239 0.49354 15.4751C0.469634 15.5358 0.457847 15.6006 0.458827 15.6657C0.457402 15.7308 0.468958 15.7956 0.492838 15.8563C0.51315 15.9076 0.54872 15.9516 0.59487 15.9826C0.645599 16.014 0.704761 16.0297 0.764647 16.0275C0.830515 16.0304 0.895392 16.0109 0.948374 15.9722C0.997101 15.933 1.03217 15.8798 1.04865 15.82L1.21898 15.8663C1.19101 15.9589 1.13375 16.0402 1.05559 16.0984C0.977974 16.1559 0.880962 16.1846 0.764554 16.1846ZM1.89848 16.1846C1.80749 16.1871 1.7176 16.1645 1.63901 16.1192C1.56699 16.0756 1.50937 16.0122 1.47317 15.9369C1.43308 15.852 1.41328 15.7592 1.41531 15.6656C1.41328 15.572 1.43308 15.4792 1.47317 15.3944C1.50937 15.319 1.56699 15.2557 1.63901 15.2121C1.7176 15.1668 1.80749 15.1441 1.89848 15.1467C1.98958 15.1442 2.07958 15.1669 2.15829 15.2122C2.23048 15.2557 2.28823 15.3191 2.32449 15.3945C2.36458 15.4794 2.38437 15.5722 2.38234 15.6658C2.38437 15.7594 2.36458 15.8522 2.32449 15.937C2.28821 16.0124 2.23045 16.0757 2.15829 16.1192C2.07956 16.1645 1.98957 16.1871 1.89848 16.1846ZM1.89848 16.0275C1.9582 16.0302 2.01731 16.0147 2.06787 15.9832C2.11392 15.9521 2.14936 15.908 2.16955 15.8566C2.19341 15.7958 2.20496 15.7309 2.20356 15.6657C2.20503 15.6008 2.19347 15.5363 2.16955 15.4758C2.14915 15.4248 2.11373 15.3811 2.06787 15.3502C2.01726 15.3186 1.95836 15.3025 1.89851 15.3038C1.83891 15.3011 1.77992 15.3166 1.72951 15.3481C1.68363 15.3793 1.64832 15.4234 1.62818 15.4747C1.60432 15.5355 1.59277 15.6004 1.59417 15.6656C1.59271 15.7305 1.60414 15.795 1.62783 15.8555C1.64802 15.9065 1.68334 15.9503 1.72916 15.9812C1.77975 16.0127 1.83865 16.0288 1.89848 16.0275ZM2.62077 16.1638V15.1676H2.79187L3.26031 15.8698V15.1676H3.43141V16.1638H3.26031L2.79187 15.4616V16.1638H2.62077ZM3.72594 16.1638V15.1676H3.89704L4.36539 15.8698V15.1676H4.53649V16.1638H4.36539L3.89695 15.4616V16.1638H3.72594ZM4.83111 16.1638V15.1676H5.48327V15.3239H5.00011V15.5695H5.39912V15.7259H5.00011V16.0075H5.48327V16.1638H4.83111ZM6.14175 16.1846C6.05077 16.1871 5.96089 16.1645 5.8823 16.1192C5.81028 16.0756 5.75265 16.0122 5.71646 15.9369C5.67636 15.852 5.65657 15.7592 5.6586 15.6656C5.65657 15.572 5.67636 15.4792 5.71646 15.3944C5.75268 15.3191 5.8103 15.2558 5.8823 15.2122C5.96089 15.1669 6.05078 15.1443 6.14177 15.1468C6.25817 15.1468 6.35518 15.1755 6.43279 15.233C6.51095 15.2912 6.5682 15.3725 6.59618 15.4651L6.42577 15.5114C6.40947 15.4514 6.37438 15.398 6.32549 15.3589C6.27242 15.3204 6.20758 15.301 6.14177 15.3039C6.08201 15.3017 6.02298 15.3174 5.97241 15.3488C5.92643 15.3799 5.89099 15.4239 5.87073 15.4751C5.84683 15.5358 5.83504 15.6006 5.83602 15.6657C5.8346 15.7308 5.84615 15.7956 5.87003 15.8563C5.89034 15.9076 5.92591 15.9516 5.97206 15.9826C6.02279 16.014 6.08195 16.0297 6.14184 16.0275C6.20771 16.0304 6.27259 16.0109 6.32557 15.9722C6.3743 15.933 6.40936 15.8798 6.42585 15.82L6.59625 15.8663C6.56827 15.9589 6.51102 16.0402 6.43286 16.0984C6.35519 16.1559 6.25815 16.1846 6.14175 16.1846ZM7.09124 16.1638V15.3239H6.7644V15.1676H7.58697V15.3239H7.26019V16.1638H7.09124ZM9.69574 16.1638V15.1676H10.0176C10.026 15.1676 10.0427 15.1678 10.0678 15.1683C10.092 15.1687 10.1162 15.1703 10.1403 15.1731C10.2149 15.181 10.2854 15.2102 10.3433 15.2572C10.3996 15.3042 10.4429 15.3646 10.4692 15.4326C10.4983 15.5069 10.5129 15.586 10.512 15.6657C10.5129 15.7454 10.4983 15.8245 10.4692 15.8988C10.4429 15.9668 10.3996 16.0271 10.3433 16.0742C10.2854 16.1212 10.2149 16.1504 10.1403 16.1583C10.1164 16.1611 10.0923 16.1627 10.0681 16.1631C10.0428 16.1636 10.026 16.1638 10.0176 16.1638H9.69574ZM9.86755 16.0068H10.0176C10.0316 16.0068 10.0495 16.0063 10.0713 16.0054C10.0907 16.0047 10.11 16.0026 10.1291 15.9992C10.1741 15.9919 10.2151 15.9697 10.2455 15.9362C10.2764 15.9012 10.2991 15.8598 10.3118 15.8151C10.3262 15.7666 10.3334 15.7163 10.3332 15.6657C10.3335 15.6142 10.3262 15.5629 10.3114 15.5135C10.2987 15.4691 10.2758 15.4281 10.2445 15.3938C10.2139 15.3613 10.1734 15.3397 10.1291 15.3322C10.1101 15.3283 10.0907 15.3261 10.0713 15.3257C10.0495 15.325 10.0316 15.3246 10.0176 15.3246H9.86755V16.0068ZM10.7903 16.1638V15.1676H10.9593V16.1638H10.7903ZM11.6417 16.1846C11.5732 16.1856 11.5053 16.1727 11.4422 16.1465C11.3851 16.1227 11.335 16.0853 11.2964 16.0376C11.2576 15.9887 11.2325 15.9306 11.2238 15.8691L11.3991 15.8428C11.4116 15.8982 11.4445 15.947 11.4914 15.9798C11.5385 16.0123 11.5948 16.0292 11.6523 16.0282C11.6869 16.0284 11.7213 16.0228 11.754 16.0116C11.7835 16.002 11.8101 15.9854 11.8315 15.9632C11.8514 15.9419 11.8621 15.9139 11.8613 15.885C11.8614 15.8719 11.8591 15.8589 11.8543 15.8466C11.8496 15.8348 11.8426 15.8241 11.8336 15.8151C11.8233 15.805 11.8114 15.7965 11.7985 15.7899C11.7828 15.7817 11.7662 15.7751 11.7491 15.7702L11.4881 15.6941C11.4634 15.6868 11.4392 15.6782 11.4155 15.6682C11.3888 15.6569 11.364 15.6417 11.3419 15.6232C11.3179 15.603 11.2985 15.578 11.2851 15.5499C11.2693 15.5152 11.2617 15.4775 11.2629 15.4395C11.2609 15.3818 11.2783 15.325 11.3124 15.278C11.3465 15.2335 11.3927 15.1996 11.4456 15.1801C11.505 15.1578 11.5682 15.147 11.6318 15.1482C11.6952 15.1476 11.7582 15.1595 11.8169 15.1832C11.8697 15.205 11.9164 15.239 11.953 15.2825C11.9906 15.3282 12.017 15.382 12.0301 15.4395L11.8485 15.4706C11.842 15.4376 11.8272 15.4068 11.8054 15.381C11.7843 15.3564 11.7576 15.337 11.7276 15.3245C11.6966 15.3115 11.6634 15.3045 11.6298 15.3038C11.5979 15.303 11.5662 15.3081 11.5361 15.3186C11.5096 15.3276 11.4857 15.3429 11.4667 15.3633C11.4495 15.3817 11.4401 15.406 11.4404 15.4311C11.44 15.442 11.4417 15.453 11.4455 15.4632C11.4494 15.4735 11.4552 15.483 11.4628 15.491C11.4785 15.507 11.4975 15.5195 11.5185 15.5277C11.5406 15.5366 11.5632 15.5441 11.5862 15.5502L11.7671 15.6C11.7918 15.6064 11.8196 15.6152 11.8505 15.6263C11.8821 15.6377 11.9121 15.6533 11.9396 15.6726C11.9687 15.6931 11.9928 15.7198 12.01 15.7508C12.0299 15.7888 12.0394 15.8312 12.0377 15.8739C12.0388 15.9212 12.0277 15.968 12.0053 16.0099C11.9839 16.0485 11.9538 16.0817 11.9173 16.1071C11.8789 16.1336 11.836 16.1533 11.7907 16.1652C11.7421 16.1783 11.692 16.1848 11.6417 16.1846ZM12.7153 16.1846C12.6243 16.1871 12.5344 16.1645 12.4558 16.1192C12.3838 16.0756 12.3262 16.0122 12.29 15.9369C12.2499 15.852 12.2301 15.7592 12.2321 15.6656C12.2301 15.572 12.2499 15.4792 12.29 15.3944C12.3262 15.319 12.3838 15.2557 12.4558 15.2121C12.5344 15.1668 12.6243 15.1442 12.7153 15.1468C12.8317 15.1468 12.9287 15.1755 13.0063 15.233C13.0845 15.2912 13.1417 15.3725 13.1697 15.4651L12.9993 15.5114C12.983 15.4514 12.9479 15.398 12.899 15.3589C12.8459 15.3204 12.7811 15.301 12.7153 15.3039C12.6555 15.3017 12.5965 15.3174 12.5459 15.3488C12.4999 15.3799 12.4645 15.4239 12.4442 15.4751C12.4203 15.5358 12.4085 15.6005 12.4095 15.6657C12.408 15.7308 12.4196 15.7956 12.4435 15.8563C12.4638 15.9076 12.4994 15.9516 12.5456 15.9826C12.5963 16.014 12.6555 16.0297 12.7153 16.0275C12.7812 16.0304 12.8461 16.0109 12.8991 15.9722C12.9478 15.933 12.9829 15.8798 12.9994 15.82L13.1698 15.8663C13.1418 15.9589 13.0845 16.0402 13.0063 16.0984C12.9287 16.1559 12.8317 16.1846 12.7153 16.1846ZM13.8492 16.1846C13.7582 16.1871 13.6683 16.1645 13.5897 16.1192C13.5177 16.0756 13.4601 16.0122 13.4239 15.9369C13.3838 15.852 13.364 15.7592 13.366 15.6656C13.364 15.572 13.3838 15.4792 13.4239 15.3944C13.4601 15.319 13.5177 15.2557 13.5897 15.2121C13.6683 15.1668 13.7582 15.1441 13.8492 15.1467C13.9403 15.1442 14.0304 15.1669 14.1091 15.2122C14.1812 15.2558 14.2389 15.3191 14.2752 15.3945C14.3153 15.4794 14.3351 15.5722 14.333 15.6658C14.3351 15.7594 14.3153 15.8522 14.2752 15.937C14.2389 16.0124 14.1812 16.0757 14.1091 16.1192C14.0303 16.1645 13.9403 16.1871 13.8492 16.1846ZM13.8492 16.0275C13.9089 16.0302 13.968 16.0147 14.0186 15.9832C14.0646 15.9521 14.1 15.908 14.1202 15.8566C14.1441 15.7958 14.1556 15.7309 14.1542 15.6657C14.1557 15.6008 14.1441 15.5363 14.1202 15.4758C14.0998 15.4248 14.0643 15.3811 14.0185 15.3502C13.9679 15.3186 13.909 15.3025 13.8491 15.3038C13.7895 15.3012 13.7306 15.3167 13.6802 15.3482C13.6343 15.3794 13.599 15.4235 13.5789 15.4748C13.555 15.5356 13.5435 15.6005 13.5449 15.6657C13.5434 15.7306 13.5548 15.7951 13.5785 15.8556C13.5987 15.9066 13.634 15.9504 13.6798 15.9812C13.7305 16.0127 13.7894 16.0289 13.8492 16.0275ZM14.7566 16.1638L14.4382 15.1676H14.6122L14.8786 16.0019L15.1486 15.1676H15.3225L15.0041 16.1638H14.7566ZM15.5259 16.1638V15.1676H16.1781V15.3239H15.6949V15.5695H16.0939V15.7259H15.6949V16.0075H16.1781V16.1638H15.5259ZM16.4445 16.1638V15.1676H16.8618C16.8716 15.1676 16.8842 15.1679 16.8996 15.1686C16.914 15.1692 16.9283 15.1707 16.9424 15.1731C16.9949 15.1795 17.0448 15.1993 17.0872 15.2305C17.1251 15.2597 17.1544 15.2983 17.1721 15.3423C17.1911 15.39 17.2005 15.4408 17.1998 15.492C17.2018 15.5666 17.18 15.6398 17.1374 15.7014C17.0958 15.7597 17.032 15.7958 16.9459 15.8097L16.8737 15.8159H16.6135V16.1638H16.4445ZM17.0245 16.1638L16.8253 15.7584L16.9971 15.721L17.2159 16.1638H17.0245ZM16.6135 15.6602H16.8548C16.8641 15.6602 16.8746 15.6597 16.8863 15.6588C16.8972 15.658 16.908 15.6562 16.9186 15.6533C16.9439 15.6479 16.967 15.6352 16.9848 15.6166C17.0007 15.5996 17.0124 15.5793 17.0192 15.5572C17.0258 15.5361 17.0292 15.5142 17.0294 15.4921C17.0292 15.47 17.0258 15.4479 17.0192 15.4267C17.0125 15.4045 17.0007 15.384 16.9848 15.3669C16.967 15.3484 16.9439 15.3356 16.9186 15.3302C16.908 15.3274 16.8972 15.3256 16.8863 15.325C16.8746 15.3244 16.8641 15.324 16.8548 15.324H16.6135V15.6602ZM19.1282 16.1638V15.1676H19.4501C19.4585 15.1676 19.4752 15.1678 19.5002 15.1683C19.5245 15.1687 19.5487 15.1703 19.5728 15.1731C19.6473 15.181 19.7179 15.2102 19.7758 15.2572C19.8321 15.3042 19.8754 15.3646 19.9017 15.4326C19.9308 15.5069 19.9453 15.586 19.9445 15.6657C19.9453 15.7454 19.9308 15.8245 19.9017 15.8988C19.8754 15.9668 19.8321 16.0271 19.7758 16.0742C19.7179 16.1212 19.6473 16.1504 19.5728 16.1583C19.5488 16.1611 19.5247 16.1627 19.5006 16.1631C19.4753 16.1636 19.4585 16.1638 19.4501 16.1638H19.1282ZM19.3 16.0068H19.4501C19.4641 16.0068 19.482 16.0063 19.5037 16.0054C19.5231 16.0047 19.5425 16.0026 19.5616 15.9992C19.6065 15.9919 19.6476 15.9697 19.678 15.9362C19.7089 15.9012 19.7315 15.8598 19.7443 15.8151C19.7587 15.7666 19.7659 15.7163 19.7657 15.6657C19.766 15.6142 19.7587 15.5629 19.7439 15.5135C19.7312 15.4691 19.7083 15.4281 19.6769 15.3938C19.6464 15.3613 19.6059 15.3397 19.5616 15.3322C19.5426 15.3283 19.5232 15.3261 19.5037 15.3257C19.482 15.325 19.4641 15.3246 19.4501 15.3246H19.3V16.0068ZM20.2088 16.1638V15.1676H20.861V15.3239H20.3779V15.5695H20.7769V15.7259H20.3779V16.0075H20.8611V16.1638H20.2088ZM21.5195 16.1846C21.4285 16.1871 21.3386 16.1645 21.26 16.1192C21.188 16.0756 21.1304 16.0122 21.0942 15.9369C21.0541 15.852 21.0343 15.7592 21.0363 15.6656C21.0343 15.572 21.0541 15.4792 21.0942 15.3944C21.1304 15.3191 21.188 15.2558 21.26 15.2122C21.3386 15.1669 21.4285 15.1443 21.5195 15.1468C21.6359 15.1468 21.7329 15.1755 21.8105 15.233C21.8886 15.2912 21.9459 15.3725 21.9739 15.4651L21.8035 15.5114C21.7872 15.4514 21.7521 15.398 21.7032 15.3589C21.6501 15.3204 21.5853 15.301 21.5195 15.3039C21.4597 15.3017 21.4007 15.3174 21.3501 15.3488C21.3041 15.3799 21.2687 15.4239 21.2484 15.4751C21.2245 15.5358 21.2127 15.6006 21.2137 15.6657C21.2123 15.7308 21.2238 15.7956 21.2477 15.8563C21.268 15.9076 21.3036 15.9516 21.3498 15.9826C21.4005 16.014 21.4597 16.0297 21.5195 16.0275C21.5854 16.0304 21.6503 16.0109 21.7033 15.9722C21.752 15.933 21.7871 15.8798 21.8035 15.82L21.9739 15.8663C21.946 15.9589 21.8887 16.0402 21.8106 16.0984C21.7329 16.1559 21.6359 16.1846 21.5195 16.1846ZM22.2404 16.1638V15.1676H22.4094V16.1638H22.2404ZM22.7179 16.1638V15.1676H23.0397C23.0482 15.1676 23.0649 15.1678 23.0899 15.1683C23.1141 15.1687 23.1384 15.1703 23.1625 15.1731C23.237 15.181 23.3075 15.2102 23.3655 15.2572C23.4217 15.3042 23.465 15.3646 23.4913 15.4326C23.5205 15.5069 23.535 15.586 23.5341 15.6657C23.535 15.7454 23.5205 15.8245 23.4913 15.8988C23.465 15.9668 23.4218 16.0271 23.3656 16.0742C23.3077 16.1212 23.2371 16.1504 23.1626 16.1583C23.1386 16.1611 23.1145 16.1627 23.0904 16.1631C23.0651 16.1636 23.0482 16.1638 23.0398 16.1638H22.7179ZM22.8897 16.0068H23.0397C23.0538 16.0068 23.0716 16.0063 23.0934 16.0054C23.1128 16.0047 23.1321 16.0026 23.1512 15.9992C23.1962 15.9919 23.2373 15.9697 23.2676 15.9362C23.2986 15.9012 23.3212 15.8598 23.3339 15.8151C23.3483 15.7666 23.3555 15.7163 23.3553 15.6657C23.3557 15.6142 23.3483 15.5629 23.3336 15.5135C23.3208 15.4691 23.2979 15.4281 23.2666 15.3938C23.2361 15.3613 23.1955 15.3397 23.1512 15.3322C23.1322 15.3283 23.1128 15.3261 23.0934 15.3257C23.0716 15.325 23.0538 15.3246 23.0397 15.3246H22.8897V16.0068ZM23.7985 16.1638V15.1676H24.4507V15.3239H23.9675V15.5695H24.3666V15.7259H23.9675V16.0075H24.4507V16.1638H23.7985Z" fill="#151515"/>
<path d="M4.21673 13.7021C3.93131 13.7021 3.64661 13.6737 3.36691 13.6173C3.09564 13.5622 2.83051 13.4807 2.57538 13.374C2.32468 13.2689 2.0848 13.1399 1.85911 12.989C1.63522 12.8392 1.42625 12.6684 1.23505 12.4792C1.04399 12.2899 0.871591 12.083 0.720183 11.8613C0.567796 11.6379 0.437599 11.4004 0.331415 11.152C0.223603 10.8995 0.141302 10.6369 0.0857192 10.3683C0.0286737 10.0914 -4.53023e-05 9.80945 1.0592e-07 9.52682C-6.36311e-05 9.24419 0.0286381 8.96227 0.0856651 8.68536C0.14125 8.41668 0.223551 8.15414 0.331361 7.90158C0.437549 7.65326 0.567746 7.41572 0.720129 7.19233C0.871545 6.97057 1.04395 6.76367 1.23499 6.57442C1.4262 6.38517 1.63517 6.21443 1.85906 6.06457C2.08475 5.91364 2.32462 5.78473 2.57533 5.67963C2.83045 5.57287 3.09558 5.49137 3.36685 5.43635C3.64656 5.37989 3.93129 5.35148 4.21673 5.35156C4.50216 5.3515 4.78686 5.37991 5.06655 5.43638C5.33783 5.49141 5.60296 5.57291 5.85808 5.67967C6.10879 5.78477 6.34866 5.91369 6.57435 6.06462C6.79824 6.21448 7.00722 6.3852 7.19842 6.57446C7.38947 6.7637 7.56187 6.97062 7.71328 7.19238C7.86567 7.41578 7.99586 7.65329 8.10205 7.90162C8.20986 8.15417 8.29216 8.41671 8.34775 8.68539C8.40479 8.96229 8.43351 9.2442 8.43347 9.52682C8.43353 9.80945 8.40483 10.0914 8.3478 10.3683C8.29222 10.6369 8.20992 10.8995 8.10211 11.152C7.99592 11.4004 7.86572 11.6379 7.71334 11.8613C7.56193 12.083 7.38953 12.2899 7.19847 12.4792C7.00727 12.6684 6.7983 12.8392 6.57441 12.989C6.34872 13.1399 6.10884 13.2689 5.85814 13.374C5.60301 13.4807 5.33789 13.5622 5.06662 13.6173C4.7869 13.6737 4.50218 13.7021 4.21673 13.7021V13.7021ZM1.8454 10.3365C1.92889 10.5785 2.04955 10.8063 2.20312 11.0117C2.35499 11.2152 2.53718 11.3946 2.74342 11.5437C2.95141 11.6942 3.1817 11.8118 3.42607 11.8922C3.67919 11.9753 3.94414 12.0176 4.21077 12.0173C4.47827 12.0176 4.74408 11.9751 4.99795 11.8914C5.24301 11.8105 5.47388 11.6921 5.68222 11.5407C5.88885 11.3907 6.07118 11.2102 6.22292 11.0056C6.37642 10.7989 6.49671 10.5699 6.57949 10.3267C6.42966 10.3862 6.27514 10.4424 6.12026 10.4938C5.9264 10.5579 5.73237 10.6143 5.54361 10.6612C5.06168 10.7811 4.60825 10.8419 4.19594 10.8419C3.78938 10.8419 3.34354 10.7828 2.87085 10.6661C2.68435 10.6201 2.493 10.5649 2.3021 10.502C2.14836 10.4513 1.99469 10.3957 1.84534 10.3365L1.8454 10.3365Z" fill="#1C1C1C"/>
<path d="M21.0644 13.7021C20.779 13.7021 20.4943 13.6737 20.2146 13.6173C19.9433 13.5622 19.6782 13.4807 19.423 13.374C19.1723 13.2689 18.9325 13.1399 18.7068 12.989C18.4829 12.8392 18.2739 12.6684 18.0827 12.4792C17.8916 12.2899 17.7192 12.083 17.5678 11.8613C17.4155 11.6379 17.2853 11.4004 17.1791 11.152C17.0713 10.8995 16.989 10.6369 16.9334 10.3683C16.8763 10.0914 16.8476 9.80945 16.8477 9.52682C16.8476 9.24419 16.8763 8.96227 16.9333 8.68536C16.9889 8.41668 17.0712 8.15414 17.179 7.90158C17.2852 7.65326 17.4154 7.41572 17.5678 7.19233C17.7192 6.97057 17.8916 6.76367 18.0826 6.57442C18.2739 6.38517 18.4828 6.21443 18.7067 6.06457C18.9324 5.91364 19.1723 5.78473 19.423 5.67963C19.6781 5.57287 19.9432 5.49137 20.2145 5.43635C20.4942 5.37989 20.7789 5.35148 21.0644 5.35156C21.3498 5.3515 21.6345 5.37991 21.9142 5.43638C22.1855 5.49141 22.4506 5.57291 22.7057 5.67967C22.9564 5.78477 23.1963 5.91369 23.422 6.06462C23.6459 6.21448 23.8549 6.3852 24.0461 6.57446C24.2371 6.7637 24.4095 6.97062 24.5609 7.19238C24.7133 7.41578 24.8435 7.65329 24.9497 7.90162C25.0575 8.15417 25.1398 8.41671 25.1954 8.68539C25.2524 8.96229 25.2812 9.2442 25.2811 9.52682C25.2812 9.80945 25.2525 10.0914 25.1955 10.3683C25.1399 10.6369 25.0576 10.8995 24.9498 11.152C24.8436 11.4004 24.7134 11.6379 24.561 11.8613C24.4096 12.083 24.2372 12.2899 24.0461 12.4792C23.8549 12.6684 23.646 12.8392 23.4221 12.989C23.1964 13.1399 22.9565 13.2689 22.7058 13.374C22.4507 13.4807 22.1855 13.5622 21.9143 13.6173C21.6346 13.6737 21.3498 13.7021 21.0644 13.7021V13.7021ZM18.6931 10.3365C18.7765 10.5785 18.8972 10.8063 19.0508 11.0117C19.2026 11.2152 19.3848 11.3946 19.5911 11.5437C19.7991 11.6942 20.0294 11.8118 20.2737 11.8922C20.5268 11.9753 20.7918 12.0176 21.0584 12.0173C21.3259 12.0176 21.5917 11.9751 21.8456 11.8914C22.0907 11.8105 22.3215 11.6921 22.5299 11.5407C22.7365 11.3907 22.9188 11.2102 23.0706 11.0056C23.2241 10.7989 23.3444 10.5699 23.4271 10.3267C23.2773 10.3862 23.1228 10.4424 22.9679 10.4938C22.7741 10.5579 22.58 10.6143 22.3913 10.6612C21.9093 10.7811 21.4559 10.8419 21.0436 10.8419C20.637 10.8419 20.1912 10.7828 19.7185 10.6661C19.532 10.6201 19.3407 10.5649 19.1498 10.502C18.996 10.4513 18.8423 10.3957 18.693 10.3365L18.6931 10.3365Z" fill="#1C1C1C"/>
<path d="M11.2672 8.86313C11.2701 8.85532 11.2728 8.84858 11.2752 8.84226C11.3068 8.76092 11.3458 8.68256 11.3917 8.60816C11.4217 8.55949 11.4548 8.51267 11.4906 8.46797V8.50091L11.2672 8.86313ZM9.08008 8.34225L9.0802 5.39258H11.4908V5.90448C11.3528 5.94523 11.2175 5.99448 11.0857 6.05194C10.8743 6.14433 10.6727 6.25715 10.4838 6.38875C10.2957 6.51996 10.1207 6.66865 9.96131 6.83277C9.80139 6.99761 9.65752 7.17692 9.53161 7.36832C9.40456 7.56164 9.29622 7.76629 9.20799 7.97961C9.15899 8.09822 9.1163 8.21926 9.08008 8.34225V8.34225Z" fill="#1C1C1C"/>
<path d="M13.9312 13.9336L13.9201 9.31973C13.9201 9.0091 13.8095 8.70834 13.6077 8.4699C13.4059 8.23146 13.1257 8.07046 12.8159 8.01499V8.01718C12.7519 8.00744 12.6872 8.00253 12.6224 8.00251C12.2694 8.00251 11.9401 8.15019 11.6952 8.41846C11.5778 8.54749 11.4855 8.6968 11.423 8.85888C11.3578 9.02634 11.3245 9.20422 11.3247 9.38361V13.157H9.08008V9.38354C9.08009 8.6742 9.28828 7.98004 9.67948 7.38489C9.80538 7.19349 9.94924 7.0142 10.1092 6.84937C10.2686 6.68525 10.4435 6.53657 10.6316 6.40537C10.8205 6.27376 11.0221 6.16094 11.2335 6.06856C11.6709 5.87742 12.144 5.77888 12.6224 5.7793H12.625C12.6843 5.7793 12.7463 5.78183 12.8093 5.78689C13.2543 5.81494 13.69 5.92522 14.0937 6.11199C14.7125 6.39692 15.236 6.85007 15.6028 7.41826C15.9696 7.98645 16.1645 8.64608 16.1646 9.31973L16.1757 13.9336H13.9312Z" fill="#1C1C1C"/>
<path d="M13.9312 13.9336L13.9201 9.31973C13.9201 9.0091 13.8095 8.70834 13.6077 8.4699C13.4059 8.23146 13.1257 8.07046 12.8159 8.01499V8.01718C12.7519 8.00744 12.6872 8.00253 12.6224 8.00251C12.2694 8.00251 11.9401 8.15019 11.6952 8.41846C11.5778 8.54749 11.4855 8.6968 11.423 8.85888C11.3578 9.02634 11.3245 9.20422 11.3247 9.38361V13.157H9.08008V9.38354C9.08009 8.6742 9.28828 7.98004 9.67948 7.38489C9.80538 7.19349 9.94924 7.0142 10.1092 6.84937C10.2686 6.68525 10.4435 6.53657 10.6316 6.40537C10.8205 6.27376 11.0221 6.16094 11.2335 6.06856C11.6709 5.87742 12.144 5.77888 12.6224 5.7793H12.625C12.6843 5.7793 12.7463 5.78183 12.8093 5.78689C13.2543 5.81494 13.69 5.92522 14.0937 6.11199C14.7125 6.39692 15.236 6.85007 15.6028 7.41826C15.9696 7.98645 16.1645 8.64608 16.1646 9.31973L16.1757 13.9336H13.9312Z" fill="#1C1C1C"/>
<line x1="31.1094" y1="5.41797" x2="31.1094" y2="14.0299" stroke="#16A12C" stroke-width="0.5"/>
<defs>
<clipPath id="clip0_50_3484">
<rect width="11.5153" height="7.66999" fill="white" transform="translate(34.2441)"/>
</clipPath>
<clipPath id="clip1_50_3484">
<rect width="11.5153" height="7.66999" fill="white" transform="translate(34.2441)"/>
</clipPath>
</defs>
</svg>
