<svg width="40" height="40" viewBox="0 0 40 40" fill="none" xmlns="http://www.w3.org/2000/svg">
<circle cx="20" cy="20" r="20" fill="#D7F3DD"/>
<path d="M14.75 12H19.2625C19.4375 12 19.6458 12.0083 19.8875 12.025C20.1292 12.0333 20.3625 12.0583 20.5875 12.1C21.5625 12.25 22.3792 12.5875 23.0375 13.1125C23.7042 13.6292 24.2042 14.2792 24.5375 15.0625C24.8708 15.8458 25.0375 16.7167 25.0375 17.675C25.0375 19.025 24.7083 20.1875 24.05 21.1625C23.4 22.1292 22.4292 22.7875 21.1375 23.1375C20.8292 23.2208 20.5292 23.2792 20.2375 23.3125C19.9458 23.3375 19.6083 23.35 19.225 23.35H14.75V21.2375H19.1875C19.3458 21.2375 19.525 21.2292 19.725 21.2125C19.9333 21.1958 20.1292 21.1667 20.3125 21.125C20.8875 20.9917 21.3542 20.75 21.7125 20.4C22.0792 20.0417 22.3458 19.625 22.5125 19.15C22.6792 18.6667 22.7625 18.175 22.7625 17.675C22.7625 17.175 22.6792 16.6833 22.5125 16.2C22.3458 15.7167 22.0792 15.3 21.7125 14.95C21.3542 14.5917 20.8875 14.35 20.3125 14.225C20.1292 14.175 19.9333 14.1458 19.725 14.1375C19.525 14.1208 19.3458 14.1125 19.1875 14.1125H14.75V12ZM14.75 23.35L17.075 22.625L25.4125 30H22.2375L14.75 23.35ZM14.8 18.5625V16.775H26.9125V18.5625H14.8ZM19.0375 13.7875V12H26.8625V13.7875H19.0375Z" fill="#16A02C"/>
</svg>
