<svg width="17" height="11" viewBox="0 0 17 11" fill="none" xmlns="http://www.w3.org/2000/svg">
<path d="M13.6398 0.648438H2.49227C1.17049 0.648438 0.103516 1.71542 0.103516 3.0372V7.01846C0.103516 7.4564 0.461829 7.81471 0.899769 7.81471H3.28853V9.40722C3.28853 10.2831 4.00516 10.9997 4.88103 10.9997H11.2511C12.1269 10.9997 12.8436 10.2831 12.8436 9.40722V7.81471H15.2323C15.6703 7.81471 16.0286 7.4564 16.0286 7.01846V3.0372C16.0286 1.71542 14.9616 0.648438 13.6398 0.648438ZM11.2511 9.40722H4.88103V6.22221H11.2511V9.40722ZM12.8436 4.23158C12.4056 4.23158 12.0473 3.87326 12.0473 3.43532C12.0473 2.99738 12.4056 2.63907 12.8436 2.63907C13.2815 2.63907 13.6398 2.99738 13.6398 3.43532C13.6398 3.87326 13.2815 4.23158 12.8436 4.23158Z" fill="#16A02C"/>
</svg>
