<svg width="40" height="40" viewBox="0 0 40 40" fill="none" xmlns="http://www.w3.org/2000/svg">
<circle cx="20" cy="20" r="20" fill="#D7F3DD"/>
<path d="M27.017 15.8075H12.2245C10.4705 15.8075 9.05469 17.2121 9.05469 18.9521V25.2415H13.2811V29.4343H25.9604V25.2415H30.1868V18.9521C30.1868 17.2121 28.7709 15.8075 27.017 15.8075ZM23.8471 27.3379H15.3943V22.0968H23.8471V27.3379ZM27.017 20.0004C26.4358 20.0004 25.9604 19.5287 25.9604 18.9521C25.9604 18.3756 26.4358 17.9039 27.017 17.9039C27.5981 17.9039 28.0736 18.3756 28.0736 18.9521C28.0736 19.5287 27.5981 20.0004 27.017 20.0004ZM25.9604 10.5664H13.2811V14.7593H25.9604V10.5664Z" fill="#16A02C"/>
</svg>
