<svg width="19" height="19" viewBox="0 0 19 19" fill="none" xmlns="http://www.w3.org/2000/svg">
<path d="M13.9318 12.2529H13.0514L12.7393 11.9522C14.0767 10.3928 14.7677 8.26538 14.3888 6.00429C13.865 2.90782 11.2794 0.435094 8.15878 0.0563887C3.44448 -0.522807 -0.523114 3.44246 0.0564218 8.154C0.435349 11.2727 2.90952 13.8568 6.00781 14.3804C8.27023 14.7591 10.3989 14.0685 11.9592 12.7319L12.2601 13.0437V13.9237L16.9967 18.6575C17.4536 19.1142 18.2003 19.1142 18.6573 18.6575C19.1142 18.2008 19.1142 17.4545 18.6573 16.9979L13.9318 12.2529ZM7.24489 12.2529C4.46981 12.2529 2.22968 10.0141 2.22968 7.24065C2.22968 4.46719 4.46981 2.22837 7.24489 2.22837C10.02 2.22837 12.2601 4.46719 12.2601 7.24065C12.2601 10.0141 10.02 12.2529 7.24489 12.2529Z" fill="#16A02C"/>
</svg>
