<svg width="20" height="20" viewBox="0 0 20 20" fill="none" xmlns="http://www.w3.org/2000/svg">
<path d="M9.89823 0C7.94054 0 6.02682 0.577058 4.39907 1.6582C2.77131 2.73935 1.50264 4.27602 0.753462 6.0739C0.00428877 7.87177 -0.191729 9.85011 0.190196 11.7587C0.572121 13.6673 1.51484 15.4205 2.89913 16.7966C4.28342 18.1726 6.04711 19.1097 7.96718 19.4893C9.88725 19.869 11.8774 19.6741 13.6861 18.9294C15.4948 18.1847 17.0407 16.9236 18.1283 15.3056C19.2159 13.6875 19.7965 11.7852 19.7965 9.83919C19.7934 7.2306 18.7496 4.7297 16.894 2.88514C15.0384 1.04059 12.5225 0.00299839 9.89823 0V0Z" fill="#16A02C"/>
<path d="M16.4515 7.00832L9.21815 14.6548C9.11491 14.7642 8.99226 14.8511 8.85722 14.9103C8.72219 14.9695 8.57743 15 8.43124 15C8.28504 15 8.14026 14.9695 8.00523 14.9103C7.8702 14.8511 7.74755 14.7642 7.6443 14.6548L4.02762 10.8316C3.92427 10.7223 3.8423 10.5926 3.78638 10.4499C3.73045 10.3072 3.70166 10.1542 3.70166 9.9997C3.70166 9.84521 3.73045 9.69222 3.78638 9.54949C3.8423 9.40675 3.92427 9.27706 4.02762 9.16782C4.13096 9.05858 4.25364 8.97192 4.38866 8.9128C4.52369 8.85368 4.66841 8.82325 4.81455 8.82325C4.9607 8.82325 5.1054 8.85368 5.24042 8.9128C5.37544 8.97192 5.49813 9.05858 5.60147 9.16782L8.43177 12.1598L14.8788 5.34457C15.0875 5.12395 15.3705 5 15.6657 5C15.9608 5 16.2439 5.12395 16.4526 5.34457C16.6613 5.5652 16.7786 5.86444 16.7786 6.17645C16.7786 6.48847 16.6613 6.78769 16.4526 7.00832H16.4515Z" fill="#EFF3EF"/>
</svg>
