<svg width="40" height="40" viewBox="0 0 40 40" fill="none" xmlns="http://www.w3.org/2000/svg">
<circle cx="20" cy="20" r="20" fill="#D7F3DD"/>
<path d="M27.9733 25.4785C26.9627 25.4785 26.0585 25.8774 25.3671 26.5024L15.8861 20.984C15.9526 20.6782 16.0057 20.3723 16.0057 20.0532C16.0057 19.734 15.9526 19.4282 15.8861 19.1224L25.2607 13.6572C25.9787 14.322 26.9228 14.7343 27.9733 14.7343C30.1807 14.7343 31.9625 12.9524 31.9625 10.7451C31.9625 8.5377 30.1807 6.75586 27.9733 6.75586C25.766 6.75586 23.9841 8.5377 23.9841 10.7451C23.9841 11.0642 24.0373 11.37 24.1038 11.6759L14.7292 17.1411C14.0111 16.4762 13.067 16.064 12.0165 16.064C9.80919 16.064 8.02734 17.8458 8.02734 20.0532C8.02734 22.2605 9.80919 24.0424 12.0165 24.0424C13.067 24.0424 14.0111 23.6302 14.7292 22.9653L24.1969 28.497C24.1304 28.7762 24.0905 29.0688 24.0905 29.3613C24.0905 31.5022 25.8325 33.2441 27.9733 33.2441C30.1142 33.2441 31.8562 31.5022 31.8562 29.3613C31.8562 27.2204 30.1142 25.4785 27.9733 25.4785Z" fill="#16A02C"/>
</svg>
