<svg width="18" height="18" viewBox="0 0 18 18" fill="none" xmlns="http://www.w3.org/2000/svg">
<path d="M9.00002 3.67043e-05C13.9706 3.67043e-05 18 4.02948 18 9.00002C18 13.9706 13.9706 18 9.00002 18C4.02948 18 3.73308e-05 13.9706 3.73308e-05 9.00002C-0.014106 4.04357 3.99238 0.0141801 8.94878 3.67043e-05C8.96586 -1.22348e-05 8.98294 -1.22348e-05 9.00002 3.67043e-05Z" fill="#1B85FB"/>
<path d="M13.3151 6.01001C13.7721 6.40157 13.7752 7.10752 13.3216 7.50307L9.12614 11.1616C8.21566 11.9556 6.85954 11.958 5.94624 11.1673L4.68502 10.0753C4.22871 9.68024 4.23056 8.97183 4.68892 8.57914C5.05938 8.26176 5.6061 8.26251 5.97568 8.58092L6.43097 8.97317C7.06665 9.52083 8.0082 9.518 8.64058 8.96655L12.0245 6.01565C12.3937 5.69373 12.9431 5.69133 13.3151 6.01001Z" fill="white"/>
</svg>
