<svg width="34" height="34" viewBox="0 0 34 34" fill="none" xmlns="http://www.w3.org/2000/svg">
<g clip-path="url(#clip0_385_1025)">
<path d="M25.6693 13.9957C25.6047 14.1988 25.5552 14.4078 25.4733 14.6042C25.1664 15.3391 24.6 15.8658 23.9346 16.3068C23.1484 16.8272 22.2739 17.1653 21.3646 17.4291C21.3308 17.4365 21.2964 17.4414 21.2619 17.4436C21.2619 17.2053 21.2541 16.974 21.2619 16.7392C21.3077 15.5692 21.3601 14.3991 21.4067 13.2291C21.4264 12.7325 21.2917 12.5639 20.781 12.45C18.894 12.0266 16.9857 11.8881 15.059 12.1147C14.3376 12.1996 13.6226 12.3389 12.9077 12.4668C12.4886 12.5424 12.3167 12.7576 12.3315 13.1665C12.3724 14.3174 12.4256 15.4678 12.469 16.6183C12.4792 16.8895 12.469 17.1614 12.469 17.4792C11.9599 17.2925 11.452 17.127 10.963 16.9215C10.1003 16.5584 9.31825 16.0798 8.72486 15.3614C8.40811 14.9775 8.18548 14.551 8.10486 14.0634C8.09584 14.0262 8.0838 13.9897 8.06885 13.9542V13.4064C8.11632 13.2319 8.1507 13.0542 8.21372 12.8832C8.51492 12.0493 9.13532 11.467 9.88545 10.9979C11.0706 10.261 12.3949 9.87362 13.7671 9.62005C15.3778 9.32187 17.0021 9.27374 18.6325 9.43183C19.9662 9.56135 21.2696 9.82314 22.5096 10.3252C22.8052 10.4426 23.0932 10.5765 23.3723 10.7263C24.4965 11.3387 25.4111 12.1198 25.6698 13.4099L25.6693 13.9957Z" fill="#16A12C"/>
<path d="M18.3032 6.8085C18.4006 6.83471 18.4989 6.85976 18.5959 6.88676C19.2997 7.08672 19.8322 7.71321 19.8674 8.40544C17.8801 8.09702 15.8537 8.09795 13.8667 8.40818C13.9101 7.91513 14.1315 7.53243 14.5039 7.22016C14.7732 6.99398 15.1018 6.89341 15.4386 6.80811L16.8709 6.8083L18.3032 6.8085Z" fill="#16A12C"/>
<path d="M20.0691 15.9781C20.047 16.4758 20.0245 17.159 19.9844 17.8407C19.898 19.3023 18.6208 20.5044 17.0714 20.5928C15.4918 20.6828 14.0521 19.6396 13.8106 18.1804C13.7132 17.5934 13.7173 16.9884 13.6879 16.3913C13.6469 15.4944 13.6203 14.5967 13.5835 13.6994C13.5786 13.582 13.5864 13.5136 13.7378 13.4842C15.8011 13.0847 17.9272 13.0847 19.9905 13.4842C20.1297 13.5108 20.1636 13.559 20.1575 13.6885C20.1264 14.3881 20.1031 15.0906 20.0691 15.9781Z" fill="#16A12C"/>
<path d="M20.5041 23.52V26.7973H13.2401V23.5267C14.2141 24.6223 15.4091 25.2003 16.868 25.2007C18.3269 25.2011 19.5256 24.6263 20.5041 23.52Z" fill="#16A12C"/>
<path d="M14.5653 21.1494C16.1122 21.9731 17.6346 21.9747 19.179 21.1494C19.2863 21.4319 19.3923 21.709 19.4962 21.9868C19.574 22.1942 19.7417 22.4216 19.6984 22.6047C19.655 22.7878 19.4078 22.9311 19.2445 23.0868C18.0704 24.2095 16.237 24.3586 14.8964 23.421C14.5915 23.2077 14.3386 22.9264 14.0672 22.6708C14.0523 22.6522 14.0421 22.6304 14.0373 22.6074C14.0326 22.5843 14.0334 22.5605 14.0398 22.5378C14.2093 22.0788 14.3848 21.6229 14.5653 21.1494Z" fill="#16A12C"/>
<path d="M21.7551 23.1103C22.6399 23.032 23.4355 23.183 24.0726 23.8107C24.3648 24.0953 24.5737 24.4483 24.6783 24.8344C24.791 25.2492 24.8966 25.6657 24.9951 26.0838C25.0822 26.4513 24.8179 26.7972 24.4246 26.8023C23.5398 26.8136 22.6546 26.8058 21.7551 26.8058V23.1103Z" fill="#16A12C"/>
<path d="M11.9928 23.0978V26.7922C11.9477 26.7996 11.9022 26.8045 11.8565 26.8071C11.038 26.8071 10.2196 26.8071 9.40436 26.8039C8.91327 26.8012 8.65259 26.4862 8.76186 26.0319C8.86417 25.6081 8.96279 25.1831 9.08925 24.7656C9.23531 24.2903 9.5365 23.8721 9.94881 23.5721C10.3611 23.2721 10.8629 23.106 11.381 23.0982C11.5758 23.095 11.773 23.0978 11.9928 23.0978Z" fill="#16A12C"/>
</g>
<defs>
<clipPath id="clip0_385_1025">
<rect width="17.5972" height="20" fill="white" transform="translate(8.07227 6.80859)"/>
</clipPath>
</defs>
</svg>
