<svg width="34" height="34" viewBox="0 0 34 34" fill="none" xmlns="http://www.w3.org/2000/svg">
<path d="M23.5454 10.9346C22.6866 10.6714 21.7427 10.5586 20.8374 10.5586C19.3287 10.5586 17.7039 10.8594 16.582 11.6865C15.4602 10.8594 13.8354 10.5586 12.3267 10.5586C10.8179 10.5586 9.19316 10.8594 8.07129 11.6865V22.7025C8.07129 22.8905 8.26472 23.0784 8.45814 23.0784C8.53551 23.0784 8.5742 23.0409 8.65157 23.0409C9.69607 22.5521 11.2048 22.2137 12.3267 22.2137C13.8354 22.2137 15.4602 22.5145 16.582 23.3416C17.6265 22.7025 19.5221 22.2137 20.8374 22.2137C22.114 22.2137 23.4293 22.4393 24.5125 23.0033C24.5899 23.0409 24.6286 23.0409 24.7059 23.0409C24.8994 23.0409 25.0928 22.8529 25.0928 22.6649V11.6865C24.6286 11.3481 24.1257 11.1226 23.5454 10.9346ZM23.5454 21.0858C22.6943 20.8226 21.7659 20.7098 20.8374 20.7098C19.5221 20.7098 17.6265 21.1986 16.582 21.8377V13.1904C17.6265 12.5512 19.5221 12.0625 20.8374 12.0625C21.7659 12.0625 22.6943 12.1753 23.5454 12.4385V21.0858Z" fill="#16A12C"/>
<path d="M20.8381 15.0703C21.519 15.0703 22.1766 15.138 22.7724 15.2658V14.1228C22.1612 14.0101 21.5035 13.9424 20.8381 13.9424C19.5228 13.9424 18.3313 14.1604 17.3564 14.5665V15.8147C18.2307 15.3335 19.4454 15.0703 20.8381 15.0703Z" fill="#16A12C"/>
<path d="M17.3564 16.5665V17.8147C18.2307 17.3335 19.4454 17.0703 20.8381 17.0703C21.519 17.0703 22.1766 17.138 22.7724 17.2658V16.1228C22.1612 16.0101 21.5035 15.9424 20.8381 15.9424C19.5228 15.9424 18.3313 16.168 17.3564 16.5665Z" fill="#16A12C"/>
<path d="M20.8381 17.9502C19.5228 17.9502 18.3313 18.1683 17.3564 18.5743V19.8225C18.2307 19.3413 19.4454 19.0781 20.8381 19.0781C21.519 19.0781 22.1766 19.1458 22.7724 19.2736V18.1307C22.1612 18.0104 21.5035 17.9502 20.8381 17.9502Z" fill="#16A12C"/>
</svg>
