<svg width="33" height="33" viewBox="0 0 33 33" fill="none" xmlns="http://www.w3.org/2000/svg">
<circle cx="16.5" cy="16.5" r="16.5" fill="#FFF536"/>
<g clip-path="url(#clip0_20_92)">
<path d="M14.1317 25.2627L11.6817 27.2982L11.8815 26.3241L10.9199 26.2242L13.5248 24.3136L14.1317 25.2627Z" fill="#077D1A" style="mix-blend-mode:multiply"/>
<path d="M23.8398 20.0572C23.8398 20.0572 23.2978 20.4993 22.1415 18.5288C20.9851 16.5582 14.529 10.3719 8.58244 9.62509L6 19.5128C6 19.5128 11.8117 21.3485 13.9171 26.0388C14.0156 26.1532 14.1453 26.2365 14.2903 26.2787C14.4352 26.3208 14.5893 26.3199 14.7338 26.2761L23.8398 20.0572Z" fill="#16A02C"/>
<path d="M23.9423 19.3428C23.9423 19.3428 25.3709 12.6494 19.2545 6.49805L15.9902 11.6629C15.9902 11.6629 21.6996 14.6874 23.9099 19.4452" fill="#16A02C"/>
<path d="M14.7343 26.2767L23.8328 20.0628C23.7854 20.0928 23.4757 20.2452 22.8862 19.5908L13.7578 25.7172C13.8103 25.8246 13.8627 25.9295 13.9127 26.0419C14.0119 26.1568 14.1425 26.2403 14.2884 26.282C14.4344 26.3237 14.5894 26.3218 14.7343 26.2767V26.2767Z" fill="#077D1A" style="mix-blend-mode:multiply"/>
<path d="M24.1967 19.9129C24.1801 19.9098 24.1652 19.901 24.1544 19.888C24.1436 19.875 24.1377 19.8586 24.1377 19.8417C24.1377 19.8248 24.1436 19.8085 24.1544 19.7955C24.1652 19.7825 24.1801 19.7737 24.1967 19.7705C24.2267 19.7705 27.0839 19.5033 28.3651 16.9783C28.3693 16.9701 28.3751 16.9627 28.3822 16.9568C28.3893 16.9508 28.3975 16.9463 28.4063 16.9435C28.4151 16.9407 28.4244 16.9397 28.4336 16.9405C28.4428 16.9414 28.4518 16.944 28.46 16.9483C28.4685 16.9523 28.476 16.958 28.4823 16.965C28.4885 16.9719 28.4933 16.9801 28.4963 16.9889C28.4993 16.9978 28.5005 17.0071 28.4999 17.0165C28.4992 17.0258 28.4967 17.0349 28.4925 17.0432C27.1738 19.6407 24.2467 19.9104 24.2092 19.9129H24.1967Z" fill="#077D1A" style="mix-blend-mode:multiply"/>
<path d="M24.1247 19.449C24.1115 19.4492 24.0986 19.4455 24.0875 19.4384C24.0764 19.4313 24.0676 19.4211 24.0623 19.4091C24.058 19.4007 24.0555 19.3916 24.0549 19.3823C24.0542 19.373 24.0554 19.3636 24.0585 19.3548C24.0615 19.3459 24.0663 19.3378 24.0725 19.3308C24.0787 19.3238 24.0863 19.3182 24.0947 19.3142C24.7717 18.9579 25.3558 18.4479 25.7999 17.8251C26.2441 17.2022 26.536 16.4839 26.6522 15.7277C26.6534 15.7185 26.6565 15.7096 26.6612 15.7016C26.6659 15.6936 26.6721 15.6866 26.6796 15.681C26.687 15.6754 26.6955 15.6714 26.7045 15.6691C26.7135 15.6668 26.7229 15.6664 26.7321 15.6678C26.7416 15.6687 26.7507 15.6715 26.759 15.6761C26.7674 15.6807 26.7747 15.6869 26.7805 15.6944C26.7863 15.7018 26.7906 15.7104 26.793 15.7196C26.7954 15.7288 26.796 15.7383 26.7946 15.7477C26.6729 16.5266 26.3708 17.2662 25.9124 17.9075C25.4541 18.5489 24.8521 19.0742 24.1547 19.4416C24.1455 19.4465 24.1352 19.4491 24.1247 19.449Z" fill="#077D1A" style="mix-blend-mode:multiply"/>
<path d="M28.6797 16.915C28.6802 16.9581 28.6678 17.0003 28.6443 17.0364C28.6207 17.0724 28.5869 17.1007 28.5473 17.1175C28.5076 17.1343 28.4639 17.139 28.4215 17.1309C28.3792 17.1228 28.3403 17.1023 28.3096 17.072C28.279 17.0417 28.2581 17.003 28.2495 16.9608C28.2409 16.9186 28.245 16.8748 28.2614 16.8349C28.2778 16.7951 28.3056 16.761 28.3414 16.737C28.3772 16.713 28.4193 16.7002 28.4624 16.7002C28.5196 16.7002 28.5745 16.7227 28.6152 16.763C28.6558 16.8032 28.679 16.8578 28.6797 16.915V16.915Z" fill="#16A02C"/>
<path d="M26.9395 15.6743C26.9395 15.7173 26.9267 15.7593 26.9028 15.795C26.879 15.8308 26.845 15.8586 26.8053 15.8751C26.7656 15.8915 26.7219 15.8958 26.6798 15.8874C26.6376 15.879 26.5989 15.8583 26.5685 15.828C26.5381 15.7976 26.5174 15.7588 26.5091 15.7167C26.5007 15.6746 26.505 15.6309 26.5214 15.5912C26.5379 15.5515 26.5657 15.5175 26.6014 15.4936C26.6372 15.4698 26.6792 15.457 26.7222 15.457C26.7798 15.457 26.8351 15.4799 26.8758 15.5207C26.9166 15.5614 26.9395 15.6167 26.9395 15.6743Z" fill="#16A02C"/>
</g>
<defs>
<clipPath id="clip0_20_92">
<rect width="23" height="22" fill="white" transform="translate(6 5)"/>
</clipPath>
</defs>
</svg>
