<svg width="34" height="34" viewBox="0 0 34 34" fill="none" xmlns="http://www.w3.org/2000/svg">
<path d="M23.1262 14.3334L21.3277 12.5449C21.3832 12.214 21.4703 11.9067 21.5812 11.6388C21.6446 11.497 21.6763 11.3473 21.6763 11.1818C21.6763 10.5279 21.1455 10 20.4879 10C19.1886 10 18.0398 10.6224 17.3188 11.5758H13.3575C10.949 11.5758 9 13.514 9 15.9092C9 18.3044 10.9807 24.97 10.9807 24.97H15.3382V23.3942H16.9227V24.97H21.2802L22.6112 20.5656L24.8454 19.825V14.3334H23.1262ZM17.715 15.5153H13.7536V13.9395H17.715V15.5153ZM20.0918 17.091C19.656 17.091 19.2995 16.7365 19.2995 16.3031C19.2995 15.8698 19.656 15.5153 20.0918 15.5153C20.5275 15.5153 20.884 15.8698 20.884 16.3031C20.884 16.7365 20.5275 17.091 20.0918 17.091Z" fill="#16A12C"/>
</svg>
