<svg width="34" height="34" viewBox="0 0 34 34" fill="none" xmlns="http://www.w3.org/2000/svg">
<g clip-path="url(#clip0_385_1028)">
<path d="M22.0707 22.0944H11.3571V20.3187H22.0707V22.0944ZM22.0707 18.5429H11.3571V16.7672H22.0707V18.5429ZM22.0707 14.9914H11.3571V13.2157H22.0707V14.9914ZM8.67871 26.5337L10.0179 25.2019L11.3571 26.5337L12.6963 25.2019L14.0355 26.5337L15.3747 25.2019L16.7139 26.5337L18.0531 25.2019L19.3923 26.5337L20.7315 25.2019L22.0707 26.5337L23.4099 25.2019L24.7491 26.5337V8.77637L23.4099 10.1082L22.0707 8.77637L20.7315 10.1082L19.3923 8.77637L18.0531 10.1082L16.7139 8.77637L15.3747 10.1082L14.0355 8.77637L12.6963 10.1082L11.3571 8.77637L10.0179 10.1082L8.67871 8.77637V26.5337Z" fill="#16A12C"/>
</g>
<defs>
<clipPath id="clip0_385_1028">
<rect width="21.4272" height="21.3088" fill="white" transform="translate(6 7)"/>
</clipPath>
</defs>
</svg>
