<svg width="248" height="146" viewBox="0 0 248 146" fill="none" xmlns="http://www.w3.org/2000/svg">
<path d="M25.9249 64.5989L18.1138 71.0883L18.7508 67.983L15.6853 67.6645L23.9901 61.5732L25.9249 64.5989Z" fill="#D6CD26"/>
<path d="M56.8754 48.0036C56.8754 48.0036 55.1476 49.4129 51.461 43.1306C47.7744 36.8482 27.1916 17.1254 8.23312 14.7446L0 46.2678C0 46.2678 18.5285 52.1201 25.2408 67.0735C25.5549 67.4383 25.9681 67.704 26.4304 67.8383C26.8926 67.9725 27.3839 67.9697 27.8445 67.8299L56.8754 48.0036Z" fill="#FFF536"/>
<path d="M57.2014 45.7275C57.2014 45.7275 61.7559 24.3883 42.256 4.77686L31.8491 21.2431C31.8491 21.2431 50.0512 30.8856 57.0979 46.054" fill="#FFF536"/>
<path d="M27.846 67.8314L56.853 48.021C56.7017 48.1165 55.7144 48.6023 53.8352 46.5161L24.7327 66.0479C24.8999 66.3903 25.0671 66.7247 25.2263 67.083C25.5426 67.4494 25.959 67.7154 26.4244 67.8484C26.8898 67.9813 27.3839 67.9754 27.846 67.8314Z" fill="#D6CD26" style="mix-blend-mode:multiply"/>
<path d="M81.5786 115.102H62.3096C59.5068 115.102 56.996 114.547 54.7771 113.437C52.6167 112.27 50.8066 110.781 49.3468 108.971C47.887 107.16 46.7776 105.117 46.0185 102.84C45.2594 100.504 44.8799 98.1683 44.8799 95.8326V83.5705C44.8799 81.2349 45.2594 78.9284 46.0185 76.6512C46.7776 74.3156 47.887 72.2427 49.3468 70.4326C50.8066 68.6224 52.6167 67.1627 54.7771 66.0532C56.996 64.8854 59.5068 64.3015 62.3096 64.3015H89.4614L81.6662 75.7753H73.871C72.3528 75.7753 70.8639 75.8921 69.4041 76.1257C67.9443 76.3009 66.6305 76.6804 65.4627 77.2643C64.2949 77.8482 63.3314 78.6949 62.5723 79.8043C61.8716 80.8553 61.5213 82.2567 61.5213 84.0085V95.3947C61.5213 97.1464 61.8716 98.577 62.5723 99.6864C63.3314 100.737 64.2949 101.555 65.4627 102.139C66.6305 102.723 67.9443 103.131 69.4041 103.365C70.8639 103.54 72.3528 103.628 73.871 103.628H89.4614L81.5786 115.102Z" fill="#FFF536"/>
<path d="M93.5485 115.102H122.014L130.072 103.628H110.278V64.3015H93.5485V115.102Z" fill="#FFF536"/>
<path d="M134.177 64.3015V115.102H150.906V64.3015H134.177Z" fill="#FFF536"/>
<path d="M193.2 115.102H173.931C171.128 115.102 168.617 114.547 166.398 113.437C164.238 112.27 162.428 110.781 160.968 108.971C159.508 107.16 158.399 105.117 157.64 102.84C156.881 100.504 156.501 98.1683 156.501 95.8326V83.5705C156.501 81.2349 156.881 78.9284 157.64 76.6512C158.399 74.3156 159.508 72.2427 160.968 70.4326C162.428 68.6224 164.238 67.1627 166.398 66.0532C168.617 64.8854 171.128 64.3015 173.931 64.3015H201.083L193.288 75.7753H185.492C183.974 75.7753 182.485 75.8921 181.025 76.1257C179.566 76.3009 178.252 76.6804 177.084 77.2643C175.916 77.8482 174.953 78.6949 174.194 79.8043C173.493 80.8553 173.143 82.2567 173.143 84.0085V95.3947C173.143 97.1464 173.493 98.577 174.194 99.6864C174.953 100.737 175.916 101.555 177.084 102.139C178.252 102.723 179.566 103.131 181.025 103.365C182.485 103.54 183.974 103.628 185.492 103.628H201.083L193.2 115.102Z" fill="#FFF536"/>
<path d="M231.271 115.102H248L235.475 89.7016L248 64.3015H231.271L221.986 83.2202L221.899 83.1326V64.3015H205.17V115.102H221.899V96.2706H221.986L231.271 115.102Z" fill="#FFF536"/>
<path d="M93.067 145.136C92.3733 145.136 91.6813 145.066 91.0014 144.927C90.3421 144.792 89.6976 144.592 89.0775 144.33C88.4681 144.072 87.8851 143.756 87.3365 143.385C86.7923 143.018 86.2843 142.598 85.8196 142.134C85.3552 141.669 84.9362 141.161 84.5681 140.617C84.1977 140.069 83.8813 139.486 83.6232 138.876C83.3611 138.256 83.1611 137.612 83.026 136.952C82.8873 136.273 82.8175 135.581 82.8176 134.887C82.8175 134.193 82.8872 133.501 83.0258 132.821C83.161 132.162 83.361 131.517 83.623 130.897C83.8812 130.288 84.1976 129.705 84.568 129.156C84.9361 128.612 85.3551 128.104 85.8195 127.64C86.2842 127.175 86.7922 126.756 87.3364 126.388C87.8849 126.018 88.468 125.701 89.0774 125.443C89.6975 125.181 90.3419 124.981 91.0013 124.846C91.6812 124.707 92.3732 124.638 93.067 124.638C93.7608 124.638 94.4528 124.708 95.1327 124.846C95.792 124.981 96.4365 125.181 97.0566 125.443C97.666 125.701 98.249 126.018 98.7976 126.388C99.3418 126.756 99.8497 127.175 100.314 127.64C100.779 128.104 101.198 128.612 101.566 129.157C101.936 129.705 102.253 130.288 102.511 130.897C102.773 131.517 102.973 132.162 103.108 132.821C103.247 133.501 103.317 134.193 103.316 134.887C103.317 135.581 103.247 136.273 103.108 136.952C102.973 137.612 102.773 138.256 102.511 138.876C102.253 139.486 101.936 140.069 101.566 140.617C101.198 141.161 100.779 141.669 100.315 142.134C99.8499 142.598 99.3419 143.018 98.7977 143.385C98.2492 143.756 97.6661 144.072 97.0567 144.33C96.4366 144.592 95.7922 144.792 95.1328 144.927C94.4529 145.066 93.7609 145.136 93.067 145.136ZM87.3031 136.874C87.5061 137.468 87.7994 138.027 88.1727 138.532C88.5418 139.031 88.9846 139.472 89.4859 139.838C89.9915 140.207 90.5512 140.496 91.1452 140.693C91.7605 140.897 92.4045 141.001 93.0525 141C93.7028 141.001 94.3488 140.896 94.9659 140.691C95.5616 140.492 96.1227 140.202 96.6291 139.83C97.1314 139.462 97.5746 139.019 97.9434 138.517C98.3165 138.009 98.6089 137.447 98.8101 136.85C98.4459 136.996 98.0703 137.134 97.6939 137.26C97.2227 137.418 96.751 137.556 96.2922 137.671C95.1208 137.966 94.0187 138.115 93.0165 138.115C92.0283 138.115 90.9446 137.97 89.7957 137.683C89.3424 137.57 88.8773 137.435 88.4132 137.281C88.0395 137.156 87.666 137.02 87.303 136.874L87.3031 136.874Z" fill="#FFF536"/>
<path d="M134.022 145.134C133.328 145.134 132.636 145.064 131.957 144.926C131.297 144.791 130.653 144.591 130.033 144.329C129.423 144.071 128.84 143.754 128.292 143.384C127.747 143.016 127.239 142.597 126.775 142.132C126.31 141.668 125.891 141.16 125.523 140.615C125.153 140.067 124.836 139.484 124.578 138.874C124.316 138.255 124.116 137.61 123.981 136.951C123.842 136.271 123.773 135.579 123.773 134.885C123.773 134.191 123.842 133.499 123.981 132.82C124.116 132.16 124.316 131.516 124.578 130.896C124.836 130.286 125.153 129.703 125.523 129.155C125.891 128.61 126.31 128.102 126.775 127.638C127.239 127.173 127.747 126.754 128.291 126.386C128.84 126.016 129.423 125.7 130.032 125.442C130.653 125.179 131.297 124.979 131.956 124.844C132.636 124.706 133.328 124.636 134.022 124.636C134.716 124.636 135.408 124.706 136.088 124.844C136.747 124.98 137.392 125.18 138.012 125.442C138.621 125.7 139.204 126.016 139.753 126.387C140.297 126.754 140.805 127.173 141.27 127.638C141.734 128.103 142.153 128.61 142.521 129.155C142.891 129.703 143.208 130.286 143.466 130.896C143.728 131.516 143.928 132.16 144.063 132.82C144.202 133.499 144.272 134.191 144.272 134.885C144.272 135.579 144.202 136.271 144.063 136.951C143.928 137.61 143.728 138.255 143.466 138.874C143.208 139.484 142.892 140.067 142.521 140.615C142.153 141.16 141.734 141.668 141.27 142.132C140.805 142.597 140.297 143.016 139.753 143.384C139.204 143.754 138.621 144.071 138.012 144.329C137.392 144.591 136.747 144.791 136.088 144.926C135.408 145.064 134.716 145.134 134.022 145.134ZM128.258 136.873C128.461 137.467 128.754 138.026 129.128 138.53C129.497 139.03 129.94 139.47 130.441 139.836C130.947 140.205 131.506 140.494 132.1 140.691C132.716 140.895 133.36 140.999 134.008 140.998C134.658 140.999 135.304 140.895 135.921 140.689C136.517 140.491 137.078 140.2 137.584 139.828C138.086 139.46 138.53 139.017 138.898 138.515C139.272 138.008 139.564 137.446 139.765 136.849C139.401 136.995 139.025 137.133 138.649 137.259C138.178 137.416 137.706 137.555 137.247 137.67C136.076 137.964 134.974 138.113 133.972 138.113C132.983 138.113 131.9 137.968 130.751 137.682C130.297 137.569 129.832 137.433 129.368 137.279C128.995 137.154 128.621 137.018 128.258 136.873L128.258 136.873Z" fill="#FFF536"/>
<path d="M110.204 133.072C110.211 133.054 110.218 133.037 110.224 133.022C110.3 132.827 110.395 132.638 110.507 132.46C110.58 132.343 110.66 132.23 110.747 132.123V132.202L110.204 133.072ZM104.888 131.821L104.888 124.732H110.748V125.962C110.412 126.06 110.083 126.178 109.763 126.317C109.249 126.539 108.759 126.81 108.3 127.126C107.843 127.441 107.418 127.799 107.03 128.193C106.641 128.589 106.292 129.02 105.986 129.48C105.677 129.945 105.414 130.436 105.199 130.949C105.08 131.234 104.976 131.525 104.888 131.821Z" fill="#FFF536"/>
<path d="M116.677 145.264L116.65 134.176C116.65 133.43 116.381 132.707 115.891 132.134C115.4 131.561 114.719 131.174 113.966 131.041V131.046C113.81 131.023 113.653 131.011 113.496 131.011C112.638 131.011 111.837 131.366 111.242 132.01C110.957 132.32 110.732 132.679 110.58 133.069C110.422 133.471 110.341 133.899 110.341 134.33V143.398H104.885V134.33C104.886 132.625 105.392 130.957 106.342 129.526C106.648 129.067 106.998 128.636 107.387 128.24C107.774 127.845 108.2 127.488 108.657 127.173C109.116 126.856 109.606 126.585 110.12 126.363C111.183 125.904 112.333 125.667 113.496 125.668H113.502C113.646 125.668 113.797 125.674 113.95 125.686C115.032 125.754 116.091 126.019 117.072 126.468C118.576 127.152 119.848 128.241 120.74 129.607C121.632 130.972 122.105 132.557 122.106 134.176L122.133 145.264H116.677Z" fill="#FFF536"/>
<path d="M116.677 145.264L116.65 134.176C116.65 133.43 116.381 132.707 115.891 132.134C115.4 131.561 114.719 131.174 113.966 131.041V131.046C113.81 131.023 113.653 131.011 113.496 131.011C112.638 131.011 111.837 131.366 111.242 132.01C110.957 132.32 110.732 132.679 110.58 133.069C110.422 133.471 110.341 133.899 110.341 134.33V143.398H104.885V134.33C104.886 132.625 105.392 130.957 106.342 129.526C106.648 129.067 106.998 128.636 107.387 128.24C107.774 127.845 108.2 127.488 108.657 127.173C109.116 126.856 109.606 126.585 110.12 126.363C111.183 125.904 112.333 125.667 113.496 125.668H113.502C113.646 125.668 113.797 125.674 113.95 125.686C115.032 125.754 116.091 126.019 117.072 126.468C118.576 127.152 119.848 128.241 120.74 129.607C121.632 130.972 122.105 132.557 122.106 134.176L122.133 145.264H116.677Z" fill="#FFF536"/>
<path d="M56.5724 139.63H48.76L47.3208 143.614H44.8538L51.3298 125.804H54.0282L60.4786 143.614H58.0115L56.5724 139.63ZM55.9042 137.729L52.6662 128.683L49.4281 137.729H55.9042Z" fill="white"/>
<path d="M70.1626 129.274C71.8758 129.274 73.2636 129.796 74.3258 130.841C75.388 131.869 75.9191 133.36 75.9191 135.313V143.614H73.6062V135.647C73.6062 134.242 73.255 133.171 72.5526 132.435C71.8501 131.681 70.8907 131.304 69.6743 131.304C68.4408 131.304 67.4556 131.689 66.719 132.46C65.9994 133.231 65.6396 134.354 65.6396 135.827V143.614H63.301V129.531H65.6396V131.535C66.1022 130.816 66.7275 130.259 67.5156 129.865C68.3208 129.471 69.2032 129.274 70.1626 129.274Z" fill="white"/>
<path d="M162.852 131.468C162.852 132.959 162.338 134.201 161.31 135.194C160.3 136.171 158.749 136.659 156.659 136.659H153.215V144.138H150.877V126.226H156.659C158.681 126.226 160.214 126.714 161.259 127.69C162.321 128.667 162.852 129.926 162.852 131.468ZM156.659 134.732C157.961 134.732 158.92 134.449 159.537 133.884C160.154 133.318 160.462 132.513 160.462 131.468C160.462 129.258 159.195 128.153 156.659 128.153H153.215V134.732H156.659Z" fill="white"/>
<path d="M168.097 132.342C168.509 131.537 169.091 130.911 169.845 130.466C170.616 130.02 171.55 129.798 172.646 129.798V132.213H172.029C169.408 132.213 168.097 133.635 168.097 136.479V144.138H165.759V130.055H168.097V132.342Z" fill="white"/>
<path d="M181.488 144.369C180.168 144.369 178.969 144.069 177.89 143.469C176.828 142.87 175.988 142.022 175.371 140.925C174.772 139.812 174.472 138.527 174.472 137.071C174.472 135.631 174.78 134.364 175.397 133.267C176.031 132.153 176.888 131.305 177.967 130.723C179.046 130.123 180.254 129.823 181.59 129.823C182.927 129.823 184.135 130.123 185.214 130.723C186.293 131.305 187.141 132.145 187.758 133.241C188.392 134.338 188.709 135.614 188.709 137.071C188.709 138.527 188.384 139.812 187.732 140.925C187.099 142.022 186.233 142.87 185.137 143.469C184.04 144.069 182.824 144.369 181.488 144.369ZM181.488 142.313C182.327 142.313 183.115 142.116 183.852 141.722C184.589 141.328 185.18 140.737 185.625 139.949C186.088 139.161 186.319 138.201 186.319 137.071C186.319 135.94 186.096 134.98 185.651 134.192C185.205 133.404 184.623 132.822 183.903 132.445C183.184 132.051 182.404 131.854 181.565 131.854C180.708 131.854 179.92 132.051 179.201 132.445C178.498 132.822 177.933 133.404 177.504 134.192C177.076 134.98 176.862 135.94 176.862 137.071C176.862 138.218 177.068 139.186 177.479 139.974C177.907 140.763 178.472 141.354 179.175 141.748C179.877 142.125 180.648 142.313 181.488 142.313Z" fill="white"/>
<path d="M190.91 137.045C190.91 135.606 191.201 134.346 191.784 133.267C192.366 132.171 193.163 131.323 194.174 130.723C195.202 130.123 196.35 129.823 197.617 129.823C198.714 129.823 199.733 130.08 200.676 130.594C201.618 131.091 202.337 131.751 202.834 132.573V125.121H205.199V144.138H202.834V141.491C202.372 142.33 201.686 143.024 200.778 143.572C199.87 144.103 198.808 144.369 197.592 144.369C196.341 144.369 195.202 144.061 194.174 143.444C193.163 142.827 192.366 141.962 191.784 140.848C191.201 139.735 190.91 138.467 190.91 137.045ZM202.834 137.071C202.834 136.008 202.62 135.083 202.192 134.295C201.764 133.507 201.181 132.907 200.444 132.496C199.725 132.068 198.928 131.854 198.054 131.854C197.181 131.854 196.384 132.059 195.664 132.47C194.945 132.882 194.371 133.481 193.943 134.269C193.514 135.057 193.3 135.983 193.3 137.045C193.3 138.124 193.514 139.066 193.943 139.872C194.371 140.66 194.945 141.268 195.664 141.696C196.384 142.107 197.181 142.313 198.054 142.313C198.928 142.313 199.725 142.107 200.444 141.696C201.181 141.268 201.764 140.66 202.192 139.872C202.62 139.066 202.834 138.133 202.834 137.071Z" fill="white"/>
<path d="M221.64 130.055V144.138H219.302V142.056C218.856 142.776 218.231 143.341 217.426 143.752C216.637 144.146 215.764 144.343 214.804 144.343C213.708 144.343 212.723 144.121 211.849 143.675C210.975 143.212 210.281 142.527 209.767 141.619C209.27 140.711 209.022 139.606 209.022 138.304V130.055H211.335V137.996C211.335 139.383 211.686 140.454 212.389 141.208C213.091 141.945 214.05 142.313 215.267 142.313C216.518 142.313 217.503 141.928 218.222 141.157C218.942 140.386 219.302 139.263 219.302 137.79V130.055H221.64Z" fill="white"/>
<path d="M224.715 137.071C224.715 135.614 225.006 134.346 225.589 133.267C226.171 132.171 226.976 131.323 228.004 130.723C229.049 130.123 230.24 129.823 231.577 129.823C233.307 129.823 234.729 130.243 235.842 131.083C236.973 131.922 237.718 133.087 238.078 134.578H235.56C235.32 133.721 234.849 133.044 234.146 132.548C233.461 132.051 232.604 131.802 231.577 131.802C230.24 131.802 229.161 132.265 228.338 133.19C227.516 134.098 227.105 135.392 227.105 137.071C227.105 138.767 227.516 140.077 228.338 141.002C229.161 141.928 230.24 142.39 231.577 142.39C232.604 142.39 233.461 142.15 234.146 141.671C234.832 141.191 235.303 140.506 235.56 139.615H238.078C237.701 141.054 236.948 142.21 235.817 143.084C234.686 143.941 233.273 144.369 231.577 144.369C230.24 144.369 229.049 144.069 228.004 143.469C226.976 142.87 226.171 142.022 225.589 140.925C225.006 139.829 224.715 138.544 224.715 137.071Z" fill="white"/>
<path d="M244.051 131.982V140.283C244.051 140.968 244.197 141.456 244.488 141.748C244.779 142.022 245.285 142.159 246.004 142.159H247.726V144.138H245.619C244.317 144.138 243.34 143.838 242.689 143.238C242.038 142.639 241.713 141.653 241.713 140.283V131.982H239.888V130.055H241.713V126.508H244.051V130.055H247.726V131.982H244.051Z" fill="white"/>
<path d="M58.0139 47.5433C57.961 47.5334 57.9132 47.5052 57.8789 47.4638C57.8445 47.4224 57.8257 47.3702 57.8257 47.3164C57.8257 47.2626 57.8445 47.2104 57.8789 47.169C57.9132 47.1276 57.961 47.0994 58.0139 47.0895C58.1095 47.0895 67.2184 46.2375 71.3031 38.1875C71.3166 38.1612 71.3351 38.1379 71.3577 38.1188C71.3802 38.0998 71.4063 38.0854 71.4345 38.0765C71.4626 38.0676 71.4922 38.0644 71.5216 38.0671C71.551 38.0697 71.5796 38.0782 71.6057 38.092C71.6327 38.1047 71.6568 38.1227 71.6767 38.1449C71.6965 38.1672 71.7118 38.1932 71.7214 38.2214C71.7311 38.2496 71.735 38.2794 71.7329 38.3092C71.7308 38.3389 71.7227 38.3679 71.7092 38.3945C67.5051 46.6754 58.1732 47.5354 58.0537 47.5433H58.0139Z" fill="#D6CD26" style="mix-blend-mode:multiply"/>
<path d="M57.7831 46.0635C57.7411 46.064 57.6998 46.0522 57.6645 46.0296C57.6291 46.007 57.6011 45.9745 57.584 45.9361C57.5705 45.9095 57.5625 45.8805 57.5604 45.8508C57.5583 45.821 57.5622 45.7912 57.5718 45.7629C57.5815 45.7347 57.5967 45.7088 57.6166 45.6865C57.6364 45.6643 57.6606 45.6463 57.6875 45.6335C59.8458 44.4978 61.7078 42.8718 63.1238 40.886C64.5398 38.9003 65.4705 36.6101 65.841 34.1995C65.8449 34.1701 65.8546 34.1418 65.8696 34.1162C65.8846 34.0906 65.9045 34.0682 65.9283 34.0505C65.952 34.0327 65.979 34.0198 66.0078 34.0125C66.0366 34.0053 66.0665 34.0039 66.0958 34.0084C66.1259 34.0113 66.1551 34.0203 66.1816 34.0349C66.2082 34.0495 66.2314 34.0693 66.2501 34.0931C66.2687 34.1169 66.2823 34.1443 66.29 34.1736C66.2977 34.2028 66.2993 34.2333 66.2949 34.2632C65.9068 36.7463 64.9438 39.1042 63.4825 41.1489C62.0212 43.1936 60.1022 44.8684 57.8786 46.0396C57.8493 46.0555 57.8164 46.0637 57.7831 46.0635Z" fill="#D6CD26" style="mix-blend-mode:multiply"/>
<path d="M72.3061 37.9868C72.3076 38.1241 72.2684 38.2588 72.1932 38.3738C72.1181 38.4887 72.0104 38.5788 71.884 38.6324C71.7576 38.6861 71.618 38.7009 71.4831 38.6751C71.3482 38.6493 71.2241 38.584 71.1264 38.4874C71.0287 38.3908 70.9619 38.2674 70.9346 38.1328C70.9072 37.9983 70.9204 37.8586 70.9726 37.7315C71.0248 37.6045 71.1136 37.4958 71.2277 37.4193C71.3417 37.3428 71.476 37.302 71.6133 37.302C71.7957 37.302 71.9707 37.3739 72.1004 37.5021C72.2301 37.6303 72.304 37.8044 72.3061 37.9868Z" fill="#FFF536"/>
<path d="M66.7568 34.0306C66.7568 34.1676 66.7162 34.3015 66.64 34.4155C66.5639 34.5294 66.4557 34.6182 66.3292 34.6706C66.2026 34.723 66.0633 34.7368 65.9289 34.71C65.7945 34.6833 65.6711 34.6173 65.5742 34.5204C65.4774 34.4236 65.4114 34.3001 65.3846 34.1657C65.3579 34.0314 65.3716 33.8921 65.4241 33.7655C65.4765 33.6389 65.5653 33.5307 65.6792 33.4546C65.7931 33.3785 65.9271 33.3379 66.0641 33.3379C66.2478 33.3379 66.424 33.4109 66.5539 33.5408C66.6838 33.6707 66.7568 33.8469 66.7568 34.0306Z" fill="#FFF536"/>
</svg>
