<svg width="25" height="30" viewBox="0 0 25 30" fill="none" xmlns="http://www.w3.org/2000/svg">
<path d="M12.4418 0C5.57687 0 0 5.59117 0 12.4737C0 19.3563 5.57687 24.9475 12.4418 24.9475H13.1737V29.35C20.2875 25.916 24.8837 19.0775 24.8837 12.4737C24.8837 5.59117 19.3068 0 12.4418 0ZM13.9056 21.2787H10.9781V18.3437H13.9056V21.2787ZM13.9056 16.1425H10.9781C10.9781 11.3731 15.3693 11.74 15.3693 8.805C15.3693 7.19075 14.052 5.87 12.4418 5.87C10.8317 5.87 9.51434 7.19075 9.51434 8.805H6.58685C6.58685 5.56182 9.20696 2.935 12.4418 2.935C15.6767 2.935 18.2968 5.56182 18.2968 8.805C18.2968 12.4737 13.9056 12.8406 13.9056 16.1425Z" fill="#16A02C"/>
</svg>
