<svg width="21" height="19" viewBox="0 0 21 19" fill="none" xmlns="http://www.w3.org/2000/svg">
<path d="M20.8861 6.21722L19.7838 1.60444C19.5528 0.654444 18.734 0 17.7786 0H3.19637C2.25152 0 1.42215 0.665 1.20168 1.60444L0.0993519 6.21722C-0.152609 7.29389 0.0783553 8.39167 0.750251 9.25722C0.834239 9.37333 0.949721 9.45778 1.04421 9.56333V16.8889C1.04421 18.05 1.98906 19 3.14388 19H17.8416C18.9964 19 19.9413 18.05 19.9413 16.8889V9.56333C20.0358 9.46833 20.1513 9.37333 20.2352 9.26778C20.9071 8.40222 21.1486 7.29389 20.8861 6.21722ZM17.7471 2.10056L18.8495 6.71333C18.9544 7.15667 18.86 7.6 18.587 7.94833C18.44 8.13833 18.1251 8.44444 17.6001 8.44444C16.9597 8.44444 16.4033 7.92722 16.3298 7.24111L15.7209 2.11111L17.7471 2.10056ZM11.5426 2.11111H13.6003L14.1672 6.88222C14.2197 7.29389 14.0937 7.70556 13.8207 8.01167C13.5898 8.28611 13.2538 8.44444 12.8234 8.44444C12.12 8.44444 11.5426 7.82167 11.5426 7.06167V2.11111ZM6.80782 6.88222L7.38523 2.11111H9.44291V7.06167C9.44291 7.82167 8.8655 8.44444 8.08862 8.44444C7.73167 8.44444 7.40622 8.28611 7.15426 8.01167C6.8918 7.70556 6.76582 7.29389 6.80782 6.88222ZM2.13604 6.71333L3.19637 2.11111H5.26455L4.65565 7.24111C4.57166 7.92722 4.02575 8.44444 3.38534 8.44444C2.87092 8.44444 2.54547 8.13833 2.409 7.94833C2.12554 7.61056 2.03105 7.15667 2.13604 6.71333ZM3.14388 16.8889V10.5239C3.22787 10.5344 3.30136 10.5556 3.38534 10.5556C4.2987 10.5556 5.12808 10.1756 5.73698 9.55278C6.36688 10.1861 7.20675 10.5556 8.16211 10.5556C9.07547 10.5556 9.89434 10.1756 10.5032 9.57389C11.1226 10.1756 11.9625 10.5556 12.9074 10.5556C13.7892 10.5556 14.6291 10.1861 15.259 9.55278C15.8679 10.1756 16.6973 10.5556 17.6106 10.5556C17.6946 10.5556 17.7681 10.5344 17.8521 10.5239V16.8889H3.14388Z" fill="#16A02C"/>
</svg>
