<svg width="40" height="40" viewBox="0 0 40 40" fill="none" xmlns="http://www.w3.org/2000/svg">
<circle cx="20" cy="20" r="19.5" fill="#D7F3DD" stroke="#16A02C"/>
<path d="M26.4398 25.2281L25.8771 24.4011L24.9251 25.8002C24.768 24.8543 24.1723 24.2831 23.5602 24.3749L23.3729 24.4024V26.569H22.577V24.5193L20.1894 24.8701V27.1538H19.3935V24.987L17.3602 25.2858C16.7043 25.3823 16.21 26.1852 16.21 27.1538C16.21 28.1224 16.7043 28.9253 17.3602 29.0218L20.9852 29.5544V27.1538H21.7811V29.6714L23.5602 29.9608C24.2029 30.0561 24.7787 29.3993 24.9261 28.5089L25.8771 29.9064L26.4398 29.0795L25.5274 27.7386H26.583V26.569H25.5274L26.4398 25.2281Z" fill="#16A02C"/>
<path d="M23.4808 23.2112C23.9614 23.1385 24.4429 23.3227 24.8547 23.7377C24.9232 23.3295 24.9645 22.9078 24.9645 22.4756C24.9645 21.4939 24.7768 20.3808 24.4216 19.5505C24.066 18.7196 24.0726 17.7321 24.1403 17.0491C24.1919 16.5283 24.1729 15.9972 24.0843 15.4689C23.8255 13.9253 22.9367 12.7077 21.8727 12.4399C21.8298 12.4292 21.7872 12.4362 21.7442 12.4284C21.5723 11.0711 20.7638 10 19.7913 10H19.3933V11.1696H19.7913C20.3298 11.1696 20.7808 11.7386 20.929 12.4598C20.4396 12.5791 19.9742 12.8635 19.588 13.341C19.0459 14.0132 18.7191 14.9576 18.6343 15.9777C18.9913 15.876 19.3151 15.8462 19.7299 15.9549C21.6712 16.4579 22.9122 19.8639 22.4943 23.3561L23.4808 23.2112Z" fill="#16A02C"/>
<path d="M17.2811 24.1225L21.6558 23.4797C21.6727 23.3708 21.6971 23.2683 21.7105 23.1567C22.0532 20.2985 21.1015 17.4984 19.5894 17.1066C19.0415 16.9621 18.4792 17.1311 17.9619 17.5869C17.9037 17.6378 17.8393 17.6695 17.7756 17.7034C17.7047 16.9991 17.4902 16.3459 17.1493 15.8159C16.7001 15.1181 16.0678 14.7178 15.4142 14.7178V15.8874C15.8564 15.8874 16.2672 16.1472 16.5711 16.6195C16.7606 16.9143 16.8838 17.27 16.9496 17.6516C16.9155 17.6285 16.8793 17.6167 16.8466 17.588C16.3282 17.1306 15.765 16.9616 15.2183 17.1066C13.9103 17.4455 12.9996 19.5864 13 22.0082C13.0005 24.7865 14.1844 27.0165 15.4386 27.5387C15.4277 27.4117 15.4142 27.2857 15.4142 27.1544C15.4142 25.5828 16.2167 24.279 17.2811 24.1225Z" fill="#16A02C"/>
</svg>
