<svg width="34" height="34" viewBox="0 0 34 34" fill="none" xmlns="http://www.w3.org/2000/svg">
<path d="M20.7121 16.5714C22.2296 16.5714 23.4454 15.3271 23.4454 13.7857C23.4454 12.2443 22.2296 11 20.7121 11C19.1946 11 17.9697 12.2443 17.9697 13.7857C17.9697 15.3271 19.1946 16.5714 20.7121 16.5714ZM13.399 16.5714C14.9165 16.5714 16.1323 15.3271 16.1323 13.7857C16.1323 12.2443 14.9165 11 13.399 11C11.8815 11 10.6566 12.2443 10.6566 13.7857C10.6566 15.3271 11.8815 16.5714 13.399 16.5714ZM13.399 18.4286C11.269 18.4286 7 19.515 7 21.6786V24H19.798V21.6786C19.798 19.515 15.5289 18.4286 13.399 18.4286ZM20.7121 18.4286C20.447 18.4286 20.1454 18.4471 19.8254 18.475C20.8858 19.255 21.6263 20.3043 21.6263 21.6786V24H27.1111V21.6786C27.1111 19.515 22.8421 18.4286 20.7121 18.4286Z" fill="#16A12C"/>
</svg>
