<svg width="34" height="34" viewBox="0 0 34 34" fill="none" xmlns="http://www.w3.org/2000/svg">
<path d="M22.016 19.9096C21.9371 20.2895 21.7627 20.6007 21.4928 20.8433C21.2263 21.0859 20.8627 21.2598 20.402 21.3652L22.3813 23.5197H20.713L18.8916 21.437L19.0792 20.4985H19.3408C19.8377 20.4985 20.1667 20.4443 20.328 20.3358C20.4925 20.224 20.6044 20.082 20.6636 19.9096H18.8916V18.9233H20.6488C20.5961 18.7988 20.5221 18.6967 20.4267 18.6169C20.3345 18.5371 20.2227 18.4828 20.091 18.4541C19.9594 18.4222 19.7554 18.4062 19.479 18.4062H18.8916V17.4199H23.4919V18.4062H21.5817C21.733 18.5211 21.8548 18.6935 21.9469 18.9233H23.4919V19.9096H22.016Z" fill="#16A12C"/>
<path d="M23.3408 10H11.4823C10.6596 10 10.0074 10.656 10.0074 11.4741L10 20.3188C10 21.137 10.6596 21.793 11.4823 21.793H14.4469C14.8546 21.793 15.1881 21.4613 15.1881 21.0559C15.1881 20.6505 14.8546 20.3188 14.4469 20.3188H11.4823V15.8965H24.8231V11.4741C24.8231 10.6634 24.1561 10 23.3408 10ZM23.3408 12.9482H11.4823V11.4741H23.3408V12.9482Z" fill="#16A12C"/>
</svg>
