<svg width="11" height="8" viewBox="0 0 11 8" fill="none" xmlns="http://www.w3.org/2000/svg">
<path d="M5.78486 2.64829H5.35081C5.3515 2.98585 5.35218 3.47828 5.35218 3.67539C5.35218 3.90993 5.35356 4.38176 5.35459 4.70695C5.5177 4.70592 5.69902 4.70455 5.80169 4.70283C6.31919 4.69356 6.55098 4.1819 6.55098 3.67848C6.55098 3.18055 6.34975 2.64829 5.78486 2.64829ZM5.78486 2.64829H5.35081C5.3515 2.98585 5.35218 3.47828 5.35218 3.67539C5.35218 3.90993 5.35356 4.38176 5.35459 4.70695C5.5177 4.70592 5.69902 4.70455 5.80169 4.70283C6.31919 4.69356 6.55098 4.1819 6.55098 3.67848C6.55098 3.18055 6.34975 2.64829 5.78486 2.64829ZM9.64842 0.3125H1.79013C1.19605 0.3125 0.712891 0.79566 0.712891 1.38974V5.96722C0.712891 6.5613 1.19605 7.04446 1.79013 7.04446H9.64842C10.2425 7.04446 10.726 6.5613 10.726 5.96722V1.38974C10.726 0.79566 10.2425 0.3125 9.64842 0.3125ZM3.02327 4.19872C2.92574 4.19872 2.7561 4.19941 2.60157 4.20044V5.05207C2.60157 5.24162 2.44808 5.39546 2.25818 5.39546C2.06862 5.39546 1.91478 5.24162 1.91478 5.05207V2.30489C1.91478 2.11808 2.06656 1.96149 2.25818 1.96149H3.02327C3.64825 1.96149 4.15716 2.4632 4.15716 3.08028C4.15716 3.69702 3.64825 4.19872 3.02327 4.19872ZM5.81371 5.38928C5.59188 5.39306 5.03729 5.39546 5.01359 5.39546C4.83091 5.39546 4.66333 5.25742 4.66333 5.00742V2.30764C4.66333 2.30661 4.66333 2.30558 4.66333 2.30558C4.66299 2.11568 4.81683 1.96149 5.00673 1.96149H5.78486C6.65366 1.96149 7.23778 2.65138 7.23778 3.67848C7.23778 4.65544 6.63855 5.37486 5.81371 5.38928ZM9.09212 3.30898C9.28168 3.30898 9.43552 3.46282 9.43552 3.65238C9.43552 3.84194 9.28168 3.99578 9.09212 3.99578H8.41048V5.05207C8.41048 5.24162 8.25698 5.39546 8.06708 5.39546C7.87753 5.39546 7.72368 5.24162 7.72368 5.05207V2.30489C7.72368 2.11533 7.87753 1.96149 8.06708 1.96149H9.18072C9.37027 1.96149 9.52411 2.11533 9.52411 2.30489C9.52411 2.49444 9.37027 2.64829 9.18072 2.64829H8.41048V3.30898H9.09212ZM5.78486 2.64829H5.35081C5.3515 2.98585 5.35218 3.47828 5.35218 3.67539C5.35218 3.90993 5.35356 4.38176 5.35459 4.70695C5.5177 4.70592 5.69902 4.70455 5.80169 4.70283C6.31919 4.69356 6.55098 4.1819 6.55098 3.67848C6.55098 3.18055 6.34975 2.64829 5.78486 2.64829Z" fill="#16A02C"/>
</svg>
