<svg width="34" height="34" viewBox="0 0 34 34" fill="none" xmlns="http://www.w3.org/2000/svg">
<path d="M23.0529 10.1781L21.8682 9L20.6835 10.1781L19.4988 9L18.3142 10.1781L17.1295 9L15.9448 10.1781L14.7602 9L13.5755 10.1781L12.3908 9V19.9958H10.0215V22.3521C10.0215 23.6559 11.0798 24.7083 12.3908 24.7083H21.8682C23.1792 24.7083 24.2375 23.6559 24.2375 22.3521V9L23.0529 10.1781ZM22.658 22.3521C22.658 22.784 22.3026 23.1375 21.8682 23.1375C21.4338 23.1375 21.0784 22.784 21.0784 22.3521V19.9958H13.9704V11.3562H22.658V22.3521Z" fill="#16A12C"/>
<path d="M19.5004 12.9258H14.7617V14.4966H19.5004V12.9258Z" fill="#16A12C"/>
<path d="M21.8715 12.9258H20.292V14.4966H21.8715V12.9258Z" fill="#16A12C"/>
<path d="M19.5004 15.2832H14.7617V16.854H19.5004V15.2832Z" fill="#16A12C"/>
<path d="M21.8715 15.2832H20.292V16.8541H21.8715V15.2832Z" fill="#16A12C"/>
</svg>
