<svg width="17" height="16" viewBox="0 0 17 16" fill="none" xmlns="http://www.w3.org/2000/svg">
<path d="M11.7973 10.3182H11.0517L10.7875 10.065C11.92 8.75184 12.5051 6.96032 12.1842 5.05624C11.7407 2.44869 9.5512 0.366395 6.90874 0.0474853C2.91673 -0.440259 -0.442965 2.89891 0.0477772 6.86652C0.368647 9.49284 2.46374 11.6689 5.08733 12.1098C7.00311 12.4287 8.80565 11.8471 10.1269 10.7216L10.3817 10.9842V11.7252L14.3926 15.7116C14.7795 16.0961 15.4118 16.0961 15.7987 15.7116C16.1857 15.327 16.1857 14.6986 15.7987 14.314L11.7973 10.3182ZM6.13487 10.3182C3.78497 10.3182 1.88806 8.43293 1.88806 6.09739C1.88806 3.76184 3.78497 1.87653 6.13487 1.87653C8.48478 1.87653 10.3817 3.76184 10.3817 6.09739C10.3817 8.43293 8.48478 10.3182 6.13487 10.3182Z" fill="#16A02C"/>
</svg>
