<svg width="14" height="17" viewBox="0 0 14 17" fill="none" xmlns="http://www.w3.org/2000/svg">
<path d="M11.6452 11.6368C11.0569 11.6368 10.5305 11.8641 10.1279 12.2203L4.60834 9.07539C4.64705 8.90109 4.67801 8.7268 4.67801 8.54492C4.67801 8.36305 4.64705 8.18875 4.60834 8.01445L10.066 4.89984C10.484 5.27875 11.0337 5.51367 11.6452 5.51367C12.9303 5.51367 13.9676 4.4982 13.9676 3.24023C13.9676 1.98227 12.9303 0.966797 11.6452 0.966797C10.3602 0.966797 9.32282 1.98227 9.32282 3.24023C9.32282 3.42211 9.35379 3.59641 9.39249 3.7707L3.93484 6.88531C3.51681 6.50641 2.96717 6.27149 2.35561 6.27149C1.07054 6.27149 0.0332031 7.28695 0.0332031 8.54492C0.0332031 9.80289 1.07054 10.8184 2.35561 10.8184C2.96717 10.8184 3.51681 10.5834 3.93484 10.2045L9.44668 13.357C9.40798 13.5162 9.38475 13.6829 9.38475 13.8496C9.38475 15.0697 10.3989 16.0624 11.6452 16.0624C12.8916 16.0624 13.9057 15.0697 13.9057 13.8496C13.9057 12.6295 12.8916 11.6368 11.6452 11.6368Z" fill="#16A02C"/>
</svg>
