<svg width="34" height="34" viewBox="0 0 34 34" fill="none" xmlns="http://www.w3.org/2000/svg">
<path d="M23.4172 18.1951C23.4522 17.9333 23.4697 17.6629 23.4697 17.375C23.4697 17.0958 23.4522 16.8167 23.4084 16.5549L25.1845 15.1766C25.342 15.0544 25.3858 14.8189 25.2895 14.6444L23.6097 11.748C23.5047 11.5561 23.2859 11.4951 23.0934 11.5561L21.0024 12.3936C20.5649 12.0621 20.1012 11.7829 19.585 11.5736L19.27 9.35768C19.235 9.14831 19.06 9 18.85 9H15.4903C15.2803 9 15.114 9.14831 15.079 9.35768L14.7641 11.5736C14.2479 11.7829 13.7754 12.0708 13.3467 12.3936L11.2556 11.5561C11.0631 11.4863 10.8444 11.5561 10.7394 11.748L9.06825 14.6444C8.96325 14.8276 8.99825 15.0544 9.17324 15.1766L10.9494 16.5549C10.9056 16.8167 10.8706 17.1046 10.8706 17.375C10.8706 17.6454 10.8881 17.9333 10.9319 18.1951L9.15574 19.5734C8.99825 19.6956 8.9545 19.9311 9.05075 20.1056L10.7306 23.002C10.8356 23.1939 11.0543 23.2549 11.2468 23.1939L13.3379 22.3564C13.7754 22.6879 14.2391 22.9671 14.7553 23.1764L15.0703 25.3923C15.114 25.6017 15.2803 25.75 15.4903 25.75H18.85C19.06 25.75 19.235 25.6017 19.2612 25.3923L19.5762 23.1764C20.0924 22.9671 20.5649 22.6879 20.9936 22.3564L23.0847 23.1939C23.2772 23.2637 23.4959 23.1939 23.6009 23.002L25.2808 20.1056C25.3858 19.9137 25.342 19.6956 25.1758 19.5734L23.4172 18.1951ZM17.1701 20.5156C15.4378 20.5156 14.0204 19.1023 14.0204 17.375C14.0204 15.6477 15.4378 14.2344 17.1701 14.2344C18.9025 14.2344 20.3199 15.6477 20.3199 17.375C20.3199 19.1023 18.9025 20.5156 17.1701 20.5156Z" fill="#16A12C"/>
</svg>
