<svg width="34" height="34" viewBox="0 0 34 34" fill="none" xmlns="http://www.w3.org/2000/svg">
<path d="M22.657 14.1516H20.6763V12.5758C20.6763 11.7091 19.9633 11 19.0918 11H9.58454C8.71304 11 8 11.7091 8 12.5758V19.6668C8 20.5335 8.71304 21.2426 9.58454 21.2426C9.58454 22.5505 10.6462 23.6063 11.9613 23.6063C13.2765 23.6063 14.3382 22.5505 14.3382 21.2426H19.0918C19.0918 22.5505 20.1534 23.6063 21.4686 23.6063C22.7838 23.6063 23.8454 22.5505 23.8454 21.2426H24.6377C25.0734 21.2426 25.4299 20.888 25.4299 20.4547V17.831C25.4299 17.4922 25.319 17.1613 25.113 16.8855L23.2908 14.4667C23.1403 14.2697 22.9026 14.1516 22.657 14.1516ZM11.9613 22.0305C11.5256 22.0305 11.1691 21.6759 11.1691 21.2426C11.1691 20.8092 11.5256 20.4547 11.9613 20.4547C12.3971 20.4547 12.7536 20.8092 12.7536 21.2426C12.7536 21.6759 12.3971 22.0305 11.9613 22.0305ZM22.657 15.3334L24.2098 17.3031H20.6763V15.3334H22.657ZM21.4686 22.0305C21.0328 22.0305 20.6763 21.6759 20.6763 21.2426C20.6763 20.8092 21.0328 20.4547 21.4686 20.4547C21.9043 20.4547 22.2609 20.8092 22.2609 21.2426C22.2609 21.6759 21.9043 22.0305 21.4686 22.0305Z" fill="#16A12C"/>
</svg>
